SplineFontDB: 3.0
FontName: FiraCodemScript-Regular
FullName: Fira Code mScript Regular
FamilyName: Fira Code mScript
Weight: Regular
Copyright: Copyright (c) 2015 by Nikita Prokopov
Version: 1.205
ItalicAngle: 0
UnderlinePosition: -100
UnderlineWidth: 50
Ascent: 800
Descent: 200
InvalidEm: 0
sfntRevision: 0x0001347a
LayerCount: 2
Layer: 0 1 "Back" 1
Layer: 1 1 "Fore" 0
XUID: [1021 102 -1850447114 864]
StyleMap: 0x0040
FSType: 0
OS2Version: 4
OS2_WeightWidthSlopeOnly: 0
OS2_UseTypoMetrics: 1
CreationTime: 1519723474
ModificationTime: 1530244284
PfmFamily: 49
TTFWeight: 400
TTFWidth: 5
LineGap: 0
VLineGap: 0
Panose: 2 11 5 9 5 0 0 2 0 4
OS2TypoAscent: 935
OS2TypoAOffset: 0
OS2TypoDescent: -265
OS2TypoDOffset: 0
OS2TypoLinegap: 0
OS2WinAscent: 935
OS2WinAOffset: 0
OS2WinDescent: 265
OS2WinDOffset: 0
HheadAscent: 935
HheadAOffset: 0
HheadDescent: -265
HheadDOffset: 0
OS2SubXSize: 650
OS2SubYSize: 600
OS2SubXOff: 0
OS2SubYOff: 75
OS2SupXSize: 650
OS2SupYSize: 600
OS2SupXOff: 0
OS2SupYOff: 350
OS2StrikeYSize: 50
OS2StrikeYPos: 316
OS2CapHeight: 689
OS2XHeight: 527
OS2Vendor: 'CTDB'
OS2CodePages: 6000009f.00000000
OS2UnicodeRanges: 40000287.02003801.00000000.00000000
Lookup: 1 0 0 "'aalt' Access All Alternates lookup 0" { "'aalt' Access All Alternates lookup 0 subtable"  } ['aalt' ('DFLT' <'dflt' > 'cyrl' <'dflt' > 'grek' <'dflt' > 'latn' <'AFK ' 'AZE ' 'CAT ' 'CRT ' 'KAZ ' 'MOL ' 'PLK ' 'ROM ' 'TAT ' 'TRK ' 'dflt' > 'zinh' <'dflt' > 'zyyy' <'dflt' > ) ]
Lookup: 3 0 0 "'aalt' Access All Alternates lookup 1" { "'aalt' Access All Alternates lookup 1 subtable"  } ['aalt' ('DFLT' <'dflt' > 'cyrl' <'dflt' > 'grek' <'dflt' > 'latn' <'AFK ' 'AZE ' 'CAT ' 'CRT ' 'KAZ ' 'MOL ' 'PLK ' 'ROM ' 'TAT ' 'TRK ' 'dflt' > 'zinh' <'dflt' > 'zyyy' <'dflt' > ) ]

StartChar: .notdef
Encoding: 1114112 -1 0
Width: 600
Flags: W
LayerCount: 2
Fore
SplineSet
90 1050 m 1,0,-1
 510 1050 l 1,1,-1
 510 -350 l 1,2,-1
 90 -350 l 1,3,-1
 90 1050 l 1,0,-1
456 -298 m 1,4,-1
 456 998 l 1,5,-1
 145 998 l 1,6,-1
 145 -298 l 1,7,-1
 456 -298 l 1,4,-1
299.5 155.5 m 128,-1,9
 292 149 292 149 282 149 c 256,10,11
 272 149 272 149 264.5 155.5 c 128,-1,12
 257 162 257 162 257 173 c 2,13,-1
 257 257 l 1,14,15
 310 260 310 260 329 276.5 c 128,-1,16
 348 293 348 293 348 334 c 0,17,18
 348 367 348 367 335 385 c 128,-1,19
 322 403 322 403 287 403 c 0,20,21
 258 403 258 403 235 392 c 0,22,23
 228 389 228 389 222 389 c 0,24,25
 211 389 211 389 204.5 395.5 c 128,-1,26
 198 402 198 402 198 412 c 0,27,28
 198 431 198 431 227.5 441 c 128,-1,29
 257 451 257 451 291 451 c 0,30,31
 351 451 351 451 376.5 419 c 128,-1,32
 402 387 402 387 402 336 c 0,33,34
 402 283 402 283 379.5 254 c 128,-1,35
 357 225 357 225 307 218 c 1,36,-1
 307 173 l 2,37,8
 307 162 307 162 299.5 155.5 c 128,-1,9
257 110 m 128,-1,39
 267 120 267 120 282 120 c 256,40,41
 297 120 297 120 307 110 c 128,-1,42
 317 100 317 100 317 85 c 0,43,44
 317 69 317 69 307 58.5 c 128,-1,45
 297 48 297 48 282 48 c 256,46,47
 267 48 267 48 257 58.5 c 128,-1,48
 247 69 247 69 247 85 c 0,49,38
 247 100 247 100 257 110 c 128,-1,39
EndSplineSet
EndChar

StartChar: A
Encoding: 65 65 4
Width: 600
GlyphClass: 2
Flags: W
AnchorPoint: "Anchor-7" 300 689 basechar 0
AnchorPoint: "Anchor-6" 298 0 basechar 0
LayerCount: 2
Fore
SplineSet
434 176 m 1,0,-1
 161 176 l 1,1,-1
 106 0 l 1,2,-1
 20 0 l 1,3,-1
 245 689 l 1,4,-1
 355 689 l 1,5,-1
 579 0 l 1,6,-1
 489 0 l 1,7,-1
 434 176 l 1,0,-1
184 248 m 1,8,-1
 411 248 l 1,9,-1
 298 615 l 1,10,-1
 184 248 l 1,8,-1
EndSplineSet
Substitution2: "Single Substitution lookup 159 subtable" ordfeminine
Substitution2: "'aalt' Access All Alternates lookup 0 subtable" ordfeminine
EndChar

StartChar: Aogonek
Encoding: 260 260 11
Width: 600
GlyphClass: 2
Flags: W
AnchorPoint: "Anchor-7" 300 689 basechar 0
AnchorPoint: "Anchor-6" 298 0 basechar 0
LayerCount: 2
Fore
SplineSet
441 -58 m 128,-1,1
 415 -85 415 -85 415 -114 c 0,2,3
 415 -138 415 -138 428 -150 c 128,-1,4
 441 -162 441 -162 471 -162 c 0,5,6
 498 -162 498 -162 532 -155 c 1,7,-1
 524 -223 l 1,8,9
 482 -229 482 -229 460 -229 c 0,10,11
 404 -229 404 -229 371 -201.5 c 128,-1,12
 338 -174 338 -174 338 -131 c 0,13,14
 338 -36 338 -36 484 17 c 1,15,-1
 434 176 l 1,16,-1
 161 176 l 1,17,-1
 106 0 l 1,18,-1
 20 0 l 1,19,-1
 245 689 l 1,20,-1
 355 689 l 1,21,-1
 579 0 l 1,22,-1
 539 0 l 1,23,0
 467 -31 467 -31 441 -58 c 128,-1,1
184 248 m 1,24,-1
 411 248 l 1,25,-1
 298 615 l 1,26,-1
 184 248 l 1,24,-1
EndSplineSet
EndChar

StartChar: AE
Encoding: 198 198 14
Width: 600
GlyphClass: 2
Flags: W
AnchorPoint: "Anchor-7" 361 689 basechar 0
AnchorPoint: "Anchor-6" 300 0 basechar 0
LayerCount: 2
Fore
SplineSet
330 175 m 1,0,-1
 126 175 l 1,1,-1
 77 0 l 1,2,-1
 -12 0 l 1,3,-1
 190 689 l 1,4,-1
 566 689 l 1,5,-1
 556 618 l 1,6,-1
 320 618 l 1,7,-1
 371 385 l 1,8,-1
 557 385 l 1,9,-1
 557 314 l 1,10,-1
 384 314 l 1,11,-1
 436 71 l 1,12,-1
 607 71 l 1,13,-1
 607 0 l 1,14,-1
 366 0 l 1,15,-1
 330 175 l 1,0,-1
148 248 m 1,16,-1
 314 248 l 1,17,-1
 241 620 l 1,18,-1
 148 248 l 1,16,-1
EndSplineSet
EndChar

StartChar: B
Encoding: 66 66 16
Width: 600
GlyphClass: 2
Flags: W
AnchorPoint: "Anchor-7" 300 689 basechar 0
AnchorPoint: "Anchor-6" 300 0 basechar 0
LayerCount: 2
Fore
SplineSet
465.5 46 m 128,-1,1
 391 0 391 0 282 0 c 2,2,-1
 96 0 l 1,3,-1
 96 689 l 1,4,-1
 266 689 l 2,5,6
 371 689 371 689 440.5 648.5 c 128,-1,7
 510 608 510 608 510 515 c 0,8,9
 510 453 510 453 473 415.5 c 128,-1,10
 436 378 436 378 381 365 c 1,11,12
 540 338 540 338 540 196 c 0,13,0
 540 92 540 92 465.5 46 c 128,-1,1
386 592.5 m 128,-1,15
 351 618 351 618 286 618 c 2,16,-1
 183 618 l 1,17,-1
 183 396 l 1,18,-1
 294 396 l 2,19,20
 421 396 421 396 421 510 c 0,21,14
 421 567 421 567 386 592.5 c 128,-1,15
408.5 295 m 128,-1,23
 369 324 369 324 300 324 c 2,24,-1
 183 324 l 1,25,-1
 183 72 l 1,26,-1
 297 72 l 2,27,28
 360 72 360 72 404 98 c 128,-1,29
 448 124 448 124 448 193 c 0,30,22
 448 266 448 266 408.5 295 c 128,-1,23
EndSplineSet
EndChar

StartChar: C
Encoding: 67 67 17
Width: 600
GlyphClass: 2
Flags: W
AnchorPoint: "Anchor-7" 365 689 basechar 0
AnchorPoint: "Anchor-6" 350 0 basechar 0
LayerCount: 2
Fore
SplineSet
468 683.5 m 128,-1,1
 514 667 514 667 558 633 c 1,2,-1
 509 576 l 1,3,4
 448 627 448 627 364 627 c 0,5,6
 271 627 271 627 212.5 559.5 c 128,-1,7
 154 492 154 492 154 345 c 0,8,9
 154 199 154 199 211 131 c 128,-1,10
 268 63 268 63 363 63 c 0,11,12
 415 63 415 63 452 78 c 128,-1,13
 489 93 489 93 523 120 c 1,14,-1
 568 64 l 1,15,16
 491 -11 491 -11 362 -11 c 0,17,18
 277 -11 277 -11 209 30.5 c 128,-1,19
 141 72 141 72 102 152 c 128,-1,20
 63 232 63 232 63 345 c 0,21,22
 63 457 63 457 102.5 537.5 c 128,-1,23
 142 618 142 618 209.5 659 c 128,-1,24
 277 700 277 700 358 700 c 0,25,0
 422 700 422 700 468 683.5 c 128,-1,1
EndSplineSet
EndChar

StartChar: Ccedilla
Encoding: 199 199 20
Width: 600
GlyphClass: 2
Flags: W
AnchorPoint: "Anchor-7" 365 689 basechar 0
AnchorPoint: "Anchor-6" 350 0 basechar 0
LayerCount: 2
Fore
SplineSet
439.5 -84.5 m 128,-1,1
 463 -108 463 -108 463 -140 c 0,2,3
 463 -187 463 -187 427.5 -212.5 c 128,-1,4
 392 -238 392 -238 341 -238 c 0,5,6
 311 -238 311 -238 283.5 -231.5 c 128,-1,7
 256 -225 256 -225 236 -214 c 1,8,-1
 263 -166 l 1,9,10
 293 -182 293 -182 330 -182 c 0,11,12
 390 -182 390 -182 390 -141 c 0,13,14
 390 -115 390 -115 369 -106 c 128,-1,15
 348 -97 348 -97 304 -97 c 1,16,-1
 310 -7 l 1,17,18
 238 5 238 5 182 49 c 128,-1,19
 126 93 126 93 94.5 168.5 c 128,-1,20
 63 244 63 244 63 345 c 0,21,22
 63 457 63 457 102.5 537.5 c 128,-1,23
 142 618 142 618 209.5 659 c 128,-1,24
 277 700 277 700 358 700 c 0,25,26
 422 700 422 700 468 683.5 c 128,-1,27
 514 667 514 667 558 633 c 1,28,-1
 509 576 l 1,29,30
 448 627 448 627 364 627 c 0,31,32
 271 627 271 627 212.5 559.5 c 128,-1,33
 154 492 154 492 154 345 c 0,34,35
 154 199 154 199 211 131 c 128,-1,36
 268 63 268 63 363 63 c 0,37,38
 415 63 415 63 452 78 c 128,-1,39
 489 93 489 93 523 120 c 1,40,-1
 568 64 l 1,41,42
 494 -8 494 -8 370 -11 c 1,43,-1
 370 -57 l 1,44,0
 416 -61 416 -61 439.5 -84.5 c 128,-1,1
EndSplineSet
EndChar

StartChar: D
Encoding: 68 68 23
Width: 600
GlyphClass: 2
Flags: W
AnchorPoint: "Anchor-7" 284 689 basechar 0
AnchorPoint: "Anchor-6" 300 0 basechar 0
LayerCount: 2
Fore
SplineSet
463 76 m 128,-1,1
 373 0 373 0 241 0 c 2,2,-1
 83 0 l 1,3,-1
 83 689 l 1,4,-1
 230 689 l 2,5,6
 375 689 375 689 464 616 c 128,-1,7
 553 543 553 543 553 348 c 0,8,0
 553 152 553 152 463 76 c 128,-1,1
429.5 519.5 m 128,-1,10
 399 579 399 579 354 598.5 c 128,-1,11
 309 618 309 618 251 618 c 2,12,-1
 170 618 l 1,13,-1
 170 70 l 1,14,-1
 252 70 l 2,15,16
 341 70 341 70 400.5 131.5 c 128,-1,17
 460 193 460 193 460 348 c 0,18,9
 460 460 460 460 429.5 519.5 c 128,-1,10
EndSplineSet
EndChar

StartChar: Eth
Encoding: 208 208 24
Width: 600
GlyphClass: 2
Flags: W
AnchorPoint: "Anchor-7" 294 689 basechar 0
AnchorPoint: "Anchor-6" 310 0 basechar 0
LayerCount: 2
Fore
SplineSet
474 616 m 128,-1,1
 563 543 563 543 563 348 c 0,2,3
 563 152 563 152 473 76 c 128,-1,4
 383 0 383 0 251 0 c 2,5,-1
 93 0 l 1,6,-1
 93 320 l 1,7,-1
 20 320 l 1,8,-1
 20 386 l 1,9,-1
 93 386 l 1,10,-1
 93 689 l 1,11,-1
 240 689 l 2,12,0
 385 689 385 689 474 616 c 128,-1,1
410.5 131.5 m 128,-1,14
 470 193 470 193 470 348 c 0,15,16
 470 460 470 460 439.5 519.5 c 128,-1,17
 409 579 409 579 364 598.5 c 128,-1,18
 319 618 319 618 261 618 c 2,19,-1
 180 618 l 1,20,-1
 180 386 l 1,21,-1
 338 386 l 1,22,-1
 338 320 l 1,23,-1
 180 320 l 1,24,-1
 180 70 l 1,25,-1
 262 70 l 2,26,13
 351 70 351 70 410.5 131.5 c 128,-1,14
EndSplineSet
EndChar

StartChar: E
Encoding: 69 69 27
Width: 600
GlyphClass: 2
Flags: W
AnchorPoint: "Anchor-7" 321 689 basechar 0
AnchorPoint: "Anchor-6" 326 0 basechar 0
LayerCount: 2
Fore
SplineSet
212 617 m 1,0,-1
 212 385 l 1,1,-1
 468 385 l 1,2,-1
 468 314 l 1,3,-1
 212 314 l 1,4,-1
 212 70 l 1,5,-1
 526 70 l 1,6,-1
 526 0 l 1,7,-1
 126 0 l 1,8,-1
 126 689 l 1,9,-1
 517 689 l 1,10,-1
 507 617 l 1,11,-1
 212 617 l 1,0,-1
EndSplineSet
EndChar

StartChar: Eogonek
Encoding: 280 280 36
Width: 600
GlyphClass: 2
Flags: W
AnchorPoint: "Anchor-7" 321 689 basechar 0
AnchorPoint: "Anchor-6" 326 0 basechar 0
LayerCount: 2
Fore
SplineSet
526 70 m 1,0,-1
 526 0 l 1,1,-1
 468 0 l 1,2,3
 396 -31 396 -31 370 -58 c 128,-1,4
 344 -85 344 -85 344 -114 c 0,5,6
 344 -138 344 -138 357 -150 c 128,-1,7
 370 -162 370 -162 400 -162 c 0,8,9
 427 -162 427 -162 461 -155 c 1,10,-1
 453 -223 l 1,11,12
 411 -229 411 -229 389 -229 c 0,13,14
 333 -229 333 -229 300 -201.5 c 128,-1,15
 267 -174 267 -174 267 -131 c 0,16,17
 267 -51 267 -51 372 0 c 1,18,-1
 126 0 l 1,19,-1
 126 689 l 1,20,-1
 517 689 l 1,21,-1
 507 617 l 1,22,-1
 212 617 l 1,23,-1
 212 385 l 1,24,-1
 468 385 l 1,25,-1
 468 314 l 1,26,-1
 212 314 l 1,27,-1
 212 70 l 1,28,-1
 526 70 l 1,0,-1
EndSplineSet
EndChar

StartChar: F
Encoding: 70 70 37
Width: 600
GlyphClass: 2
Flags: W
AnchorPoint: "Anchor-7" 300 689 basechar 0
AnchorPoint: "Anchor-6" 300 0 basechar 0
LayerCount: 2
Fore
SplineSet
225 617 m 1,0,-1
 225 376 l 1,1,-1
 495 376 l 1,2,-1
 495 306 l 1,3,-1
 225 306 l 1,4,-1
 225 0 l 1,5,-1
 138 0 l 1,6,-1
 138 689 l 1,7,-1
 544 689 l 1,8,-1
 534 617 l 1,9,-1
 225 617 l 1,0,-1
EndSplineSet
EndChar

StartChar: G
Encoding: 71 71 38
Width: 600
GlyphClass: 2
Flags: W
AnchorPoint: "Anchor-7" 330 689 basechar 0
AnchorPoint: "Anchor-6" 330 0 basechar 0
LayerCount: 2
Fore
SplineSet
116.5 79.5 m 128,-1,1
 45 170 45 170 45 345 c 0,2,3
 45 459 45 459 85 539 c 128,-1,4
 125 619 125 619 191 659.5 c 128,-1,5
 257 700 257 700 334 700 c 0,6,7
 399 700 399 700 443 682 c 128,-1,8
 487 664 487 664 530 624 c 1,9,-1
 478 570 l 1,10,11
 446 599 446 599 411.5 613 c 128,-1,12
 377 627 377 627 334 627 c 0,13,14
 250 627 250 627 194 560 c 128,-1,15
 138 493 138 493 138 345 c 0,16,17
 138 198 138 198 183.5 130 c 128,-1,18
 229 62 229 62 321 62 c 0,19,20
 394 62 394 62 452 95 c 1,21,-1
 452 304 l 1,22,-1
 317 304 l 1,23,-1
 307 377 l 1,24,-1
 539 377 l 1,25,-1
 539 49 l 1,26,27
 487 20 487 20 434.5 4.5 c 128,-1,28
 382 -11 382 -11 314 -11 c 0,29,0
 188 -11 188 -11 116.5 79.5 c 128,-1,1
EndSplineSet
EndChar

StartChar: H
Encoding: 72 72 43
Width: 600
GlyphClass: 2
Flags: W
AnchorPoint: "Anchor-7" 300 689 basechar 0
AnchorPoint: "Anchor-6" 300 0 basechar 0
LayerCount: 2
Fore
SplineSet
430 0 m 1,0,-1
 430 327 l 1,1,-1
 170 327 l 1,2,-1
 170 0 l 1,3,-1
 83 0 l 1,4,-1
 83 689 l 1,5,-1
 170 689 l 1,6,-1
 170 398 l 1,7,-1
 430 398 l 1,8,-1
 430 689 l 1,9,-1
 517 689 l 1,10,-1
 517 0 l 1,11,-1
 430 0 l 1,0,-1
EndSplineSet
EndChar

StartChar: Hbar
Encoding: 294 294 44
Width: 600
Flags: W
LayerCount: 2
Fore
SplineSet
598 575 m 1,0,-1
 598 509 l 1,1,-1
 517 509 l 1,2,-1
 517 0 l 1,3,-1
 431 0 l 1,4,-1
 431 326 l 1,5,-1
 169 326 l 1,6,-1
 169 0 l 1,7,-1
 83 0 l 1,8,-1
 83 509 l 1,9,-1
 2 509 l 1,10,-1
 2 575 l 1,11,-1
 83 575 l 1,12,-1
 83 689 l 1,13,-1
 169 689 l 1,14,-1
 169 575 l 1,15,-1
 431 575 l 1,16,-1
 431 689 l 1,17,-1
 517 689 l 1,18,-1
 517 575 l 1,19,-1
 598 575 l 1,0,-1
431 398 m 1,20,-1
 431 509 l 1,21,-1
 169 509 l 1,22,-1
 169 398 l 1,23,-1
 431 398 l 1,20,-1
EndSplineSet
EndChar

StartChar: I
Encoding: 73 73 46
Width: 600
GlyphClass: 2
Flags: W
AnchorPoint: "Anchor-7" 300 689 basechar 0
AnchorPoint: "Anchor-6" 300 0 basechar 0
LayerCount: 2
Fore
SplineSet
497 689 m 1,0,-1
 497 619 l 1,1,-1
 344 619 l 1,2,-1
 344 69 l 1,3,-1
 497 69 l 1,4,-1
 497 0 l 1,5,-1
 103 0 l 1,6,-1
 103 69 l 1,7,-1
 256 69 l 1,8,-1
 256 619 l 1,9,-1
 103 619 l 1,10,-1
 103 689 l 1,11,-1
 497 689 l 1,0,-1
EndSplineSet
EndChar

StartChar: IJ
Encoding: 306 306 47
Width: 600
Flags: W
LayerCount: 2
Fore
SplineSet
348 -27.5 m 128,-1,1
 403 6 403 6 424 59.5 c 128,-1,2
 445 113 445 113 445 193 c 2,3,-1
 445 617 l 1,4,-1
 201 617 l 1,5,-1
 201 72 l 1,6,-1
 281 72 l 1,7,-1
 281 0 l 1,8,-1
 11 0 l 1,9,-1
 11 72 l 1,10,-1
 111 72 l 1,11,-1
 111 617 l 1,12,-1
 11 617 l 1,13,-1
 11 689 l 1,14,-1
 532 689 l 1,15,-1
 532 188 l 2,16,17
 532 53 532 53 460 -33 c 128,-1,18
 388 -119 388 -119 204 -136 c 1,19,-1
 194 -71 l 1,20,0
 293 -61 293 -61 348 -27.5 c 128,-1,1
EndSplineSet
EndChar

StartChar: Iogonek
Encoding: 302 302 55
Width: 600
GlyphClass: 2
Flags: W
AnchorPoint: "Anchor-7" 300 689 basechar 0
AnchorPoint: "Anchor-6" 300 0 basechar 0
LayerCount: 2
Fore
SplineSet
344 619 m 1,0,-1
 344 69 l 1,1,-1
 497 69 l 1,2,-1
 497 0 l 1,3,-1
 344 0 l 1,4,5
 272 -31 272 -31 246 -58 c 128,-1,6
 220 -85 220 -85 220 -114 c 0,7,8
 220 -138 220 -138 233 -150 c 128,-1,9
 246 -162 246 -162 276 -162 c 0,10,11
 303 -162 303 -162 337 -155 c 1,12,-1
 329 -223 l 1,13,14
 287 -229 287 -229 265 -229 c 0,15,16
 209 -229 209 -229 176 -201.5 c 128,-1,17
 143 -174 143 -174 143 -131 c 0,18,19
 143 -51 143 -51 248 0 c 1,20,-1
 103 0 l 1,21,-1
 103 69 l 1,22,-1
 256 69 l 1,23,-1
 256 619 l 1,24,-1
 103 619 l 1,25,-1
 103 689 l 1,26,-1
 497 689 l 1,27,-1
 497 619 l 1,28,-1
 344 619 l 1,0,-1
EndSplineSet
EndChar

StartChar: J
Encoding: 74 74 57
Width: 600
GlyphClass: 2
Flags: W
AnchorPoint: "Anchor-7" 350 689 basechar 0
AnchorPoint: "Anchor-6" 300 0 basechar 0
LayerCount: 2
Fore
SplineSet
497 229 m 2,0,1
 497 128 497 128 441.5 58 c 128,-1,2
 386 -12 386 -12 261 -12 c 0,3,4
 210 -12 210 -12 161.5 4 c 128,-1,5
 113 20 113 20 73 51 c 1,6,-1
 111 108 l 1,7,8
 186 61 186 61 260 61 c 0,9,10
 332 61 332 61 371 106.5 c 128,-1,11
 410 152 410 152 410 233 c 2,12,-1
 410 618 l 1,13,-1
 206 618 l 1,14,-1
 206 689 l 1,15,-1
 497 689 l 1,16,-1
 497 229 l 2,0,1
EndSplineSet
EndChar

StartChar: K
Encoding: 75 75 59
Width: 600
GlyphClass: 2
Flags: W
AnchorPoint: "Anchor-7" 327 689 basechar 0
AnchorPoint: "Anchor-6" 322 0 basechar 0
LayerCount: 2
Fore
SplineSet
192 0 m 1,0,-1
 105 0 l 1,1,-1
 105 689 l 1,2,-1
 192 689 l 1,3,-1
 192 0 l 1,0,-1
197 368 m 1,4,-1
 467 689 l 1,5,-1
 568 689 l 1,6,-1
 299 373 l 1,7,-1
 587 0 l 1,8,-1
 478 0 l 1,9,-1
 197 368 l 1,4,-1
EndSplineSet
EndChar

StartChar: L
Encoding: 76 76 61
Width: 600
GlyphClass: 2
Flags: W
AnchorPoint: "Anchor-7" 179 689 basechar 0
AnchorPoint: "Anchor-6" 332 0 basechar 0
LayerCount: 2
Fore
SplineSet
136 0 m 1,0,-1
 136 689 l 1,1,-1
 222 689 l 1,2,-1
 222 77 l 1,3,-1
 537 77 l 1,4,-1
 526 0 l 1,5,-1
 136 0 l 1,0,-1
EndSplineSet
EndChar

StartChar: Lslash
Encoding: 321 321 66
Width: 600
GlyphClass: 2
Flags: W
AnchorPoint: "Anchor-7" 177 689 basechar 0
AnchorPoint: "Anchor-6" 330 0 basechar 0
LayerCount: 2
Fore
SplineSet
220 77 m 1,0,-1
 535 77 l 1,1,-1
 524 0 l 1,2,-1
 134 0 l 1,3,-1
 134 267 l 1,4,-1
 77 232 l 1,5,-1
 40 289 l 1,6,-1
 134 346 l 1,7,-1
 134 689 l 1,8,-1
 220 689 l 1,9,-1
 220 399 l 1,10,-1
 385 502 l 1,11,-1
 422 446 l 1,12,-1
 220 321 l 1,13,-1
 220 77 l 1,0,-1
EndSplineSet
EndChar

StartChar: M
Encoding: 77 77 67
Width: 600
GlyphClass: 2
Flags: W
AnchorPoint: "Anchor-7" 300 689 basechar 0
AnchorPoint: "Anchor-6" 300 0 basechar 0
LayerCount: 2
Fore
SplineSet
570 0 m 1,0,-1
 486 0 l 1,1,-1
 465 360 l 2,2,3
 459 455 459 455 459 609 c 1,4,-1
 343 124 l 1,5,-1
 256 124 l 1,6,-1
 132 609 l 1,7,8
 134 573 134 573 134 513 c 0,9,10
 134 421 134 421 130 360 c 2,11,-1
 112 0 l 1,12,-1
 30 0 l 1,13,-1
 69 689 l 1,14,-1
 190 689 l 1,15,-1
 302 217 l 1,16,-1
 409 689 l 1,17,-1
 531 689 l 1,18,-1
 570 0 l 1,0,-1
EndSplineSet
EndChar

StartChar: N
Encoding: 78 78 68
Width: 600
GlyphClass: 2
Flags: W
AnchorPoint: "Anchor-7" 299 689 basechar 0
AnchorPoint: "Anchor-6" 300 0 basechar 0
LayerCount: 2
Fore
SplineSet
152 605 m 2,0,1
 152 598 152 598 158 518 c 128,-1,2
 164 438 164 438 164 345 c 2,3,-1
 164 0 l 1,4,-1
 83 0 l 1,5,-1
 83 689 l 1,6,-1
 201 689 l 1,7,-1
 448 81 l 1,8,-1
 446 117 l 2,9,10
 436 240 436 240 436 344 c 2,11,-1
 436 689 l 1,12,-1
 517 689 l 1,13,-1
 517 0 l 1,14,-1
 395 0 l 1,15,-1
 152 605 l 2,0,1
EndSplineSet
EndChar

StartChar: Eng
Encoding: 330 330 72
Width: 600
GlyphClass: 2
Flags: W
AnchorPoint: "Anchor-7" 299 689 basechar 0
AnchorPoint: "Anchor-6" 300 0 basechar 0
LayerCount: 2
Fore
SplineSet
517 689 m 1,0,-1
 517 -62 l 2,1,2
 517 -135 517 -135 478.5 -173.5 c 128,-1,3
 440 -212 440 -212 372 -212 c 0,4,5
 308 -212 308 -212 259 -175 c 1,6,-1
 293 -118 l 1,7,8
 312 -131 312 -131 328 -136.5 c 128,-1,9
 344 -142 344 -142 368 -142 c 0,10,11
 430 -142 430 -142 430 -67 c 2,12,-1
 430 0 l 1,13,-1
 395 0 l 1,14,-1
 152 605 l 2,15,16
 152 598 152 598 158 518 c 128,-1,17
 164 438 164 438 164 345 c 2,18,-1
 164 0 l 1,19,-1
 83 0 l 1,20,-1
 83 689 l 1,21,-1
 201 689 l 1,22,-1
 448 81 l 1,23,-1
 446 117 l 2,24,25
 436 240 436 240 436 344 c 2,26,-1
 436 689 l 1,27,-1
 517 689 l 1,0,-1
EndSplineSet
EndChar

StartChar: O
Encoding: 79 79 74
Width: 600
GlyphClass: 2
Flags: W
AnchorPoint: "Anchor-7" 300 689 basechar 0
AnchorPoint: "Anchor-6" 300 0 basechar 0
LayerCount: 2
Fore
SplineSet
487.5 86 m 128,-1,1
 422 -11 422 -11 300 -11 c 0,2,3
 177 -11 177 -11 112 84 c 128,-1,4
 47 179 47 179 47 343 c 0,5,6
 47 448 47 448 76 529 c 128,-1,7
 105 610 105 610 162 655 c 128,-1,8
 219 700 219 700 300 700 c 0,9,10
 422 700 422 700 487.5 603.5 c 128,-1,11
 553 507 553 507 553 344 c 0,12,0
 553 183 553 183 487.5 86 c 128,-1,1
424 556 m 128,-1,14
 385 627 385 627 300 627 c 256,15,16
 215 627 215 627 176 555.5 c 128,-1,17
 137 484 137 484 137 343 c 0,18,19
 137 203 137 203 176.5 132.5 c 128,-1,20
 216 62 216 62 300 62 c 0,21,22
 385 62 385 62 424 132.5 c 128,-1,23
 463 203 463 203 463 344 c 256,24,13
 463 485 463 485 424 556 c 128,-1,14
EndSplineSet
Substitution2: "Single Substitution lookup 159 subtable" ordmasculine
Substitution2: "'aalt' Access All Alternates lookup 0 subtable" ordmasculine
EndChar

StartChar: Oslash
Encoding: 216 216 82
Width: 600
GlyphClass: 2
Flags: W
AnchorPoint: "Anchor-7" 300 689 basechar 0
AnchorPoint: "Anchor-6" 300 0 basechar 0
LayerCount: 2
Fore
SplineSet
522.5 535.5 m 128,-1,1
 553 454 553 454 553 344 c 0,2,3
 553 183 553 183 487.5 86 c 128,-1,4
 422 -11 422 -11 300 -11 c 0,5,6
 272 -11 272 -11 237 -4 c 1,7,-1
 204 -110 l 1,8,-1
 129 -91 l 1,9,-1
 167 29 l 1,10,11
 108 71 108 71 77.5 152 c 128,-1,12
 47 233 47 233 47 343 c 0,13,14
 47 448 47 448 76 529 c 128,-1,15
 105 610 105 610 162 655 c 128,-1,16
 219 700 219 700 300 700 c 0,17,18
 333 700 333 700 365 692 c 1,19,-1
 397 803 l 1,20,-1
 472 783 l 1,21,-1
 434 659 l 1,22,0
 492 617 492 617 522.5 535.5 c 128,-1,1
152.5 188.5 m 128,-1,24
 167 129 167 129 198 98 c 1,25,-1
 348 621 l 1,26,27
 327 627 327 627 300 627 c 0,28,29
 215 627 215 627 176.5 555.5 c 128,-1,30
 138 484 138 484 138 343 c 0,31,23
 138 248 138 248 152.5 188.5 c 128,-1,24
423.5 132.5 m 128,-1,33
 462 203 462 203 462 344 c 0,34,35
 462 441 462 441 447.5 500.5 c 128,-1,36
 433 560 433 560 402 591 c 1,37,-1
 252 68 l 1,38,39
 273 62 273 62 300 62 c 0,40,32
 385 62 385 62 423.5 132.5 c 128,-1,33
EndSplineSet
EndChar

StartChar: OE
Encoding: 338 338 85
Width: 600
GlyphClass: 2
Flags: W
AnchorPoint: "Anchor-7" 300 689 basechar 0
AnchorPoint: "Anchor-6" 300 0 basechar 0
LayerCount: 2
Fore
SplineSet
283 689 m 1,1,-1
 608 689 l 1,2,-1
 598 618 l 1,3,-1
 354 618 l 1,4,5
 412 549 412 549 419 385 c 1,6,-1
 573 385 l 1,7,-1
 573 314 l 1,8,-1
 419 314 l 1,9,10
 415 145 415 145 350 71 c 1,11,-1
 617 71 l 1,12,-1
 617 0 l 1,13,-1
 280 0 l 1,14,15
 245 -11 245 -11 212 -11 c 0,16,17
 -1 -11 -1 -11 -1 343 c 0,18,19
 -1 517 -1 517 52.5 608.5 c 128,-1,20
 106 700 106 700 212 700 c 0,21,0
 245 700 245 700 283 689 c 1,1,-1
120.5 561 m 128,-1,23
 92 494 92 494 92 343 c 0,24,25
 92 193 92 193 121.5 126 c 128,-1,26
 151 59 151 59 211 59 c 0,27,28
 275 59 275 59 304 125.5 c 128,-1,29
 333 192 333 192 333 344 c 256,30,31
 333 496 333 496 304.5 562 c 128,-1,32
 276 628 276 628 211 628 c 0,33,22
 149 628 149 628 120.5 561 c 128,-1,23
EndSplineSet
EndChar

StartChar: P
Encoding: 80 80 86
Width: 600
GlyphClass: 2
Flags: W
AnchorPoint: "Anchor-7" 300 689 basechar 0
AnchorPoint: "Anchor-6" 300 0 basechar 0
LayerCount: 2
Fore
SplineSet
486 309 m 128,-1,1
 415 256 415 256 291 256 c 2,2,-1
 202 256 l 1,3,-1
 202 0 l 1,4,-1
 116 0 l 1,5,-1
 116 689 l 1,6,-1
 291 689 l 2,7,8
 418 689 418 689 487.5 636 c 128,-1,9
 557 583 557 583 557 477 c 0,10,0
 557 362 557 362 486 309 c 128,-1,1
420.5 585.5 m 128,-1,12
 377 620 377 620 302 620 c 2,13,-1
 202 620 l 1,14,-1
 202 325 l 1,15,-1
 299 325 l 2,16,17
 377 325 377 325 420.5 359 c 128,-1,18
 464 393 464 393 464 476 c 0,19,11
 464 551 464 551 420.5 585.5 c 128,-1,12
EndSplineSet
EndChar

StartChar: Thorn
Encoding: 222 222 87
Width: 600
GlyphClass: 2
Flags: W
AnchorPoint: "Anchor-7" 300 689 basechar 0
AnchorPoint: "Anchor-6" 300 0 basechar 0
LayerCount: 2
Fore
SplineSet
194 572 m 1,0,-1
 292 572 l 2,1,2
 419 572 419 572 487.5 518 c 128,-1,3
 556 464 556 464 556 355 c 0,4,5
 556 239 556 239 485 183.5 c 128,-1,6
 414 128 414 128 292 128 c 2,7,-1
 194 128 l 1,8,-1
 194 0 l 1,9,-1
 107 0 l 1,10,-1
 107 689 l 1,11,-1
 194 689 l 1,12,-1
 194 572 l 1,0,-1
194 503 m 1,13,-1
 194 198 l 1,14,-1
 303 198 l 2,15,16
 381 198 381 198 422.5 232.5 c 128,-1,17
 464 267 464 267 464 353 c 0,18,19
 464 430 464 430 421.5 466.5 c 128,-1,20
 379 503 379 503 303 503 c 2,21,-1
 194 503 l 1,13,-1
EndSplineSet
EndChar

StartChar: Q
Encoding: 81 81 88
Width: 600
GlyphClass: 2
Flags: W
AnchorPoint: "Anchor-7" 300 689 basechar 0
AnchorPoint: "Anchor-6" 300 0 basechar 0
LayerCount: 2
Fore
SplineSet
520.5 148.5 m 128,-1,1
 487 69 487 69 411 27 c 1,2,3
 485 12 485 12 526.5 -25 c 128,-1,4
 568 -62 568 -62 593 -137 c 1,5,-1
 501 -173 l 1,6,7
 467 -88 467 -88 421 -49 c 128,-1,8
 375 -10 375 -10 290 -10 c 0,9,10
 212 -10 212 -10 157 33.5 c 128,-1,11
 102 77 102 77 73.5 156.5 c 128,-1,12
 45 236 45 236 45 343 c 0,13,14
 45 448 45 448 74 529 c 128,-1,15
 103 610 103 610 160.5 655 c 128,-1,16
 218 700 218 700 300 700 c 0,17,18
 422 700 422 700 488 603.5 c 128,-1,19
 554 507 554 507 554 344 c 0,20,0
 554 228 554 228 520.5 148.5 c 128,-1,1
424 556 m 128,-1,22
 385 627 385 627 300 627 c 256,23,24
 215 627 215 627 175.5 555.5 c 128,-1,25
 136 484 136 484 136 343 c 0,26,27
 136 203 136 203 176 132.5 c 128,-1,28
 216 62 216 62 300 62 c 0,29,30
 385 62 385 62 424 132.5 c 128,-1,31
 463 203 463 203 463 344 c 256,32,21
 463 485 463 485 424 556 c 128,-1,22
EndSplineSet
EndChar

StartChar: R
Encoding: 82 82 89
Width: 600
GlyphClass: 2
Flags: W
AnchorPoint: "Anchor-7" 300 689 basechar 0
AnchorPoint: "Anchor-6" 299 0 basechar 0
LayerCount: 2
Fore
SplineSet
491 372.5 m 128,-1,1
 445 324 445 324 369 305 c 1,2,-1
 574 0 l 1,3,-1
 470 0 l 1,4,-1
 281 295 l 1,5,-1
 188 295 l 1,6,-1
 188 0 l 1,7,-1
 102 0 l 1,8,-1
 102 689 l 1,9,-1
 278 689 l 2,10,11
 406 689 406 689 471.5 640 c 128,-1,12
 537 591 537 591 537 495 c 0,13,0
 537 421 537 421 491 372.5 c 128,-1,1
407 590 m 128,-1,15
 369 619 369 619 288 619 c 2,16,-1
 188 619 l 1,17,-1
 188 363 l 1,18,-1
 289 363 l 2,19,20
 366 363 366 363 405.5 394.5 c 128,-1,21
 445 426 445 426 445 495 c 0,22,14
 445 561 445 561 407 590 c 128,-1,15
EndSplineSet
EndChar

StartChar: S
Encoding: 83 83 93
Width: 600
GlyphClass: 2
Flags: W
AnchorPoint: "Anchor-7" 306 689 basechar 0
AnchorPoint: "Anchor-6" 297 0 basechar 0
LayerCount: 2
Fore
SplineSet
507 85.5 m 128,-1,1
 477 40 477 40 420 14.5 c 128,-1,2
 363 -11 363 -11 285 -11 c 0,3,4
 210 -11 210 -11 148.5 11.5 c 128,-1,5
 87 34 87 34 43 76 c 1,6,-1
 95 135 l 1,7,8
 133 99 133 99 179.5 80 c 128,-1,9
 226 61 226 61 286 61 c 0,10,11
 354 61 354 61 400 94 c 128,-1,12
 446 127 446 127 446 189 c 0,13,14
 446 224 446 224 433 247 c 128,-1,15
 420 270 420 270 387.5 288 c 128,-1,16
 355 306 355 306 296 323 c 0,17,18
 184 356 184 356 129 400.5 c 128,-1,19
 74 445 74 445 74 522 c 0,20,21
 74 573 74 573 102 614 c 128,-1,22
 130 655 130 655 181 677.5 c 128,-1,23
 232 700 232 700 297 700 c 0,24,25
 365 700 365 700 418.5 680 c 128,-1,26
 472 660 472 660 517 621 c 1,27,-1
 465 565 l 1,28,29
 394 627 394 627 300 627 c 0,30,31
 240 627 240 627 201 601 c 128,-1,32
 162 575 162 575 162 525 c 0,33,34
 162 495 162 495 178 474 c 128,-1,35
 194 453 194 453 231 435 c 128,-1,36
 268 417 268 417 335 398 c 0,37,38
 432 370 432 370 484.5 325 c 128,-1,39
 537 280 537 280 537 191 c 0,40,0
 537 131 537 131 507 85.5 c 128,-1,1
EndSplineSet
EndChar

StartChar: Scedilla
Encoding: 350 350 96
Width: 600
GlyphClass: 2
Flags: W
AnchorPoint: "Anchor-7" 306 689 basechar 0
AnchorPoint: "Anchor-6" 297 0 basechar 0
LayerCount: 2
Fore
SplineSet
479 52.5 m 128,-1,1
 421 -2 421 -2 317 -10 c 1,2,-1
 317 -57 l 1,3,4
 363 -61 363 -61 386.5 -84.5 c 128,-1,5
 410 -108 410 -108 410 -140 c 0,6,7
 410 -187 410 -187 374.5 -212.5 c 128,-1,8
 339 -238 339 -238 288 -238 c 0,9,10
 258 -238 258 -238 230.5 -231.5 c 128,-1,11
 203 -225 203 -225 183 -214 c 1,12,-1
 210 -166 l 1,13,14
 240 -182 240 -182 277 -182 c 0,15,16
 337 -182 337 -182 337 -141 c 0,17,18
 337 -115 337 -115 316 -106 c 128,-1,19
 295 -97 295 -97 251 -97 c 1,20,-1
 257 -10 l 1,21,22
 125 -2 125 -2 43 76 c 1,23,-1
 95 135 l 1,24,25
 133 99 133 99 179.5 80 c 128,-1,26
 226 61 226 61 286 61 c 0,27,28
 354 61 354 61 400 94 c 128,-1,29
 446 127 446 127 446 189 c 0,30,31
 446 224 446 224 433 247 c 128,-1,32
 420 270 420 270 387.5 288 c 128,-1,33
 355 306 355 306 296 323 c 0,34,35
 184 356 184 356 129 400.5 c 128,-1,36
 74 445 74 445 74 522 c 0,37,38
 74 573 74 573 102 614 c 128,-1,39
 130 655 130 655 181 677.5 c 128,-1,40
 232 700 232 700 297 700 c 0,41,42
 365 700 365 700 418.5 680 c 128,-1,43
 472 660 472 660 517 621 c 1,44,-1
 465 565 l 1,45,46
 394 627 394 627 300 627 c 0,47,48
 240 627 240 627 201 601 c 128,-1,49
 162 575 162 575 162 525 c 0,50,51
 162 495 162 495 178 474 c 128,-1,52
 194 453 194 453 231 435 c 128,-1,53
 268 417 268 417 335 398 c 0,54,55
 432 370 432 370 484.5 325 c 128,-1,56
 537 280 537 280 537 191 c 0,57,0
 537 107 537 107 479 52.5 c 128,-1,1
EndSplineSet
Substitution2: "'locl' Localized Forms in Latin lookup 16 subtable" Scommaaccent
Substitution2: "'locl' Localized Forms in Latin lookup 15 subtable" Scommaaccent
Substitution2: "'aalt' Access All Alternates lookup 0 subtable" Scommaaccent
EndChar

StartChar: T
Encoding: 84 84 99
Width: 600
GlyphClass: 2
Flags: W
AnchorPoint: "Anchor-7" 299 689 basechar 0
AnchorPoint: "Anchor-6" 299 0 basechar 0
LayerCount: 2
Fore
SplineSet
342 614 m 1,0,-1
 342 0 l 1,1,-1
 255 0 l 1,2,-1
 255 614 l 1,3,-1
 40 614 l 1,4,-1
 40 689 l 1,5,-1
 559 689 l 1,6,-1
 550 614 l 1,7,-1
 342 614 l 1,0,-1
EndSplineSet
EndChar

StartChar: Tbar
Encoding: 358 358 100
Width: 600
GlyphClass: 2
Flags: W
AnchorPoint: "Anchor-7" 299 689 basechar 0
AnchorPoint: "Anchor-6" 299 0 basechar 0
LayerCount: 2
Fore
SplineSet
550 614 m 1,0,-1
 342 614 l 1,1,-1
 342 417 l 1,2,-1
 473 417 l 1,3,-1
 473 350 l 1,4,-1
 342 350 l 1,5,-1
 342 0 l 1,6,-1
 255 0 l 1,7,-1
 255 350 l 1,8,-1
 125 350 l 1,9,-1
 125 417 l 1,10,-1
 255 417 l 1,11,-1
 255 614 l 1,12,-1
 40 614 l 1,13,-1
 40 689 l 1,14,-1
 559 689 l 1,15,-1
 550 614 l 1,0,-1
EndSplineSet
EndChar

StartChar: uni0162
Encoding: 354 354 102
Width: 600
GlyphClass: 2
Flags: W
AnchorPoint: "Anchor-7" 299 689 basechar 0
AnchorPoint: "Anchor-6" 299 0 basechar 0
LayerCount: 2
Fore
SplineSet
328 0 m 1,0,-1
 328 -57 l 1,1,2
 374 -61 374 -61 397.5 -84.5 c 128,-1,3
 421 -108 421 -108 421 -140 c 0,4,5
 421 -187 421 -187 385.5 -212.5 c 128,-1,6
 350 -238 350 -238 299 -238 c 0,7,8
 269 -238 269 -238 241.5 -231.5 c 128,-1,9
 214 -225 214 -225 194 -214 c 1,10,-1
 221 -166 l 1,11,12
 251 -182 251 -182 288 -182 c 0,13,14
 348 -182 348 -182 348 -141 c 0,15,16
 348 -115 348 -115 327 -106 c 128,-1,17
 306 -97 306 -97 262 -97 c 1,18,-1
 269 0 l 1,19,-1
 255 0 l 1,20,-1
 255 614 l 1,21,-1
 40 614 l 1,22,-1
 40 689 l 1,23,-1
 559 689 l 1,24,-1
 550 614 l 1,25,-1
 342 614 l 1,26,-1
 342 0 l 1,27,-1
 328 0 l 1,0,-1
EndSplineSet
Substitution2: "'locl' Localized Forms in Latin lookup 16 subtable" uni021A
Substitution2: "'locl' Localized Forms in Latin lookup 15 subtable" uni021A
Substitution2: "'aalt' Access All Alternates lookup 0 subtable" uni021A
EndChar

StartChar: U
Encoding: 85 85 104
Width: 600
GlyphClass: 2
Flags: W
AnchorPoint: "Anchor-7" 300 689 basechar 0
AnchorPoint: "Anchor-6" 300 0 basechar 0
LayerCount: 2
Fore
SplineSet
528 223 m 2,0,1
 528 154 528 154 499.5 100.5 c 128,-1,2
 471 47 471 47 419.5 18 c 128,-1,3
 368 -11 368 -11 299 -11 c 0,4,5
 229 -11 229 -11 178 18.5 c 128,-1,6
 127 48 127 48 99.5 101 c 128,-1,7
 72 154 72 154 72 223 c 2,8,-1
 72 689 l 1,9,-1
 159 689 l 1,10,-1
 159 220 l 2,11,12
 159 142 159 142 195 103 c 128,-1,13
 231 64 231 64 299 64 c 256,14,15
 367 64 367 64 403.5 103 c 128,-1,16
 440 142 440 142 440 220 c 2,17,-1
 440 689 l 1,18,-1
 528 689 l 1,19,-1
 528 223 l 2,0,1
EndSplineSet
EndChar

StartChar: Uogonek
Encoding: 370 370 112
Width: 600
GlyphClass: 2
Flags: W
AnchorPoint: "Anchor-7" 300 689 basechar 0
AnchorPoint: "Anchor-6" 300 0 basechar 0
LayerCount: 2
Fore
SplineSet
528 689 m 1,0,-1
 528 223 l 2,1,2
 528 139 528 139 487.5 80 c 128,-1,3
 447 21 447 21 375 -1 c 1,4,5
 304 -32 304 -32 278 -58.5 c 128,-1,6
 252 -85 252 -85 252 -114 c 0,7,8
 252 -138 252 -138 265 -150 c 128,-1,9
 278 -162 278 -162 308 -162 c 0,10,11
 335 -162 335 -162 369 -155 c 1,12,-1
 361 -223 l 1,13,14
 319 -229 319 -229 297 -229 c 0,15,16
 241 -229 241 -229 208 -201.5 c 128,-1,17
 175 -174 175 -174 175 -131 c 0,18,19
 175 -57 175 -57 263 -9 c 1,20,21
 174 2 174 2 123 64.5 c 128,-1,22
 72 127 72 127 72 223 c 2,23,-1
 72 689 l 1,24,-1
 159 689 l 1,25,-1
 159 220 l 2,26,27
 159 142 159 142 195 103 c 128,-1,28
 231 64 231 64 299 64 c 256,29,30
 367 64 367 64 403.5 103 c 128,-1,31
 440 142 440 142 440 220 c 2,32,-1
 440 689 l 1,33,-1
 528 689 l 1,0,-1
EndSplineSet
EndChar

StartChar: V
Encoding: 86 86 115
Width: 600
GlyphClass: 2
Flags: W
AnchorPoint: "Anchor-7" 300 689 basechar 0
AnchorPoint: "Anchor-6" 300 0 basechar 0
LayerCount: 2
Fore
SplineSet
302 99 m 1,0,-1
 488 689 l 1,1,-1
 575 689 l 1,2,-1
 345 0 l 1,3,-1
 255 0 l 1,4,-1
 25 689 l 1,5,-1
 118 689 l 1,6,-1
 302 99 l 1,0,-1
EndSplineSet
EndChar

StartChar: W
Encoding: 87 87 116
Width: 600
GlyphClass: 2
Flags: W
AnchorPoint: "Anchor-7" 300 689 basechar 0
AnchorPoint: "Anchor-6" 300 0 basechar 0
LayerCount: 2
Fore
SplineSet
595 689 m 1,0,-1
 491 0 l 1,1,-1
 377 0 l 1,2,-1
 298 520 l 1,3,-1
 218 0 l 1,4,-1
 101 0 l 1,5,-1
 5 689 l 1,6,-1
 92 689 l 1,7,-1
 165 95 l 1,8,-1
 248 609 l 1,9,-1
 354 609 l 1,10,-1
 433 95 l 1,11,-1
 515 689 l 1,12,-1
 595 689 l 1,0,-1
EndSplineSet
EndChar

StartChar: X
Encoding: 88 88 121
Width: 600
GlyphClass: 2
Flags: W
AnchorPoint: "Anchor-7" 300 689 basechar 0
AnchorPoint: "Anchor-6" 300 0 basechar 0
LayerCount: 2
Fore
SplineSet
49 689 m 1,0,-1
 149 689 l 1,1,-1
 300 424 l 1,2,-1
 452 689 l 1,3,-1
 545 689 l 1,4,-1
 350 372 l 1,5,-1
 569 0 l 1,6,-1
 469 0 l 1,7,-1
 298 311 l 1,8,-1
 124 0 l 1,9,-1
 31 0 l 1,10,-1
 247 367 l 1,11,-1
 49 689 l 1,0,-1
EndSplineSet
EndChar

StartChar: Y
Encoding: 89 89 122
Width: 600
GlyphClass: 2
Flags: W
AnchorPoint: "Anchor-7" 303 689 basechar 0
AnchorPoint: "Anchor-6" 300 0 basechar 0
LayerCount: 2
Fore
SplineSet
344 266 m 1,0,-1
 344 0 l 1,1,-1
 256 0 l 1,2,-1
 256 265 l 1,3,-1
 23 689 l 1,4,-1
 119 689 l 1,5,-1
 302 343 l 1,6,-1
 487 689 l 1,7,-1
 577 689 l 1,8,-1
 344 266 l 1,0,-1
EndSplineSet
EndChar

StartChar: Z
Encoding: 90 90 127
Width: 600
GlyphClass: 2
Flags: W
AnchorPoint: "Anchor-7" 319 689 basechar 0
AnchorPoint: "Anchor-6" 300 0 basechar 0
LayerCount: 2
Fore
SplineSet
167 75 m 1,0,-1
 527 75 l 1,1,-1
 517 0 l 1,2,-1
 72 0 l 1,3,-1
 72 70 l 1,4,-1
 435 614 l 1,5,-1
 108 614 l 1,6,-1
 108 689 l 1,7,-1
 528 689 l 1,8,-1
 528 617 l 1,9,-1
 167 75 l 1,0,-1
EndSplineSet
EndChar

StartChar: a
Encoding: 97 97 136
Width: 600
GlyphClass: 2
Flags: W
AnchorPoint: "Anchor-7" 292 527 basechar 0
AnchorPoint: "Anchor-6" 300 0 basechar 0
LayerCount: 2
Fore
SplineSet
488 69.5 m 128,-1,1
 498 55 498 55 521 48 c 1,2,-1
 500 -12 l 1,3,4
 423 -2 423 -2 404 63 c 1,5,6
 376 27 376 27 333.5 8 c 128,-1,7
 291 -11 291 -11 239 -11 c 0,8,9
 160 -11 160 -11 114.5 33 c 128,-1,10
 69 77 69 77 69 151 c 0,11,12
 69 232 69 232 132.5 276 c 128,-1,13
 196 320 196 320 315 320 c 2,14,-1
 393 320 l 1,15,-1
 393 363 l 2,16,17
 393 419 393 419 361 443.5 c 128,-1,18
 329 468 329 468 268 468 c 0,19,20
 208 468 208 468 131 441 c 1,21,-1
 108 505 l 1,22,23
 201 538 201 538 281 538 c 0,24,25
 377 538 377 538 427.5 493 c 128,-1,26
 478 448 478 448 478 368 c 2,27,-1
 478 115 l 2,28,0
 478 84 478 84 488 69.5 c 128,-1,1
334.5 72 m 128,-1,30
 370 92 370 92 393 127 c 1,31,-1
 393 262 l 1,32,-1
 317 262 l 2,33,34
 233 262 233 262 196 234 c 128,-1,35
 159 206 159 206 159 152 c 0,36,37
 159 52 159 52 260 52 c 0,38,29
 299 52 299 52 334.5 72 c 128,-1,30
EndSplineSet
Substitution2: "Single Substitution lookup 159 subtable" ordfeminine
Substitution2: "'aalt' Access All Alternates lookup 0 subtable" ordfeminine
EndChar

StartChar: aogonek
Encoding: 261 261 143
Width: 600
GlyphClass: 2
Flags: W
AnchorPoint: "Anchor-7" 292 527 basechar 0
AnchorPoint: "Anchor-6" 300 0 basechar 0
LayerCount: 2
Fore
SplineSet
402 -70 m 128,-1,1
 376 -97 376 -97 376 -126 c 0,2,3
 376 -150 376 -150 389 -162 c 128,-1,4
 402 -174 402 -174 432 -174 c 0,5,6
 459 -174 459 -174 493 -167 c 1,7,-1
 485 -235 l 1,8,9
 443 -241 443 -241 421 -241 c 0,10,11
 365 -241 365 -241 332 -213.5 c 128,-1,12
 299 -186 299 -186 299 -143 c 0,13,14
 299 -96 299 -96 334.5 -59 c 128,-1,15
 370 -22 370 -22 446 6 c 1,16,17
 415 26 415 26 404 63 c 1,18,19
 376 27 376 27 333.5 8 c 128,-1,20
 291 -11 291 -11 239 -11 c 0,21,22
 160 -11 160 -11 114.5 33 c 128,-1,23
 69 77 69 77 69 151 c 0,24,25
 69 232 69 232 132.5 276 c 128,-1,26
 196 320 196 320 315 320 c 2,27,-1
 393 320 l 1,28,-1
 393 363 l 2,29,30
 393 419 393 419 361 443.5 c 128,-1,31
 329 468 329 468 268 468 c 0,32,33
 208 468 208 468 131 441 c 1,34,-1
 108 505 l 1,35,36
 201 538 201 538 281 538 c 0,37,38
 377 538 377 538 427.5 493 c 128,-1,39
 478 448 478 448 478 368 c 2,40,-1
 478 115 l 2,41,42
 478 84 478 84 488 69.5 c 128,-1,43
 498 55 498 55 521 48 c 1,44,-1
 500 -12 l 1,45,0
 428 -43 428 -43 402 -70 c 128,-1,1
393 262 m 1,46,-1
 317 262 l 2,47,48
 233 262 233 262 196 234 c 128,-1,49
 159 206 159 206 159 152 c 0,50,51
 159 52 159 52 260 52 c 0,52,53
 299 52 299 52 334.5 72 c 128,-1,54
 370 92 370 92 393 127 c 1,55,-1
 393 262 l 1,46,-1
EndSplineSet
EndChar

StartChar: ae
Encoding: 230 230 146
Width: 600
GlyphClass: 2
Flags: W
AnchorPoint: "Anchor-7" 309 527 basechar 0
AnchorPoint: "Anchor-6" 0 0 basechar 0
LayerCount: 2
Fore
SplineSet
564.5 470.5 m 128,-1,1
 607 403 607 403 607 279 c 0,2,3
 607 257 607 257 605 233 c 1,4,-1
 336 233 l 1,5,6
 343 142 343 142 369.5 100.5 c 128,-1,7
 396 59 396 59 449 59 c 0,8,9
 476 59 476 59 498.5 68.5 c 128,-1,10
 521 78 521 78 548 99 c 1,11,-1
 587 41 l 1,12,13
 554 15 554 15 521 2 c 128,-1,14
 488 -11 488 -11 447 -11 c 0,15,16
 396 -11 396 -11 360 11.5 c 128,-1,17
 324 34 324 34 299 78 c 1,18,19
 264 30 264 30 229.5 9.5 c 128,-1,20
 195 -11 195 -11 146 -11 c 0,21,22
 76 -11 76 -11 35 33 c 128,-1,23
 -6 77 -6 77 -6 151 c 0,24,25
 -6 234 -6 234 48.5 277 c 128,-1,26
 103 320 103 320 208 320 c 2,27,-1
 254 320 l 1,28,-1
 254 363 l 2,29,30
 254 468 254 468 163 468 c 0,31,32
 137 468 137 468 115 462 c 128,-1,33
 93 456 93 456 58 441 c 1,34,-1
 36 504 l 1,35,36
 107 538 107 538 171 538 c 0,37,38
 227 538 227 538 259.5 515.5 c 128,-1,39
 292 493 292 493 309 450 c 1,40,41
 323 491 323 491 355.5 514.5 c 128,-1,42
 388 538 388 538 435 538 c 0,43,0
 522 538 522 538 564.5 470.5 c 128,-1,1
364 430 m 128,-1,45
 342 392 342 392 336 299 c 1,46,-1
 525 299 l 1,47,48
 523 385 523 385 502 426.5 c 128,-1,49
 481 468 481 468 432 468 c 0,50,44
 386 468 386 468 364 430 c 128,-1,45
212 262 m 2,51,52
 143 262 143 262 114 234.5 c 128,-1,53
 85 207 85 207 85 156 c 0,54,55
 85 106 85 106 105 79.5 c 128,-1,56
 125 53 125 53 159 53 c 0,57,58
 190 53 190 53 214.5 76 c 128,-1,59
 239 99 239 99 268 150 c 1,60,61
 254 195 254 195 254 262 c 1,62,-1
 212 262 l 2,51,52
EndSplineSet
EndChar

StartChar: b
Encoding: 98 98 148
Width: 600
GlyphClass: 2
Flags: W
AnchorPoint: "Anchor-7" 300 739 basechar 0
AnchorPoint: "Anchor-6" 300 0 basechar 0
LayerCount: 2
Fore
SplineSet
335 538 m 0,1,2
 436 538 436 538 484 466 c 128,-1,3
 532 394 532 394 532 264 c 0,4,5
 532 140 532 140 477 64.5 c 128,-1,6
 422 -11 422 -11 323 -11 c 0,7,8
 232 -11 232 -11 180 55 c 1,9,-1
 174 0 l 1,10,-1
 100 0 l 1,11,-1
 100 739 l 1,12,-1
 184 749 l 1,13,-1
 184 458 l 1,14,0
 245 538 245 538 335 538 c 0,1,2
405.5 109 m 128,-1,16
 441 161 441 161 441 264 c 0,17,18
 441 366 441 366 409.5 418 c 128,-1,19
 378 470 378 470 316 470 c 0,20,21
 276 470 276 470 242.5 446 c 128,-1,22
 209 422 209 422 184 386 c 1,23,-1
 184 125 l 1,24,25
 205 93 205 93 236 75 c 128,-1,26
 267 57 267 57 304 57 c 0,27,15
 370 57 370 57 405.5 109 c 128,-1,16
EndSplineSet
EndChar

StartChar: c
Encoding: 99 99 149
Width: 600
GlyphClass: 2
Flags: W
AnchorPoint: "Anchor-7" 344 518 basechar 0
AnchorPoint: "Anchor-6" 339 0 basechar 0
LayerCount: 2
Fore
SplineSet
476 107 m 1,1,-1
 516 52 l 1,2,3
 483 23 483 23 434 6 c 128,-1,4
 385 -11 385 -11 339 -11 c 0,5,6
 222 -11 222 -11 156.5 62.5 c 128,-1,7
 91 136 91 136 91 261 c 0,8,9
 91 340 91 340 120.5 403 c 128,-1,10
 150 466 150 466 206 502 c 128,-1,11
 262 538 262 538 339 538 c 0,12,13
 441 538 441 538 515 476 c 1,14,-1
 474 421 l 1,15,16
 405 467 405 467 338 467 c 0,17,18
 267 467 267 467 224.5 414.5 c 128,-1,19
 182 362 182 362 182 261 c 256,20,21
 182 160 182 160 224.5 110.5 c 128,-1,22
 267 61 267 61 339 61 c 0,23,0
 408 61 408 61 476 107 c 1,1,-1
EndSplineSet
EndChar

StartChar: ccedilla
Encoding: 231 231 152
Width: 600
GlyphClass: 2
Flags: W
AnchorPoint: "Anchor-7" 344 518 basechar 0
AnchorPoint: "Anchor-6" 339 0 basechar 0
LayerCount: 2
Fore
SplineSet
428.5 -84.5 m 128,-1,1
 452 -108 452 -108 452 -140 c 0,2,3
 452 -187 452 -187 416.5 -212.5 c 128,-1,4
 381 -238 381 -238 330 -238 c 0,5,6
 300 -238 300 -238 272.5 -231.5 c 128,-1,7
 245 -225 245 -225 225 -214 c 1,8,-1
 252 -166 l 1,9,10
 282 -182 282 -182 319 -182 c 0,11,12
 379 -182 379 -182 379 -141 c 0,13,14
 379 -115 379 -115 358 -106 c 128,-1,15
 337 -97 337 -97 293 -97 c 1,16,-1
 299 -9 l 1,17,18
 200 4 200 4 145.5 75.5 c 128,-1,19
 91 147 91 147 91 261 c 0,20,21
 91 340 91 340 120.5 403 c 128,-1,22
 150 466 150 466 206 502 c 128,-1,23
 262 538 262 538 339 538 c 0,24,25
 441 538 441 538 515 476 c 1,26,-1
 474 421 l 1,27,28
 405 467 405 467 338 467 c 0,29,30
 267 467 267 467 224.5 414.5 c 128,-1,31
 182 362 182 362 182 261 c 256,32,33
 182 160 182 160 224.5 110.5 c 128,-1,34
 267 61 267 61 339 61 c 0,35,36
 408 61 408 61 476 107 c 1,37,-1
 516 52 l 1,38,39
 486 26 486 26 444 9.5 c 128,-1,40
 402 -7 402 -7 359 -10 c 1,41,-1
 359 -57 l 1,42,0
 405 -61 405 -61 428.5 -84.5 c 128,-1,1
EndSplineSet
EndChar

StartChar: d
Encoding: 100 100 155
Width: 600
GlyphClass: 2
Flags: W
AnchorPoint: "Anchor-7" 300 739 basechar 0
AnchorPoint: "Anchor-6" 300 0 basechar 0
LayerCount: 2
Fore
SplineSet
500 739 m 1,0,-1
 500 0 l 1,1,-1
 426 0 l 1,2,-1
 418 69 l 1,3,4
 389 29 389 29 351 9 c 128,-1,5
 313 -11 313 -11 269 -11 c 0,6,7
 169 -11 169 -11 118.5 62 c 128,-1,8
 68 135 68 135 68 263 c 0,9,10
 68 342 68 342 93 404.5 c 128,-1,11
 118 467 118 467 164.5 502.5 c 128,-1,12
 211 538 211 538 274 538 c 0,13,14
 361 538 361 538 416 475 c 1,15,-1
 416 749 l 1,16,-1
 500 739 l 1,0,-1
194.5 418 m 128,-1,18
 159 366 159 366 159 263 c 0,19,20
 159 161 159 161 191.5 108.5 c 128,-1,21
 224 56 224 56 286 56 c 0,22,23
 361 56 361 56 416 140 c 1,24,-1
 416 402 l 1,25,26
 394 435 394 435 363 452.5 c 128,-1,27
 332 470 332 470 296 470 c 0,28,17
 230 470 230 470 194.5 418 c 128,-1,18
EndSplineSet
EndChar

StartChar: eth
Encoding: 240 240 156
Width: 600
Flags: W
LayerCount: 2
Fore
SplineSet
250 647 m 1,0,1
 201 670 201 670 133 683 c 1,2,-1
 152 749 l 1,3,4
 244 730 244 730 301 700 c 1,5,-1
 371 773 l 1,6,-1
 422 729 l 1,7,-1
 360 665 l 1,8,9
 449 604 449 604 490.5 506 c 128,-1,10
 532 408 532 408 532 264 c 0,11,12
 532 180 532 180 502.5 118 c 128,-1,13
 473 56 473 56 419.5 22.5 c 128,-1,14
 366 -11 366 -11 295 -11 c 0,15,16
 231 -11 231 -11 179 18 c 128,-1,17
 127 47 127 47 97 102.5 c 128,-1,18
 67 158 67 158 67 235 c 0,19,20
 67 307 67 307 96 363 c 128,-1,21
 125 419 125 419 174 450 c 128,-1,22
 223 481 223 481 280 481 c 0,23,24
 377 481 377 481 437 412 c 1,25,26
 424 475 424 475 390.5 526 c 128,-1,27
 357 577 357 577 308 612 c 1,28,-1
 229 532 l 1,29,-1
 170 562 l 1,30,-1
 250 647 l 1,0,1
444 332 m 1,32,33
 419 372 419 372 379 393 c 128,-1,34
 339 414 339 414 290 414 c 0,35,36
 231 414 231 414 192 369.5 c 128,-1,37
 153 325 153 325 153 239 c 0,38,39
 153 152 153 152 191.5 104.5 c 128,-1,40
 230 57 230 57 294 57 c 0,41,42
 365 57 365 57 406.5 111.5 c 128,-1,43
 448 166 448 166 448 267 c 0,44,31
 448 292 448 292 444 332 c 1,32,33
EndSplineSet
EndChar

StartChar: dcroat
Encoding: 273 273 158
Width: 600
GlyphClass: 2
Flags: W
AnchorPoint: "Anchor-7" 302 739 basechar 0
AnchorPoint: "Anchor-6" 302 0 basechar 0
LayerCount: 2
Fore
SplineSet
581 597 m 1,0,-1
 502 597 l 1,1,-1
 502 0 l 1,2,-1
 428 0 l 1,3,-1
 420 69 l 1,4,5
 391 29 391 29 353 9 c 128,-1,6
 315 -11 315 -11 271 -11 c 0,7,8
 171 -11 171 -11 120.5 62 c 128,-1,9
 70 135 70 135 70 263 c 0,10,11
 70 342 70 342 95 404.5 c 128,-1,12
 120 467 120 467 166.5 502.5 c 128,-1,13
 213 538 213 538 276 538 c 0,14,15
 363 538 363 538 418 475 c 1,16,-1
 418 597 l 1,17,-1
 247 597 l 1,18,-1
 247 665 l 1,19,-1
 418 665 l 1,20,-1
 418 749 l 1,21,-1
 502 739 l 1,22,-1
 502 665 l 1,23,-1
 581 665 l 1,24,-1
 581 597 l 1,0,-1
418 402 m 1,25,26
 396 435 396 435 365 452.5 c 128,-1,27
 334 470 334 470 298 470 c 0,28,29
 232 470 232 470 196.5 418 c 128,-1,30
 161 366 161 366 161 263 c 0,31,32
 161 161 161 161 193.5 108.5 c 128,-1,33
 226 56 226 56 288 56 c 0,34,35
 363 56 363 56 418 140 c 1,36,-1
 418 402 l 1,25,26
EndSplineSet
EndChar

StartChar: e
Encoding: 101 101 159
Width: 600
GlyphClass: 2
Flags: W
AnchorPoint: "Anchor-7" 310 527 basechar 0
AnchorPoint: "Anchor-6" 300 0 basechar 0
LayerCount: 2
Fore
SplineSet
212.5 103 m 128,-1,1
 255 59 255 59 320 59 c 0,2,3
 359 59 359 59 391.5 70.5 c 128,-1,4
 424 82 424 82 461 106 c 1,5,-1
 500 50 l 1,6,7
 463 21 463 21 415.5 5 c 128,-1,8
 368 -11 368 -11 320 -11 c 0,9,10
 206 -11 206 -11 142.5 63.5 c 128,-1,11
 79 138 79 138 79 263 c 0,12,13
 79 342 79 342 107 404.5 c 128,-1,14
 135 467 135 467 187 502.5 c 128,-1,15
 239 538 239 538 308 538 c 0,16,17
 408 538 408 538 465.5 468.5 c 128,-1,18
 523 399 523 399 523 279 c 0,19,20
 523 256 523 256 521 234 c 1,21,-1
 167 234 l 1,22,0
 170 147 170 147 212.5 103 c 128,-1,1
210 425.5 m 128,-1,24
 172 382 172 382 167 298 c 1,25,-1
 441 298 l 1,26,27
 440 381 440 381 405 425 c 128,-1,28
 370 469 370 469 309 469 c 256,29,23
 248 469 248 469 210 425.5 c 128,-1,24
EndSplineSet
EndChar

StartChar: eogonek
Encoding: 281 281 168
Width: 600
GlyphClass: 2
Flags: W
AnchorPoint: "Anchor-7" 310 527 basechar 0
AnchorPoint: "Anchor-6" 300 0 basechar 0
LayerCount: 2
Fore
SplineSet
521 234 m 1,1,-1
 167 234 l 1,2,3
 170 147 170 147 212.5 103 c 128,-1,4
 255 59 255 59 320 59 c 0,5,6
 359 59 359 59 391.5 70.5 c 128,-1,7
 424 82 424 82 461 106 c 1,8,-1
 500 50 l 1,9,10
 454 15 454 15 399 0 c 1,11,12
 327 -31 327 -31 301 -58 c 128,-1,13
 275 -85 275 -85 275 -114 c 0,14,15
 275 -138 275 -138 288 -150 c 128,-1,16
 301 -162 301 -162 331 -162 c 0,17,18
 358 -162 358 -162 392 -155 c 1,19,-1
 384 -223 l 1,20,21
 342 -229 342 -229 320 -229 c 0,22,23
 264 -229 264 -229 231 -201.5 c 128,-1,24
 198 -174 198 -174 198 -131 c 0,25,26
 198 -93 198 -93 224 -62 c 128,-1,27
 250 -31 250 -31 301 -10 c 1,28,29
 196 -4 196 -4 137.5 69.5 c 128,-1,30
 79 143 79 143 79 263 c 0,31,32
 79 342 79 342 107 404.5 c 128,-1,33
 135 467 135 467 187 502.5 c 128,-1,34
 239 538 239 538 308 538 c 0,35,36
 408 538 408 538 465.5 468.5 c 128,-1,37
 523 399 523 399 523 279 c 0,38,0
 523 256 523 256 521 234 c 1,1,-1
441 298 m 1,39,40
 440 381 440 381 405 425 c 128,-1,41
 370 469 370 469 309 469 c 256,42,43
 248 469 248 469 210 425.5 c 128,-1,44
 172 382 172 382 167 298 c 1,45,-1
 441 298 l 1,39,40
EndSplineSet
EndChar

StartChar: f
Encoding: 102 102 169
Width: 600
GlyphClass: 2
Flags: W
AnchorPoint: "Anchor-7" 370 739 basechar 0
AnchorPoint: "Anchor-6" 261 0 basechar 0
LayerCount: 2
Fore
SplineSet
554 721 m 1,1,-1
 527 658 l 1,2,3
 477 680 477 680 414 680 c 0,4,5
 304 680 304 680 304 593 c 2,6,-1
 304 486 l 1,7,-1
 482 486 l 1,8,-1
 473 419 l 1,9,-1
 304 419 l 1,10,-1
 304 0 l 1,11,-1
 219 0 l 1,12,-1
 219 419 l 1,13,-1
 94 419 l 1,14,-1
 94 486 l 1,15,-1
 219 486 l 1,16,-1
 219 591 l 2,17,18
 219 662 219 662 273.5 705.5 c 128,-1,19
 328 749 328 749 411 749 c 0,20,0
 486 749 486 749 554 721 c 1,1,-1
EndSplineSet
EndChar

StartChar: g
Encoding: 103 103 170
Width: 600
GlyphClass: 2
Flags: W
AnchorPoint: "Anchor-7" 293 527 basechar 0
AnchorPoint: "Anchor-6" 0 0 basechar 0
LayerCount: 2
Fore
SplineSet
554 503 m 1,0,1
 524 493 524 493 489 490.5 c 128,-1,2
 454 488 454 488 400 488 c 1,3,4
 492 446 492 446 492 355 c 0,5,6
 492 275 492 275 439 225.5 c 128,-1,7
 386 176 386 176 294 176 c 0,8,9
 247 176 247 176 215 187 c 1,10,11
 203 178 203 178 195.5 164 c 128,-1,12
 188 150 188 150 188 136 c 0,13,14
 188 91 188 91 258 91 c 2,15,-1
 353 91 l 2,16,17
 405 91 405 91 447.5 72.5 c 128,-1,18
 490 54 490 54 514.5 21 c 128,-1,19
 539 -12 539 -12 539 -52 c 0,20,21
 539 -129 539 -129 473.5 -170.5 c 128,-1,22
 408 -212 408 -212 288 -212 c 0,23,24
 166 -212 166 -212 116 -174 c 128,-1,25
 66 -136 66 -136 66 -53 c 1,26,-1
 142 -53 l 1,27,28
 142 -86 142 -86 154.5 -105.5 c 128,-1,29
 167 -125 167 -125 198.5 -134.5 c 128,-1,30
 230 -144 230 -144 288 -144 c 0,31,32
 373 -144 373 -144 413.5 -122 c 128,-1,33
 454 -100 454 -100 454 -57 c 0,34,35
 454 -21 454 -21 421 -1.5 c 128,-1,36
 388 18 388 18 336 18 c 2,37,-1
 242 18 l 2,38,39
 177 18 177 18 143 46.5 c 128,-1,40
 109 75 109 75 109 118 c 0,41,42
 109 143 109 143 124 167.5 c 128,-1,43
 139 192 139 192 167 210 c 1,44,45
 122 233 122 233 100.5 268.5 c 128,-1,46
 79 304 79 304 79 355 c 0,47,48
 79 408 79 408 105.5 449.5 c 128,-1,49
 132 491 132 491 179.5 514.5 c 128,-1,50
 227 538 227 538 289 538 c 0,51,52
 379 538 379 538 426 548 c 128,-1,53
 473 558 473 558 529 582 c 1,54,-1
 554 503 l 1,0,1
196 443.5 m 128,-1,56
 165 411 165 411 165 355 c 256,57,58
 165 299 165 299 196.5 265.5 c 128,-1,59
 228 232 228 232 290 232 c 0,60,61
 346 232 346 232 375.5 264.5 c 128,-1,62
 405 297 405 297 405 356 c 0,63,64
 405 476 405 476 288 476 c 0,65,55
 227 476 227 476 196 443.5 c 128,-1,56
EndSplineSet
EndChar

StartChar: gcommaaccent
Encoding: 291 291 173
Width: 600
GlyphClass: 2
Flags: W
AnchorPoint: "Anchor-7" 293 527 basechar 0
AnchorPoint: "Anchor-6" 0 0 basechar 0
LayerCount: 2
Fore
SplineSet
251 613.5 m 128,-1,1
 235 629 235 629 235 651 c 0,2,3
 235 672 235 672 250 706 c 2,4,-1
 301 813 l 1,5,-1
 351 813 l 1,6,-1
 322 696 l 1,7,8
 344 679 344 679 344 651 c 0,9,10
 344 628 344 628 328.5 613 c 128,-1,11
 313 598 313 598 290 598 c 256,12,0
 267 598 267 598 251 613.5 c 128,-1,1
554 503 m 1,13,14
 524 493 524 493 489 490.5 c 128,-1,15
 454 488 454 488 400 488 c 1,16,17
 492 446 492 446 492 355 c 0,18,19
 492 275 492 275 439 225.5 c 128,-1,20
 386 176 386 176 294 176 c 0,21,22
 247 176 247 176 215 187 c 1,23,24
 203 178 203 178 195.5 164 c 128,-1,25
 188 150 188 150 188 136 c 0,26,27
 188 91 188 91 258 91 c 2,28,-1
 353 91 l 2,29,30
 405 91 405 91 447.5 72.5 c 128,-1,31
 490 54 490 54 514.5 21 c 128,-1,32
 539 -12 539 -12 539 -52 c 0,33,34
 539 -129 539 -129 473.5 -170.5 c 128,-1,35
 408 -212 408 -212 288 -212 c 0,36,37
 166 -212 166 -212 116 -174 c 128,-1,38
 66 -136 66 -136 66 -53 c 1,39,-1
 142 -53 l 1,40,41
 142 -86 142 -86 154.5 -105.5 c 128,-1,42
 167 -125 167 -125 198.5 -134.5 c 128,-1,43
 230 -144 230 -144 288 -144 c 0,44,45
 373 -144 373 -144 413.5 -122 c 128,-1,46
 454 -100 454 -100 454 -57 c 0,47,48
 454 -21 454 -21 421 -1.5 c 128,-1,49
 388 18 388 18 336 18 c 2,50,-1
 242 18 l 2,51,52
 177 18 177 18 143 46.5 c 128,-1,53
 109 75 109 75 109 118 c 0,54,55
 109 143 109 143 124 167.5 c 128,-1,56
 139 192 139 192 167 210 c 1,57,58
 122 233 122 233 100.5 268.5 c 128,-1,59
 79 304 79 304 79 355 c 0,60,61
 79 408 79 408 105.5 449.5 c 128,-1,62
 132 491 132 491 179.5 514.5 c 128,-1,63
 227 538 227 538 289 538 c 0,64,65
 379 538 379 538 426 548 c 128,-1,66
 473 558 473 558 529 582 c 1,67,-1
 554 503 l 1,13,14
196 443.5 m 128,-1,69
 165 411 165 411 165 355 c 256,70,71
 165 299 165 299 196.5 265.5 c 128,-1,72
 228 232 228 232 290 232 c 0,73,74
 346 232 346 232 375.5 264.5 c 128,-1,75
 405 297 405 297 405 356 c 0,76,77
 405 476 405 476 288 476 c 0,78,68
 227 476 227 476 196 443.5 c 128,-1,69
EndSplineSet
EndChar

StartChar: h
Encoding: 104 104 175
Width: 600
GlyphClass: 2
Flags: W
AnchorPoint: "Anchor-7" 300 739 basechar 0
AnchorPoint: "Anchor-6" 300 0 basechar 0
LayerCount: 2
Fore
SplineSet
184 454 m 1,0,1
 215 494 215 494 260 516 c 128,-1,2
 305 538 305 538 353 538 c 0,3,4
 501 538 501 538 501 382 c 2,5,-1
 501 0 l 1,6,-1
 417 0 l 1,7,-1
 417 381 l 2,8,9
 417 428 417 428 395 449.5 c 128,-1,10
 373 471 373 471 325 471 c 0,11,12
 284 471 284 471 246 445 c 128,-1,13
 208 419 208 419 184 384 c 1,14,-1
 184 0 l 1,15,-1
 100 0 l 1,16,-1
 100 738 l 1,17,-1
 184 747 l 1,18,-1
 184 454 l 1,0,1
EndSplineSet
EndChar

StartChar: hbar
Encoding: 295 295 176
Width: 600
GlyphClass: 2
Flags: W
AnchorPoint: "Anchor-7" 300 739 basechar 0
AnchorPoint: "Anchor-6" 300 0 basechar 0
LayerCount: 2
Fore
SplineSet
501 382 m 2,1,-1
 501 0 l 1,2,-1
 417 0 l 1,3,-1
 417 381 l 2,4,5
 417 428 417 428 395 449.5 c 128,-1,6
 373 471 373 471 325 471 c 0,7,8
 284 471 284 471 246 445 c 128,-1,9
 208 419 208 419 184 384 c 1,10,-1
 184 0 l 1,11,-1
 100 0 l 1,12,-1
 100 597 l 1,13,-1
 19 597 l 1,14,-1
 19 665 l 1,15,-1
 100 665 l 1,16,-1
 100 738 l 1,17,-1
 184 747 l 1,18,-1
 184 665 l 1,19,-1
 353 665 l 1,20,-1
 353 597 l 1,21,-1
 184 597 l 1,22,-1
 184 454 l 1,23,24
 215 494 215 494 260 516 c 128,-1,25
 305 538 305 538 353 538 c 0,26,0
 501 538 501 538 501 382 c 2,1,-1
EndSplineSet
EndChar

StartChar: i
Encoding: 105 105 178
Width: 600
GlyphClass: 2
Flags: W
AnchorPoint: "Anchor-7" 0 0 basechar 0
AnchorPoint: "Anchor-6" 300 0 basechar 0
LayerCount: 2
Fore
SplineSet
345 756.5 m 128,-1,1
 362 740 362 740 362 714 c 256,2,3
 362 688 362 688 345 671.5 c 128,-1,4
 328 655 328 655 300 655 c 0,5,6
 273 655 273 655 256.5 671.5 c 128,-1,7
 240 688 240 688 240 714 c 256,8,9
 240 740 240 740 256.5 756.5 c 128,-1,10
 273 773 273 773 300 773 c 0,11,0
 328 773 328 773 345 756.5 c 128,-1,1
367 527 m 1,12,-1
 367 67 l 1,13,-1
 515 67 l 1,14,-1
 515 0 l 1,15,-1
 121 0 l 1,16,-1
 121 67 l 1,17,-1
 283 67 l 1,18,-1
 283 460 l 1,19,-1
 126 460 l 1,20,-1
 126 527 l 1,21,-1
 367 527 l 1,12,-1
EndSplineSet
Substitution2: "'locl' Localized Forms in Latin lookup 21 subtable" i.loclTRK
Substitution2: "'locl' Localized Forms in Latin lookup 19 subtable" i.loclTRK
Substitution2: "'locl' Localized Forms in Latin lookup 17 subtable" i.loclTRK
Substitution2: "'locl' Localized Forms in Latin lookup 14 subtable" i.loclTRK
Substitution2: "'locl' Localized Forms in Latin lookup 13 subtable" i.loclTRK
Substitution2: "'aalt' Access All Alternates lookup 0 subtable" i.loclTRK
EndChar

StartChar: dotlessi
Encoding: 305 305 179
Width: 600
GlyphClass: 2
Flags: W
AnchorPoint: "Anchor-7" 301 527 basechar 0
AnchorPoint: "Anchor-6" 0 0 basechar 0
LayerCount: 2
Fore
SplineSet
367 527 m 1,0,-1
 367 67 l 1,1,-1
 515 67 l 1,2,-1
 515 0 l 1,3,-1
 121 0 l 1,4,-1
 121 67 l 1,5,-1
 283 67 l 1,6,-1
 283 460 l 1,7,-1
 126 460 l 1,8,-1
 126 527 l 1,9,-1
 367 527 l 1,0,-1
EndSplineSet
EndChar

StartChar: ij
Encoding: 307 307 186
Width: 600
Flags: W
LayerCount: 2
Fore
SplineSet
228.5 756.5 m 128,-1,1
 246 740 246 740 246 714 c 256,2,3
 246 688 246 688 228.5 671.5 c 128,-1,4
 211 655 211 655 184 655 c 256,5,6
 157 655 157 655 140.5 671.5 c 128,-1,7
 124 688 124 688 124 714 c 256,8,9
 124 740 124 740 140.5 756.5 c 128,-1,10
 157 773 157 773 184 773 c 256,11,0
 211 773 211 773 228.5 756.5 c 128,-1,1
492.5 756.5 m 128,-1,13
 510 740 510 740 510 714 c 256,14,15
 510 688 510 688 492.5 671.5 c 128,-1,16
 475 655 475 655 448 655 c 256,17,18
 421 655 421 655 404.5 671.5 c 128,-1,19
 388 688 388 688 388 714 c 256,20,21
 388 740 388 740 404.5 756.5 c 128,-1,22
 421 773 421 773 448 773 c 256,23,12
 475 773 475 773 492.5 756.5 c 128,-1,13
500 55 m 2,24,25
 500 -46 500 -46 431.5 -109.5 c 128,-1,26
 363 -173 363 -173 245 -212 c 1,27,-1
 220 -146 l 1,28,29
 311 -111 311 -111 364.5 -68 c 128,-1,30
 418 -25 418 -25 418 50 c 2,31,-1
 418 462 l 1,32,-1
 223 462 l 1,33,-1
 223 67 l 1,34,-1
 319 67 l 1,35,-1
 319 0 l 1,36,-1
 48 0 l 1,37,-1
 48 67 l 1,38,-1
 142 67 l 1,39,-1
 142 462 l 1,40,-1
 53 462 l 1,41,-1
 53 527 l 1,42,-1
 500 527 l 1,43,-1
 500 55 l 2,24,25
EndSplineSet
EndChar

StartChar: iogonek
Encoding: 303 303 188
Width: 600
GlyphClass: 2
Flags: W
AnchorPoint: "Anchor-7" 301 527 basechar 0
AnchorPoint: "Anchor-6" 0 0 basechar 0
LayerCount: 2
Fore
SplineSet
256.5 671.5 m 128,-1,1
 240 688 240 688 240 714 c 256,2,3
 240 740 240 740 256.5 756.5 c 128,-1,4
 273 773 273 773 300 773 c 256,5,6
 327 773 327 773 344 756.5 c 128,-1,7
 361 740 361 740 361 714 c 256,8,9
 361 688 361 688 344 671.5 c 128,-1,10
 327 655 327 655 300 655 c 256,11,0
 273 655 273 655 256.5 671.5 c 128,-1,1
515 67 m 1,12,-1
 515 0 l 1,13,-1
 367 0 l 1,14,15
 295 -31 295 -31 269 -58 c 128,-1,16
 243 -85 243 -85 243 -114 c 0,17,18
 243 -138 243 -138 256 -150 c 128,-1,19
 269 -162 269 -162 299 -162 c 0,20,21
 326 -162 326 -162 360 -155 c 1,22,-1
 352 -223 l 1,23,24
 310 -229 310 -229 288 -229 c 0,25,26
 232 -229 232 -229 199 -201.5 c 128,-1,27
 166 -174 166 -174 166 -131 c 0,28,29
 166 -51 166 -51 271 0 c 1,30,-1
 121 0 l 1,31,-1
 121 67 l 1,32,-1
 283 67 l 1,33,-1
 283 460 l 1,34,-1
 126 460 l 1,35,-1
 126 527 l 1,36,-1
 367 527 l 1,37,-1
 367 67 l 1,38,-1
 515 67 l 1,12,-1
EndSplineSet
EndChar

StartChar: j
Encoding: 106 106 190
Width: 600
GlyphClass: 2
Flags: W
AnchorPoint: "Anchor-7" 368 527 basechar 0
AnchorPoint: "Anchor-6" 0 0 basechar 0
LayerCount: 2
Fore
SplineSet
411 756.5 m 128,-1,1
 428 740 428 740 428 714 c 256,2,3
 428 688 428 688 411 671.5 c 128,-1,4
 394 655 394 655 367 655 c 256,5,6
 340 655 340 655 323 671.5 c 128,-1,7
 306 688 306 688 306 714 c 256,8,9
 306 740 306 740 323 756.5 c 128,-1,10
 340 773 340 773 367 773 c 256,11,0
 394 773 394 773 411 756.5 c 128,-1,1
445 84 m 2,12,13
 445 -43 445 -43 360.5 -113.5 c 128,-1,14
 276 -184 276 -184 110 -212 c 1,15,-1
 96 -147 l 1,16,17
 223 -126 223 -126 292 -73.5 c 128,-1,18
 361 -21 361 -21 361 79 c 2,19,-1
 361 460 l 1,20,-1
 142 460 l 1,21,-1
 142 527 l 1,22,-1
 445 527 l 1,23,-1
 445 84 l 2,12,13
EndSplineSet
EndChar

StartChar: uni0237
Encoding: 567 567 191
Width: 600
GlyphClass: 2
Flags: W
AnchorPoint: "Anchor-7" 368 527 basechar 0
AnchorPoint: "Anchor-6" 0 0 basechar 0
LayerCount: 2
Fore
SplineSet
445 84 m 2,0,1
 445 -43 445 -43 360.5 -113.5 c 128,-1,2
 276 -184 276 -184 110 -212 c 1,3,-1
 96 -147 l 1,4,5
 223 -126 223 -126 292 -73.5 c 128,-1,6
 361 -21 361 -21 361 79 c 2,7,-1
 361 460 l 1,8,-1
 142 460 l 1,9,-1
 142 527 l 1,10,-1
 445 527 l 1,11,-1
 445 84 l 2,0,1
EndSplineSet
EndChar

StartChar: k
Encoding: 107 107 193
Width: 600
GlyphClass: 2
Flags: W
AnchorPoint: "Anchor-7" 300 739 basechar 0
AnchorPoint: "Anchor-6" 306 0 basechar 0
LayerCount: 2
Fore
SplineSet
190 749 m 1,0,-1
 190 0 l 1,1,-1
 106 0 l 1,2,-1
 106 739 l 1,3,-1
 190 749 l 1,0,-1
541 527 m 1,4,-1
 305 289 l 1,5,-1
 569 0 l 1,6,-1
 458 0 l 1,7,-1
 199 288 l 1,8,-1
 433 527 l 1,9,-1
 541 527 l 1,4,-1
EndSplineSet
EndChar

StartChar: kgreenlandic
Encoding: 312 312 195
Width: 600
GlyphClass: 2
Flags: W
AnchorPoint: "Anchor-7" 300 527 basechar 0
AnchorPoint: "Anchor-6" 300 0 basechar 0
LayerCount: 2
Fore
SplineSet
184 527 m 1,0,-1
 184 0 l 1,1,-1
 100 0 l 1,2,-1
 100 527 l 1,3,-1
 184 527 l 1,0,-1
536 527 m 1,4,-1
 297 288 l 1,5,-1
 563 0 l 1,6,-1
 453 0 l 1,7,-1
 194 283 l 1,8,-1
 427 527 l 1,9,-1
 536 527 l 1,4,-1
EndSplineSet
EndChar

StartChar: l
Encoding: 108 108 196
Width: 600
GlyphClass: 2
Flags: W
AnchorPoint: "Anchor-7" 265 739 basechar 0
AnchorPoint: "Anchor-6" 361 0 basechar 0
LayerCount: 2
Fore
SplineSet
306 130 m 2,0,1
 306 59 306 59 393 59 c 0,2,3
 434 59 434 59 481 77 c 1,4,-1
 503 16 l 1,5,6
 453 -11 453 -11 378 -11 c 0,7,8
 307 -11 307 -11 264.5 28 c 128,-1,9
 222 67 222 67 222 134 c 2,10,-1
 222 672 l 1,11,-1
 60 672 l 1,12,-1
 60 739 l 1,13,-1
 306 739 l 1,14,-1
 306 130 l 2,0,1
EndSplineSet
EndChar

StartChar: lslash
Encoding: 322 322 201
Width: 600
GlyphClass: 2
Flags: W
AnchorPoint: "Anchor-7" 265 739 basechar 0
AnchorPoint: "Anchor-6" 361 0 basechar 0
LayerCount: 2
Fore
SplineSet
503 16 m 1,0,1
 453 -11 453 -11 378 -11 c 0,2,3
 307 -11 307 -11 264.5 28 c 128,-1,4
 222 67 222 67 222 134 c 2,5,-1
 222 306 l 1,6,-1
 154 265 l 1,7,-1
 118 319 l 1,8,-1
 222 381 l 1,9,-1
 222 672 l 1,10,-1
 60 672 l 1,11,-1
 60 739 l 1,12,-1
 306 739 l 1,13,-1
 306 433 l 1,14,-1
 395 489 l 1,15,-1
 431 435 l 1,16,-1
 306 357 l 1,17,-1
 306 130 l 2,18,19
 306 59 306 59 393 59 c 0,20,21
 434 59 434 59 481 77 c 1,22,-1
 503 16 l 1,0,1
EndSplineSet
EndChar

StartChar: m
Encoding: 109 109 202
Width: 600
GlyphClass: 2
Flags: W
AnchorPoint: "Anchor-7" 300 527 basechar 0
AnchorPoint: "Anchor-6" 300 0 basechar 0
LayerCount: 2
Fore
SplineSet
520.5 506.5 m 128,-1,1
 549 475 549 475 549 392 c 2,2,-1
 549 0 l 1,3,-1
 472 0 l 1,4,-1
 472 378 l 2,5,6
 472 433 472 433 465 452.5 c 128,-1,7
 458 472 458 472 431 472 c 0,8,9
 380 472 380 472 339 409 c 1,10,-1
 339 0 l 1,11,-1
 261 0 l 1,12,-1
 261 378 l 2,13,14
 261 433 261 433 254 452.5 c 128,-1,15
 247 472 247 472 220 472 c 0,16,17
 169 472 169 472 128 409 c 1,18,-1
 128 0 l 1,19,-1
 51 0 l 1,20,-1
 51 527 l 1,21,-1
 116 527 l 1,22,-1
 122 465 l 1,23,24
 146 500 146 500 172.5 519 c 128,-1,25
 199 538 199 538 236 538 c 0,26,27
 310 538 310 538 331 468 c 1,28,29
 355 502 355 502 382 520 c 128,-1,30
 409 538 409 538 447 538 c 0,31,0
 492 538 492 538 520.5 506.5 c 128,-1,1
EndSplineSet
EndChar

StartChar: n
Encoding: 110 110 203
Width: 600
GlyphClass: 2
Flags: W
AnchorPoint: "Anchor-7" 300 527 basechar 0
AnchorPoint: "Anchor-6" 301 0 basechar 0
LayerCount: 2
Fore
SplineSet
100 527 m 1,0,-1
 172 527 l 1,1,-1
 179 453 l 1,2,3
 210 493 210 493 257.5 515.5 c 128,-1,4
 305 538 305 538 353 538 c 0,5,6
 501 538 501 538 501 382 c 2,7,-1
 501 0 l 1,8,-1
 417 0 l 1,9,-1
 417 320 l 2,10,11
 417 379 417 379 410.5 410 c 128,-1,12
 404 441 404 441 385 456 c 128,-1,13
 366 471 366 471 327 471 c 0,14,15
 284 471 284 471 246 445 c 128,-1,16
 208 419 208 419 184 383 c 1,17,-1
 184 0 l 1,18,-1
 100 0 l 1,19,-1
 100 527 l 1,0,-1
EndSplineSet
EndChar

StartChar: napostrophe
Encoding: 329 329 205
Width: 600
GlyphClass: 2
Flags: W
AnchorPoint: "Anchor-7" 309 527 basechar 0
AnchorPoint: "Anchor-6" 310 0 basechar 0
LayerCount: 2
Fore
SplineSet
102 736.5 m 128,-1,1
 118 721 118 721 118 698 c 0,2,3
 118 686 118 686 112.5 670 c 128,-1,4
 107 654 107 654 92 621 c 2,5,-1
 51 534 l 1,6,-1
 1 534 l 1,7,-1
 31 653 l 1,8,9
 8 673 8 673 8 698 c 0,10,11
 8 721 8 721 24 736.5 c 128,-1,12
 40 752 40 752 63 752 c 256,13,0
 86 752 86 752 102 736.5 c 128,-1,1
109 527 m 1,14,-1
 181 527 l 1,15,-1
 188 453 l 1,16,17
 219 493 219 493 266.5 515.5 c 128,-1,18
 314 538 314 538 362 538 c 0,19,20
 510 538 510 538 510 382 c 2,21,-1
 510 0 l 1,22,-1
 426 0 l 1,23,-1
 426 320 l 2,24,25
 426 379 426 379 419.5 410 c 128,-1,26
 413 441 413 441 394 456 c 128,-1,27
 375 471 375 471 336 471 c 0,28,29
 293 471 293 471 255 445 c 128,-1,30
 217 419 217 419 193 383 c 1,31,-1
 193 0 l 1,32,-1
 109 0 l 1,33,-1
 109 527 l 1,14,-1
EndSplineSet
Ligature2: "'locl' Localized Forms in Latin lookup 22 subtable" quoteright n
Ligature2: "'locl' Localized Forms in Latin lookup 22 subtable" quotesingle n
EndChar

StartChar: eng
Encoding: 331 331 208
Width: 600
Flags: W
LayerCount: 2
Fore
SplineSet
484.5 -88 m 128,-1,1
 468 -132 468 -132 435.5 -158.5 c 128,-1,2
 403 -185 403 -185 346 -211 c 1,3,-1
 315 -150 l 1,4,5
 354 -131 354 -131 375 -113.5 c 128,-1,6
 396 -96 396 -96 406.5 -64.5 c 128,-1,7
 417 -33 417 -33 417 23 c 2,8,-1
 417 320 l 2,9,10
 417 379 417 379 410.5 410 c 128,-1,11
 404 441 404 441 384.5 456 c 128,-1,12
 365 471 365 471 325 471 c 0,13,14
 284 471 284 471 246 445 c 128,-1,15
 208 419 208 419 184 384 c 1,16,-1
 184 0 l 1,17,-1
 100 0 l 1,18,-1
 100 527 l 1,19,-1
 172 527 l 1,20,-1
 179 453 l 1,21,22
 210 493 210 493 257.5 515.5 c 128,-1,23
 305 538 305 538 353 538 c 0,24,25
 501 538 501 538 501 382 c 2,26,-1
 501 29 l 2,27,0
 501 -44 501 -44 484.5 -88 c 128,-1,1
EndSplineSet
EndChar

StartChar: o
Encoding: 111 111 210
Width: 600
GlyphClass: 2
Flags: W
AnchorPoint: "Anchor-7" 300 527 basechar 0
AnchorPoint: "Anchor-6" 300 0 basechar 0
LayerCount: 2
Fore
SplineSet
468.5 464.5 m 128,-1,1
 527 391 527 391 527 264 c 0,2,3
 527 140 527 140 467.5 64.5 c 128,-1,4
 408 -11 408 -11 300 -11 c 0,5,6
 191 -11 191 -11 132 62.5 c 128,-1,7
 73 136 73 136 73 263 c 0,8,9
 73 388 73 388 132.5 463 c 128,-1,10
 192 538 192 538 301 538 c 256,11,0
 410 538 410 538 468.5 464.5 c 128,-1,1
198 418 m 128,-1,13
 164 367 164 367 164 263 c 256,14,15
 164 159 164 159 197.5 108.5 c 128,-1,16
 231 58 231 58 300 58 c 256,17,18
 369 58 369 58 402.5 108.5 c 128,-1,19
 436 159 436 159 436 264 c 0,20,21
 436 368 436 368 402.5 418.5 c 128,-1,22
 369 469 369 469 301 469 c 0,23,12
 232 469 232 469 198 418 c 128,-1,13
EndSplineSet
Substitution2: "Single Substitution lookup 159 subtable" ordmasculine
Substitution2: "'aalt' Access All Alternates lookup 0 subtable" ordmasculine
EndChar

StartChar: oslash
Encoding: 248 248 218
Width: 600
GlyphClass: 2
Flags: W
AnchorPoint: "Anchor-7" 300 527 basechar 0
AnchorPoint: "Anchor-6" 0 0 basechar 0
LayerCount: 2
Fore
SplineSet
498.5 413 m 128,-1,1
 527 350 527 350 527 264 c 0,2,3
 527 140 527 140 467.5 64.5 c 128,-1,4
 408 -11 408 -11 300 -11 c 0,5,6
 277 -11 277 -11 250 -6 c 1,7,-1
 213 -130 l 1,8,-1
 143 -110 l 1,9,-1
 185 19 l 1,10,11
 131 51 131 51 102 114 c 128,-1,12
 73 177 73 177 73 263 c 0,13,14
 73 388 73 388 132.5 463 c 128,-1,15
 192 538 192 538 301 538 c 0,16,17
 323 538 323 538 350 533 c 1,18,-1
 388 654 l 1,19,-1
 458 633 l 1,20,-1
 417 508 l 1,21,0
 470 476 470 476 498.5 413 c 128,-1,1
164 263 m 0,23,24
 164 131 164 131 216 85 c 1,25,-1
 334 466 l 1,26,27
 319 469 319 469 301 469 c 0,28,22
 164 469 164 469 164 263 c 0,23,24
436 264 m 0,30,31
 436 396 436 396 385 441 c 1,32,-1
 267 61 l 1,33,34
 282 58 282 58 300 58 c 0,35,29
 436 58 436 58 436 264 c 0,30,31
EndSplineSet
EndChar

StartChar: oe
Encoding: 339 339 221
Width: 600
Flags: W
LayerCount: 2
Fore
SplineSet
574.5 471 m 128,-1,1
 615 404 615 404 615 279 c 0,2,3
 615 257 615 257 613 233 c 1,4,-1
 350 233 l 1,5,6
 357 142 357 142 382.5 100.5 c 128,-1,7
 408 59 408 59 460 59 c 0,8,9
 486 59 486 59 507.5 68.5 c 128,-1,10
 529 78 529 78 556 99 c 1,11,-1
 595 41 l 1,12,13
 563 15 563 15 530.5 2 c 128,-1,14
 498 -11 498 -11 458 -11 c 0,15,16
 404 -11 404 -11 366.5 15 c 128,-1,17
 329 41 329 41 309 90 c 1,18,19
 289 41 289 41 255.5 15 c 128,-1,20
 222 -11 222 -11 167 -11 c 0,21,22
 82 -11 82 -11 40 61.5 c 128,-1,23
 -2 134 -2 134 -2 263 c 0,24,25
 -2 391 -2 391 39.5 464.5 c 128,-1,26
 81 538 81 538 167 538 c 0,27,28
 226 538 226 538 258.5 511.5 c 128,-1,29
 291 485 291 485 309 435 c 1,30,31
 351 538 351 538 449 538 c 0,32,0
 534 538 534 538 574.5 471 c 128,-1,1
108 420 m 128,-1,34
 87 370 87 370 87 263 c 0,35,36
 87 154 87 154 108 106 c 128,-1,37
 129 58 129 58 178 58 c 0,38,39
 211 58 211 58 230 78 c 128,-1,40
 249 98 249 98 257.5 142.5 c 128,-1,41
 266 187 266 187 266 264 c 0,42,43
 266 371 266 371 245.5 420.5 c 128,-1,44
 225 470 225 470 178 470 c 0,45,33
 129 470 129 470 108 420 c 128,-1,34
378.5 430 m 128,-1,47
 356 392 356 392 350 299 c 1,48,-1
 533 299 l 1,49,50
 531 386 531 386 512.5 427 c 128,-1,51
 494 468 494 468 447 468 c 0,52,46
 401 468 401 468 378.5 430 c 128,-1,47
EndSplineSet
EndChar

StartChar: p
Encoding: 112 112 222
Width: 600
GlyphClass: 2
Flags: W
AnchorPoint: "Anchor-7" 300 527 basechar 0
AnchorPoint: "Anchor-6" 300 0 basechar 0
LayerCount: 2
Fore
SplineSet
527 264 m 0,1,2
 527 139 527 139 475 64 c 128,-1,3
 423 -11 423 -11 324 -11 c 0,4,5
 238 -11 238 -11 184 49 c 1,6,-1
 184 -202 l 1,7,-1
 100 -212 l 1,8,-1
 100 527 l 1,9,-1
 172 527 l 1,10,-1
 179 453 l 1,11,12
 208 494 208 494 248.5 516 c 128,-1,13
 289 538 289 538 336 538 c 0,14,0
 527 538 527 538 527 264 c 0,1,2
242.5 446 m 128,-1,16
 209 422 209 422 184 386 c 1,17,-1
 184 125 l 1,18,19
 205 94 205 94 236.5 76.5 c 128,-1,20
 268 59 268 59 305 59 c 0,21,22
 371 59 371 59 403.5 109.5 c 128,-1,23
 436 160 436 160 436 264 c 256,24,25
 436 368 436 368 407 419 c 128,-1,26
 378 470 378 470 316 470 c 0,27,15
 276 470 276 470 242.5 446 c 128,-1,16
EndSplineSet
EndChar

StartChar: thorn
Encoding: 254 254 223
Width: 600
GlyphClass: 2
Flags: W
AnchorPoint: "Anchor-7" 300 739 basechar 0
AnchorPoint: "Anchor-6" 300 -200 basechar 0
LayerCount: 2
Fore
SplineSet
184 461 m 1,0,1
 213 498 213 498 252.5 518 c 128,-1,2
 292 538 292 538 336 538 c 0,3,4
 527 538 527 538 527 264 c 0,5,6
 527 139 527 139 475 64 c 128,-1,7
 423 -11 423 -11 324 -11 c 0,8,9
 238 -11 238 -11 184 49 c 1,10,-1
 184 -202 l 1,11,-1
 100 -212 l 1,12,-1
 100 739 l 1,13,-1
 184 749 l 1,14,-1
 184 461 l 1,0,1
242.5 446 m 128,-1,16
 209 422 209 422 184 386 c 1,17,-1
 184 125 l 1,18,19
 205 94 205 94 236.5 76.5 c 128,-1,20
 268 59 268 59 305 59 c 0,21,22
 371 59 371 59 403.5 109.5 c 128,-1,23
 436 160 436 160 436 264 c 256,24,25
 436 368 436 368 407 419 c 128,-1,26
 378 470 378 470 316 470 c 0,27,15
 276 470 276 470 242.5 446 c 128,-1,16
EndSplineSet
EndChar

StartChar: q
Encoding: 113 113 224
Width: 600
GlyphClass: 2
Flags: W
AnchorPoint: "Anchor-7" 300 527 basechar 0
AnchorPoint: "Anchor-6" 300 0 basechar 0
LayerCount: 2
Fore
SplineSet
421 469 m 1,1,-1
 428 527 l 1,2,-1
 500 527 l 1,3,-1
 500 -212 l 1,4,-1
 416 -202 l 1,5,-1
 416 66 l 1,6,7
 360 -11 360 -11 267 -11 c 0,8,9
 73 -11 73 -11 73 263 c 0,10,11
 73 385 73 385 126 461.5 c 128,-1,12
 179 538 179 538 274 538 c 0,13,0
 366 538 366 538 421 469 c 1,1,-1
164 263 m 0,15,16
 164 160 164 160 194 109.5 c 128,-1,17
 224 59 224 59 285 59 c 0,18,19
 326 59 326 59 359 81.5 c 128,-1,20
 392 104 392 104 416 140 c 1,21,-1
 416 402 l 1,22,23
 395 434 395 434 363.5 452 c 128,-1,24
 332 470 332 470 295 470 c 0,25,14
 164 470 164 470 164 263 c 0,15,16
EndSplineSet
EndChar

StartChar: r
Encoding: 114 114 225
Width: 600
GlyphClass: 2
Flags: W
AnchorPoint: "Anchor-7" 331 527 basechar 0
AnchorPoint: "Anchor-6" 230 0 basechar 0
LayerCount: 2
Fore
SplineSet
530 527 m 1,1,-1
 518 348 l 1,2,-1
 450 348 l 1,3,-1
 450 461 l 1,4,-1
 445 461 l 2,5,6
 323 461 323 461 272 287 c 1,7,-1
 272 65 l 1,8,-1
 379 65 l 1,9,-1
 379 0 l 1,10,-1
 105 0 l 1,11,-1
 105 65 l 1,12,-1
 188 65 l 1,13,-1
 188 462 l 1,14,-1
 105 462 l 1,15,-1
 105 527 l 1,16,-1
 251 527 l 1,17,-1
 267 402 l 1,18,19
 299 470 299 470 343.5 504 c 128,-1,20
 388 538 388 538 456 538 c 0,21,0
 488 538 488 538 530 527 c 1,1,-1
EndSplineSet
EndChar

StartChar: s
Encoding: 115 115 229
Width: 600
GlyphClass: 2
Flags: W
AnchorPoint: "Anchor-7" 307 527 basechar 0
AnchorPoint: "Anchor-6" 297 0 basechar 0
LayerCount: 2
Fore
SplineSet
375 81 m 128,-1,1
 410 104 410 104 410 142 c 0,2,3
 410 168 410 168 401 184.5 c 128,-1,4
 392 201 392 201 365 214.5 c 128,-1,5
 338 228 338 228 283 242 c 0,6,7
 191 265 191 265 147 297.5 c 128,-1,8
 103 330 103 330 103 394 c 0,9,10
 103 460 103 460 158 499 c 128,-1,11
 213 538 213 538 303 538 c 0,12,13
 413 538 413 538 495 480 c 1,14,-1
 457 422 l 1,15,16
 424 445 424 445 388 457.5 c 128,-1,17
 352 470 352 470 305 470 c 0,18,19
 191 470 191 470 191 401 c 0,20,21
 191 377 191 377 203.5 362 c 128,-1,22
 216 347 216 347 244.5 335.5 c 128,-1,23
 273 324 273 324 330 308 c 0,24,25
 416 285 416 285 458.5 249.5 c 128,-1,26
 501 214 501 214 501 146 c 0,27,28
 501 67 501 67 437 28 c 128,-1,29
 373 -11 373 -11 280 -11 c 0,30,31
 156 -11 156 -11 74 60 c 1,32,-1
 121 115 l 1,33,34
 153 89 153 89 194 73.5 c 128,-1,35
 235 58 235 58 280 58 c 0,36,0
 340 58 340 58 375 81 c 128,-1,1
EndSplineSet
EndChar

StartChar: scedilla
Encoding: 351 351 232
Width: 600
GlyphClass: 2
Flags: W
AnchorPoint: "Anchor-7" 307 527 basechar 0
AnchorPoint: "Anchor-6" 297 0 basechar 0
LayerCount: 2
Fore
SplineSet
449 37 m 128,-1,1
 397 -2 397 -2 317 -9 c 1,2,-1
 317 -57 l 1,3,4
 363 -61 363 -61 386.5 -84.5 c 128,-1,5
 410 -108 410 -108 410 -140 c 0,6,7
 410 -187 410 -187 374.5 -212.5 c 128,-1,8
 339 -238 339 -238 288 -238 c 0,9,10
 258 -238 258 -238 230.5 -231.5 c 128,-1,11
 203 -225 203 -225 183 -214 c 1,12,-1
 210 -166 l 1,13,14
 240 -182 240 -182 277 -182 c 0,15,16
 337 -182 337 -182 337 -141 c 0,17,18
 337 -115 337 -115 316 -106 c 128,-1,19
 295 -97 295 -97 251 -97 c 1,20,-1
 257 -10 l 1,21,22
 148 -5 148 -5 74 60 c 1,23,-1
 121 115 l 1,24,25
 153 89 153 89 194 73.5 c 128,-1,26
 235 58 235 58 280 58 c 0,27,28
 340 58 340 58 375 81 c 128,-1,29
 410 104 410 104 410 142 c 0,30,31
 410 168 410 168 401 184.5 c 128,-1,32
 392 201 392 201 365 214.5 c 128,-1,33
 338 228 338 228 283 242 c 0,34,35
 191 265 191 265 147 297.5 c 128,-1,36
 103 330 103 330 103 394 c 0,37,38
 103 460 103 460 158 499 c 128,-1,39
 213 538 213 538 303 538 c 0,40,41
 413 538 413 538 495 480 c 1,42,-1
 457 422 l 1,43,44
 424 445 424 445 388 457.5 c 128,-1,45
 352 470 352 470 305 470 c 0,46,47
 191 470 191 470 191 401 c 0,48,49
 191 377 191 377 203.5 362 c 128,-1,50
 216 347 216 347 244.5 335.5 c 128,-1,51
 273 324 273 324 330 308 c 0,52,53
 416 285 416 285 458.5 249.5 c 128,-1,54
 501 214 501 214 501 146 c 0,55,0
 501 76 501 76 449 37 c 128,-1,1
EndSplineSet
Substitution2: "'locl' Localized Forms in Latin lookup 16 subtable" scommaaccent
Substitution2: "'locl' Localized Forms in Latin lookup 15 subtable" scommaaccent
Substitution2: "'aalt' Access All Alternates lookup 0 subtable" scommaaccent
EndChar

StartChar: germandbls
Encoding: 223 223 235
Width: 600
Flags: W
LayerCount: 2
Fore
SplineSet
422.5 709 m 128,-1,1
 471 669 471 669 471 605 c 0,2,3
 471 569 471 569 454 546 c 128,-1,4
 437 523 437 523 405 496 c 0,5,6
 380 475 380 475 368.5 461.5 c 128,-1,7
 357 448 357 448 357 429 c 0,8,9
 357 404 357 404 375 386.5 c 128,-1,10
 393 369 393 369 434 343 c 0,11,12
 473 318 473 318 497.5 297.5 c 128,-1,13
 522 277 522 277 540 244.5 c 128,-1,14
 558 212 558 212 558 167 c 0,15,16
 558 111 558 111 533 70.5 c 128,-1,17
 508 30 508 30 465.5 9.5 c 128,-1,18
 423 -11 423 -11 372 -11 c 0,19,20
 296 -11 296 -11 242 23 c 1,21,-1
 277 81 l 1,22,23
 295 70 295 70 318.5 63.5 c 128,-1,24
 342 57 342 57 364 57 c 0,25,26
 415 57 415 57 443.5 83.5 c 128,-1,27
 472 110 472 110 472 163 c 0,28,29
 472 206 472 206 447.5 232 c 128,-1,30
 423 258 423 258 374 289 c 0,31,32
 341 310 341 310 321 326 c 128,-1,33
 301 342 301 342 287.5 365 c 128,-1,34
 274 388 274 388 274 419 c 0,35,36
 274 452 274 452 290.5 474 c 128,-1,37
 307 496 307 496 337 520 c 0,38,39
 364 541 364 541 377 557.5 c 128,-1,40
 390 574 390 574 390 597 c 0,41,42
 390 630 390 630 367.5 656 c 128,-1,43
 345 682 345 682 296 682 c 0,44,45
 238 682 238 682 209 648 c 128,-1,46
 180 614 180 614 180 539 c 2,47,-1
 180 0 l 1,48,-1
 96 0 l 1,49,-1
 96 533 l 2,50,51
 96 638 96 638 149 693.5 c 128,-1,52
 202 749 202 749 297 749 c 0,53,0
 374 749 374 749 422.5 709 c 128,-1,1
EndSplineSet
EndChar

StartChar: t
Encoding: 116 116 236
Width: 600
GlyphClass: 2
Flags: W
AnchorPoint: "Anchor-7" 242 652 basechar 0
AnchorPoint: "Anchor-6" 371 0 basechar 0
LayerCount: 2
Fore
SplineSet
453.5 -1 m 128,-1,1
 415 -11 415 -11 377 -11 c 0,2,3
 294 -11 294 -11 247 32.5 c 128,-1,4
 200 76 200 76 200 147 c 2,5,-1
 200 461 l 1,6,-1
 79 461 l 1,7,-1
 79 527 l 1,8,-1
 200 527 l 1,9,-1
 200 646 l 1,10,-1
 284 656 l 1,11,-1
 284 527 l 1,12,-1
 467 527 l 1,13,-1
 456 461 l 1,14,-1
 284 461 l 1,15,-1
 284 148 l 2,16,17
 284 103 284 103 308 81 c 128,-1,18
 332 59 332 59 385 59 c 0,19,20
 439 59 439 59 486 84 c 1,21,-1
 519 27 l 1,22,0
 492 9 492 9 453.5 -1 c 128,-1,1
EndSplineSet
EndChar

StartChar: tbar
Encoding: 359 359 237
Width: 600
GlyphClass: 2
Flags: W
AnchorPoint: "Anchor-7" 242 652 basechar 0
AnchorPoint: "Anchor-6" 371 0 basechar 0
LayerCount: 2
Fore
SplineSet
519 27 m 1,0,1
 492 9 492 9 453.5 -1 c 128,-1,2
 415 -11 415 -11 377 -11 c 0,3,4
 294 -11 294 -11 247 32.5 c 128,-1,5
 200 76 200 76 200 147 c 2,6,-1
 200 288 l 1,7,-1
 90 288 l 1,8,-1
 90 352 l 1,9,-1
 200 352 l 1,10,-1
 200 461 l 1,11,-1
 79 461 l 1,12,-1
 79 527 l 1,13,-1
 200 527 l 1,14,-1
 200 646 l 1,15,-1
 284 656 l 1,16,-1
 284 527 l 1,17,-1
 467 527 l 1,18,-1
 456 461 l 1,19,-1
 284 461 l 1,20,-1
 284 352 l 1,21,-1
 457 352 l 1,22,-1
 457 288 l 1,23,-1
 284 288 l 1,24,-1
 284 148 l 2,25,26
 284 103 284 103 308 81 c 128,-1,27
 332 59 332 59 385 59 c 0,28,29
 439 59 439 59 486 84 c 1,30,-1
 519 27 l 1,0,1
EndSplineSet
EndChar

StartChar: uni0163
Encoding: 355 355 239
Width: 600
GlyphClass: 2
Flags: W
AnchorPoint: "Anchor-7" 242 652 basechar 0
AnchorPoint: "Anchor-6" 371 0 basechar 0
LayerCount: 2
Fore
SplineSet
460.5 -84.5 m 128,-1,1
 484 -108 484 -108 484 -140 c 0,2,3
 484 -187 484 -187 448.5 -212.5 c 128,-1,4
 413 -238 413 -238 362 -238 c 0,5,6
 332 -238 332 -238 304.5 -231.5 c 128,-1,7
 277 -225 277 -225 257 -214 c 1,8,-1
 284 -166 l 1,9,10
 314 -182 314 -182 351 -182 c 0,11,12
 411 -182 411 -182 411 -141 c 0,13,14
 411 -115 411 -115 390 -106 c 128,-1,15
 369 -97 369 -97 325 -97 c 1,16,-1
 331 -7 l 1,17,18
 269 5 269 5 234.5 46 c 128,-1,19
 200 87 200 87 200 147 c 2,20,-1
 200 461 l 1,21,-1
 79 461 l 1,22,-1
 79 527 l 1,23,-1
 200 527 l 1,24,-1
 200 646 l 1,25,-1
 284 656 l 1,26,-1
 284 527 l 1,27,-1
 467 527 l 1,28,-1
 456 461 l 1,29,-1
 284 461 l 1,30,-1
 284 148 l 2,31,32
 284 103 284 103 308 81 c 128,-1,33
 332 59 332 59 385 59 c 0,34,35
 439 59 439 59 486 84 c 1,36,-1
 519 27 l 1,37,38
 494 11 494 11 460.5 1 c 128,-1,39
 427 -9 427 -9 391 -11 c 1,40,-1
 391 -57 l 1,41,0
 437 -61 437 -61 460.5 -84.5 c 128,-1,1
EndSplineSet
Substitution2: "'locl' Localized Forms in Latin lookup 16 subtable" uni021B
Substitution2: "'locl' Localized Forms in Latin lookup 15 subtable" uni021B
Substitution2: "'aalt' Access All Alternates lookup 0 subtable" uni021B
EndChar

StartChar: u
Encoding: 117 117 241
Width: 600
GlyphClass: 2
Flags: W
AnchorPoint: "Anchor-7" 300 527 basechar 0
AnchorPoint: "Anchor-6" 0 0 basechar 0
LayerCount: 2
Fore
SplineSet
184 153 m 2,0,1
 184 102 184 102 205.5 78.5 c 128,-1,2
 227 55 227 55 273 55 c 0,3,4
 315 55 315 55 354 79 c 128,-1,5
 393 103 393 103 416 139 c 1,6,-1
 416 527 l 1,7,-1
 500 527 l 1,8,-1
 500 0 l 1,9,-1
 428 0 l 1,10,-1
 421 71 l 1,11,12
 390 32 390 32 344.5 10.5 c 128,-1,13
 299 -11 299 -11 252 -11 c 0,14,15
 177 -11 177 -11 138.5 29 c 128,-1,16
 100 69 100 69 100 144 c 2,17,-1
 100 527 l 1,18,-1
 184 527 l 1,19,-1
 184 153 l 2,0,1
EndSplineSet
EndChar

StartChar: uogonek
Encoding: 371 371 249
Width: 600
GlyphClass: 2
Flags: W
AnchorPoint: "Anchor-7" 300 527 basechar 0
AnchorPoint: "Anchor-6" 0 0 basechar 0
LayerCount: 2
Fore
SplineSet
402 -58 m 128,-1,1
 376 -85 376 -85 376 -114 c 0,2,3
 376 -138 376 -138 389 -150 c 128,-1,4
 402 -162 402 -162 432 -162 c 0,5,6
 459 -162 459 -162 493 -155 c 1,7,-1
 485 -223 l 1,8,9
 443 -229 443 -229 421 -229 c 0,10,11
 365 -229 365 -229 332 -201.5 c 128,-1,12
 299 -174 299 -174 299 -131 c 0,13,14
 299 -42 299 -42 427 10 c 1,15,-1
 421 71 l 1,16,17
 390 32 390 32 344.5 10.5 c 128,-1,18
 299 -11 299 -11 252 -11 c 0,19,20
 177 -11 177 -11 138.5 29 c 128,-1,21
 100 69 100 69 100 144 c 2,22,-1
 100 527 l 1,23,-1
 184 527 l 1,24,-1
 184 153 l 2,25,26
 184 102 184 102 205.5 78.5 c 128,-1,27
 227 55 227 55 273 55 c 0,28,29
 315 55 315 55 354 79 c 128,-1,30
 393 103 393 103 416 139 c 1,31,-1
 416 527 l 1,32,-1
 500 527 l 1,33,-1
 500 0 l 1,34,0
 428 -31 428 -31 402 -58 c 128,-1,1
EndSplineSet
EndChar

StartChar: v
Encoding: 118 118 252
Width: 600
GlyphClass: 2
Flags: W
AnchorPoint: "Anchor-7" 300 527 basechar 0
AnchorPoint: "Anchor-6" 300 0 basechar 0
LayerCount: 2
Fore
SplineSet
540 527 m 1,0,-1
 348 0 l 1,1,-1
 251 0 l 1,2,-1
 60 527 l 1,3,-1
 150 527 l 1,4,-1
 302 76 l 1,5,-1
 452 527 l 1,6,-1
 540 527 l 1,0,-1
EndSplineSet
EndChar

StartChar: w
Encoding: 119 119 253
Width: 600
GlyphClass: 2
Flags: W
AnchorPoint: "Anchor-7" 300 527 basechar 0
AnchorPoint: "Anchor-6" 300 0 basechar 0
LayerCount: 2
Fore
SplineSet
491 0 m 1,0,-1
 372 0 l 1,1,-1
 303 386 l 1,2,-1
 229 0 l 1,3,-1
 113 0 l 1,4,-1
 18 527 l 1,5,-1
 103 527 l 1,6,-1
 171 52 l 1,7,-1
 255 460 l 1,8,-1
 354 460 l 1,9,-1
 433 52 l 1,10,-1
 501 527 l 1,11,-1
 582 527 l 1,12,-1
 491 0 l 1,0,-1
EndSplineSet
Substitution2: "Single Substitution lookup 174 subtable" LIG
Substitution2: "Single Substitution lookup 173 subtable" w_w_w.liga
AlternateSubs2: "'aalt' Access All Alternates lookup 1 subtable" w_w_w.liga LIG
EndChar

StartChar: x
Encoding: 120 120 258
Width: 600
GlyphClass: 2
Flags: W
AnchorPoint: "Anchor-7" 300 527 basechar 0
AnchorPoint: "Anchor-6" 300 0 basechar 0
LayerCount: 2
Fore
SplineSet
152 0 m 1,0,-1
 56 0 l 1,1,-1
 250 278 l 1,2,-1
 79 527 l 1,3,-1
 179 527 l 1,4,-1
 301 331 l 1,5,-1
 424 527 l 1,6,-1
 521 527 l 1,7,-1
 350 282 l 1,8,-1
 544 0 l 1,9,-1
 442 0 l 1,10,-1
 297 226 l 1,11,-1
 152 0 l 1,0,-1
EndSplineSet
Substitution2: "Single Substitution lookup 240 subtable" x.multiply
Substitution2: "'aalt' Access All Alternates lookup 0 subtable" x.multiply
EndChar

StartChar: y
Encoding: 121 121 259
Width: 600
GlyphClass: 2
Flags: W
AnchorPoint: "Anchor-7" 300 527 basechar 0
AnchorPoint: "Anchor-6" 0 0 basechar 0
LayerCount: 2
Fore
SplineSet
354 -3 m 2,0,1
 323 -94 323 -94 269 -148 c 128,-1,2
 215 -202 215 -202 118 -212 c 1,3,-1
 106 -145 l 1,4,5
 159 -136 159 -136 190.5 -117.5 c 128,-1,6
 222 -99 222 -99 240 -71.5 c 128,-1,7
 258 -44 258 -44 273 0 c 1,8,-1
 245 0 l 1,9,-1
 62 527 l 1,10,-1
 151 527 l 1,11,-1
 302 64 l 1,12,-1
 451 527 l 1,13,-1
 538 527 l 1,14,-1
 354 -3 l 2,0,1
EndSplineSet
EndChar

StartChar: z
Encoding: 122 122 264
Width: 600
GlyphClass: 2
Flags: W
AnchorPoint: "Anchor-7" 310 527 basechar 0
AnchorPoint: "Anchor-6" 300 0 basechar 0
LayerCount: 2
Fore
SplineSet
205 72 m 1,0,-1
 498 72 l 1,1,-1
 488 0 l 1,2,-1
 102 0 l 1,3,-1
 102 64 l 1,4,-1
 394 453 l 1,5,-1
 125 453 l 1,6,-1
 125 527 l 1,7,-1
 495 527 l 1,8,-1
 495 461 l 1,9,-1
 205 72 l 1,0,-1
EndSplineSet
EndChar

StartChar: x.multiply
Encoding: 1114125 -1 273
Width: 600
Flags: W
LayerCount: 2
Fore
SplineSet
448 526 m 1,0,-1
 501 473 l 1,1,-1
 354 325 l 1,2,-1
 501 175 l 1,3,-1
 448 122 l 1,4,-1
 300 271 l 1,5,-1
 150 122 l 1,6,-1
 97 175 l 1,7,-1
 246 325 l 1,8,-1
 97 473 l 1,9,-1
 150 526 l 1,10,-1
 300 378 l 1,11,-1
 448 526 l 1,0,-1
EndSplineSet
EndChar

StartChar: w_w_w.liga
Encoding: 1114126 -1 274
Width: 600
Flags: W
LayerCount: 2
Fore
SplineSet
420 527 m 1,0,-1
 502 527 l 1,1,-1
 410 0 l 1,2,-1
 291 0 l 1,3,-1
 223 386 l 1,4,-1
 140 0 l 1,5,-1
 19 0 l 1,6,-1
 -42 386 l 1,7,-1
 -107 0 l 1,8,-1
 -231 0 l 1,9,-1
 -297 386 l 1,10,-1
 -369 0 l 1,11,-1
 -489 0 l 1,12,-1
 -557 386 l 1,13,-1
 -626 0 l 1,14,-1
 -750 0 l 1,15,-1
 -817 386 l 1,16,-1
 -890 0 l 1,17,-1
 -1006 0 l 1,18,-1
 -1102 527 l 1,19,-1
 -1016 527 l 1,20,-1
 -949 52 l 1,21,-1
 -865 460 l 1,22,-1
 -766 460 l 1,23,-1
 -688 52 l 1,24,-1
 -606 460 l 1,25,-1
 -505 460 l 1,26,-1
 -427 52 l 1,27,-1
 -345 460 l 1,28,-1
 -245 460 l 1,29,-1
 -169 52 l 1,30,-1
 -91 460 l 1,31,-1
 10 460 l 1,32,-1
 80 52 l 1,33,-1
 175 460 l 1,34,-1
 274 460 l 1,35,-1
 353 52 l 1,36,-1
 420 527 l 1,0,-1
EndSplineSet
EndChar

StartChar: ordfeminine
Encoding: 170 170 275
Width: 600
Flags: W
LayerCount: 2
Fore
SplineSet
414 712.5 m 128,-1,1
 456 676 456 676 456 609 c 2,2,-1
 456 412 l 2,3,4
 456 390 456 390 464 378 c 128,-1,5
 472 366 472 366 490 361 c 1,6,-1
 471 307 l 1,7,8
 439 311 439 311 418.5 325 c 128,-1,9
 398 339 398 339 388 366 c 1,10,11
 364 338 364 338 328.5 322.5 c 128,-1,12
 293 307 293 307 254 307 c 0,13,14
 186 307 186 307 144 343.5 c 128,-1,15
 102 380 102 380 102 440 c 0,16,17
 102 506 102 506 159 541.5 c 128,-1,18
 216 577 216 577 319 577 c 2,19,-1
 378 577 l 1,20,-1
 378 606 l 2,21,22
 378 685 378 685 279 685 c 0,23,24
 224 685 224 685 157 660 c 1,25,-1
 134 719 l 1,26,27
 214 749 214 749 290 749 c 0,28,0
 372 749 372 749 414 712.5 c 128,-1,1
320 520 m 2,29,30
 187 520 187 520 187 444 c 0,31,32
 187 406 187 406 209 386.5 c 128,-1,33
 231 367 231 367 273 367 c 0,34,35
 303 367 303 367 330.5 382 c 128,-1,36
 358 397 358 397 378 423 c 1,37,-1
 378 520 l 1,38,-1
 320 520 l 2,29,30
498 75 m 1,39,-1
 498 0 l 1,40,-1
 106 0 l 1,41,-1
 106 75 l 1,42,-1
 498 75 l 1,39,-1
EndSplineSet
EndChar

StartChar: ordmasculine
Encoding: 186 186 276
Width: 600
Flags: W
LayerCount: 2
Fore
SplineSet
448.5 689.5 m 128,-1,1
 503 630 503 630 503 529 c 0,2,3
 503 464 503 464 478 413.5 c 128,-1,4
 453 363 453 363 407 335 c 128,-1,5
 361 307 361 307 300 307 c 0,6,7
 207 307 207 307 151.5 367.5 c 128,-1,8
 96 428 96 428 96 529 c 0,9,10
 96 594 96 594 121.5 643.5 c 128,-1,11
 147 693 147 693 193 721 c 128,-1,12
 239 749 239 749 300 749 c 0,13,0
 394 749 394 749 448.5 689.5 c 128,-1,1
212 646 m 128,-1,15
 180 607 180 607 180 529 c 0,16,17
 180 450 180 450 211.5 411 c 128,-1,18
 243 372 243 372 300 372 c 0,19,20
 356 372 356 372 387.5 411 c 128,-1,21
 419 450 419 450 419 529 c 0,22,23
 419 607 419 607 387.5 646 c 128,-1,24
 356 685 356 685 300 685 c 256,25,14
 244 685 244 685 212 646 c 128,-1,15
497 75 m 1,26,-1
 497 0 l 1,27,-1
 104 0 l 1,28,-1
 104 75 l 1,29,-1
 497 75 l 1,26,-1
EndSplineSet
EndChar

StartChar: uni207F
Encoding: 8319 8319 277
Width: 600
Flags: W
LayerCount: 2
Fore
SplineSet
433 620 m 2,1,-1
 433 378 l 1,2,-1
 362 378 l 1,3,-1
 362 582 l 2,4,5
 362 630 362 630 353 648 c 128,-1,6
 344 666 344 666 315 666 c 0,7,8
 295 666 295 666 274 652 c 128,-1,9
 253 638 253 638 239 619 c 1,10,-1
 239 378 l 1,11,-1
 168 378 l 1,12,-1
 168 716 l 1,13,-1
 232 716 l 1,14,-1
 234 676 l 1,15,16
 253 699 253 699 279.5 711 c 128,-1,17
 306 723 306 723 332 723 c 0,18,0
 433 723 433 723 433 620 c 2,1,-1
EndSplineSet
EndChar

StartChar: uni052C
Encoding: 1324 1324 278
Width: 600
GlyphClass: 2
Flags: W
AnchorPoint: "Anchor-3" 300 689 basechar 0
AnchorPoint: "Anchor-2" 300 -200 basechar 0
LayerCount: 2
Fore
SplineSet
562 73 m 1,0,-1
 562 -147 l 1,1,-1
 493 -147 l 1,2,-1
 479 0 l 1,3,-1
 136 0 l 1,4,-1
 122 -147 l 1,5,-1
 53 -147 l 1,6,-1
 53 73 l 1,7,-1
 89 73 l 1,8,9
 120 105 120 105 149 171.5 c 128,-1,10
 178 238 178 238 200 346 c 1,11,12
 130 363 130 363 96 414.5 c 128,-1,13
 62 466 62 466 61 558 c 2,14,-1
 61 689 l 1,15,-1
 150 689 l 1,16,-1
 150 562 l 2,17,18
 150 505 150 505 164.5 471 c 128,-1,19
 179 437 179 437 214 422 c 1,20,-1
 223 488 l 1,21,-1
 248 689 l 1,22,-1
 527 689 l 1,23,-1
 527 73 l 1,24,-1
 562 73 l 1,0,-1
312 484 m 2,25,26
 307 436 307 436 302 407 c 1,27,-1
 440 407 l 1,28,-1
 440 614 l 1,29,-1
 327 614 l 1,30,-1
 312 484 l 2,25,26
440 73 m 1,31,-1
 440 336 l 1,32,-1
 296 336 l 1,33,-1
 290 336 l 1,34,35
 269 227 269 227 241.5 169.5 c 128,-1,36
 214 112 214 112 177 73 c 1,37,-1
 440 73 l 1,31,-1
EndSplineSet
EndChar

StartChar: uni052A
Encoding: 1322 1322 279
Width: 600
GlyphClass: 2
Flags: W
AnchorPoint: "Anchor-3" 300 689 basechar 0
AnchorPoint: "Anchor-2" 300 -200 basechar 0
LayerCount: 2
Fore
SplineSet
612 0 m 1,0,-1
 529 0 l 1,1,-1
 452 323 l 1,2,-1
 426 323 l 1,3,-1
 426 0 l 1,4,-1
 367 0 l 1,5,-1
 367 -147 l 1,6,-1
 303 -147 l 1,7,-1
 287 0 l 1,8,-1
 66 0 l 1,9,-1
 51 -147 l 1,10,-1
 -13 -147 l 1,11,-1
 -13 64 l 1,12,-1
 21 64 l 1,13,14
 38 111 38 111 48 147.5 c 128,-1,15
 58 184 58 184 68.5 254 c 128,-1,16
 79 324 79 324 86 435 c 2,17,-1
 102 689 l 1,18,-1
 302 689 l 1,19,-1
 302 395 l 1,20,-1
 353 395 l 1,21,-1
 353 689 l 1,22,-1
 426 689 l 1,23,-1
 426 395 l 1,24,-1
 453 395 l 1,25,-1
 519 689 l 1,26,-1
 591 689 l 1,27,-1
 515 362 l 1,28,-1
 612 0 l 1,0,-1
229 622 m 1,29,-1
 174 622 l 1,30,-1
 163 431 l 2,31,32
 155 274 155 274 138 195 c 128,-1,33
 121 116 121 116 90 64 c 1,34,-1
 229 64 l 1,35,-1
 229 622 l 1,29,-1
353 323 m 1,36,-1
 302 323 l 1,37,-1
 302 64 l 1,38,-1
 353 64 l 1,39,-1
 353 323 l 1,36,-1
EndSplineSet
EndChar

StartChar: uni052E
Encoding: 1326 1326 280
Width: 600
Flags: W
LayerCount: 2
Fore
SplineSet
547 73 m 1,0,-1
 547 -147 l 1,1,-1
 478 -147 l 1,2,-1
 464 0 l 1,3,-1
 399 0 l 1,4,-1
 399 614 l 1,5,-1
 233 614 l 1,6,-1
 208 410 l 2,7,8
 189 254 189 254 168 175 c 128,-1,9
 147 96 147 96 120 60 c 128,-1,10
 93 24 93 24 41 -11 c 1,11,-1
 3 53 l 1,12,13
 32 77 32 77 49 103 c 128,-1,14
 66 129 66 129 84 195 c 128,-1,15
 102 261 102 261 118 386 c 2,16,-1
 157 689 l 1,17,-1
 486 689 l 1,18,-1
 486 73 l 1,19,-1
 547 73 l 1,0,-1
EndSplineSet
EndChar

StartChar: uni0528
Encoding: 1320 1320 281
Width: 600
GlyphClass: 2
Flags: W
AnchorPoint: "Anchor-3" 300 689 basechar 0
AnchorPoint: "Anchor-2" 300 0 basechar 0
LayerCount: 2
Fore
SplineSet
517 689 m 1,0,-1
 517 0 l 1,1,-1
 430 0 l 1,2,-1
 430 327 l 1,3,-1
 170 327 l 1,4,-1
 170 -62 l 2,5,6
 170 -135 170 -135 131.5 -173.5 c 128,-1,7
 93 -212 93 -212 25 -212 c 0,8,9
 -39 -212 -39 -212 -88 -175 c 1,10,-1
 -54 -118 l 1,11,12
 -35 -131 -35 -131 -19 -136.5 c 128,-1,13
 -3 -142 -3 -142 21 -142 c 0,14,15
 83 -142 83 -142 83 -67 c 2,16,-1
 83 689 l 1,17,-1
 170 689 l 1,18,-1
 170 398 l 1,19,-1
 430 398 l 1,20,-1
 430 689 l 1,21,-1
 517 689 l 1,0,-1
EndSplineSet
EndChar

StartChar: uni0411
Encoding: 1041 1041 283
Width: 600
GlyphClass: 2
Flags: W
AnchorPoint: "Anchor-3" 300 689 basechar 0
AnchorPoint: "Anchor-2" 300 0 basechar 0
LayerCount: 2
Fore
SplineSet
477 616 m 1,0,-1
 187 616 l 1,1,-1
 187 421 l 1,2,-1
 274 421 l 2,3,4
 403 421 403 421 472.5 370.5 c 128,-1,5
 542 320 542 320 542 215 c 0,6,7
 542 102 542 102 471 51 c 128,-1,8
 400 0 400 0 275 0 c 2,9,-1
 101 0 l 1,10,-1
 101 689 l 1,11,-1
 485 689 l 1,12,-1
 477 616 l 1,0,-1
187 352 m 1,13,-1
 187 70 l 1,14,-1
 286 70 l 2,15,16
 366 70 366 70 409 101 c 128,-1,17
 452 132 452 132 452 214 c 0,18,19
 452 286 452 286 407.5 319 c 128,-1,20
 363 352 363 352 287 352 c 2,21,-1
 187 352 l 1,13,-1
EndSplineSet
EndChar

StartChar: uni0413
Encoding: 1043 1043 285
Width: 600
GlyphClass: 2
Flags: W
AnchorPoint: "Anchor-3" 349 689 basechar 0
AnchorPoint: "Anchor-2" 180 0 basechar 0
LayerCount: 2
Fore
SplineSet
544 689 m 1,0,-1
 535 612 l 1,1,-1
 223 612 l 1,2,-1
 223 0 l 1,3,-1
 136 0 l 1,4,-1
 136 689 l 1,5,-1
 544 689 l 1,0,-1
EndSplineSet
EndChar

StartChar: uni0490
Encoding: 1168 1168 287
Width: 600
GlyphClass: 2
Flags: W
AnchorPoint: "Anchor-3" 349 689 basechar 0
AnchorPoint: "Anchor-2" 180 0 basechar 0
LayerCount: 2
Fore
SplineSet
460 835 m 1,0,-1
 544 835 l 1,1,-1
 544 689 l 1,2,-1
 535 612 l 1,3,-1
 223 612 l 1,4,-1
 223 0 l 1,5,-1
 136 0 l 1,6,-1
 136 689 l 1,7,-1
 460 689 l 1,8,-1
 460 835 l 1,0,-1
EndSplineSet
EndChar

StartChar: uni0414
Encoding: 1044 1044 288
Width: 600
GlyphClass: 2
Flags: W
AnchorPoint: "Anchor-3" 300 689 basechar 0
AnchorPoint: "Anchor-2" 300 -200 basechar 0
LayerCount: 2
Fore
SplineSet
565 73 m 1,0,-1
 565 -147 l 1,1,-1
 496 -147 l 1,2,-1
 482 0 l 1,3,-1
 83 0 l 1,4,-1
 69 -147 l 1,5,-1
 0 -147 l 1,6,-1
 0 73 l 1,7,-1
 42 73 l 1,8,9
 68 98 68 98 82.5 134 c 128,-1,10
 97 170 97 170 107 230.5 c 128,-1,11
 117 291 117 291 136 439 c 2,12,-1
 143 491 l 1,13,-1
 168 689 l 1,14,-1
 514 689 l 1,15,-1
 514 73 l 1,16,-1
 565 73 l 1,0,-1
426 615 m 1,17,-1
 245 615 l 1,18,-1
 230 485 l 2,19,20
 211 324 211 324 200 254 c 128,-1,21
 189 184 189 184 173 142 c 128,-1,22
 157 100 157 100 127 73 c 1,23,-1
 426 73 l 1,24,-1
 426 615 l 1,17,-1
EndSplineSet
EndChar

StartChar: uni0415
Encoding: 1045 1045 289
Width: 600
GlyphClass: 2
Flags: W
AnchorPoint: "Anchor-3" 321 689 basechar 0
AnchorPoint: "Anchor-2" 326 0 basechar 0
LayerCount: 2
Fore
SplineSet
212 617 m 1,0,-1
 212 385 l 1,1,-1
 468 385 l 1,2,-1
 468 314 l 1,3,-1
 212 314 l 1,4,-1
 212 70 l 1,5,-1
 526 70 l 1,6,-1
 526 0 l 1,7,-1
 126 0 l 1,8,-1
 126 689 l 1,9,-1
 517 689 l 1,10,-1
 507 617 l 1,11,-1
 212 617 l 1,0,-1
EndSplineSet
EndChar

StartChar: uni0416
Encoding: 1046 1046 292
Width: 600
GlyphClass: 2
Flags: W
AnchorPoint: "Anchor-3" 300 689 basechar 0
AnchorPoint: "Anchor-2" 300 0 basechar 0
LayerCount: 2
Fore
SplineSet
261 327 m 1,0,-1
 200 327 l 1,1,-1
 96 0 l 1,2,-1
 12 0 l 1,3,-1
 135 364 l 1,4,-1
 27 689 l 1,5,-1
 110 689 l 1,6,-1
 201 398 l 1,7,-1
 261 398 l 1,8,-1
 261 689 l 1,9,-1
 339 689 l 1,10,-1
 339 398 l 1,11,-1
 399 398 l 1,12,-1
 491 689 l 1,13,-1
 573 689 l 1,14,-1
 465 364 l 1,15,-1
 588 0 l 1,16,-1
 502 0 l 1,17,-1
 399 327 l 1,18,-1
 339 327 l 1,19,-1
 339 0 l 1,20,-1
 261 0 l 1,21,-1
 261 327 l 1,0,-1
EndSplineSet
EndChar

StartChar: uni0417
Encoding: 1047 1047 293
Width: 600
GlyphClass: 2
Flags: W
AnchorPoint: "Anchor-3" 298 689 basechar 0
AnchorPoint: "Anchor-2" 294 0 basechar 0
LayerCount: 2
Fore
SplineSet
406.5 677.5 m 128,-1,1
 460 655 460 655 488.5 614 c 128,-1,2
 517 573 517 573 517 520 c 0,3,4
 517 459 517 459 477 421.5 c 128,-1,5
 437 384 437 384 375 375 c 1,6,7
 445 369 445 369 493 324.5 c 128,-1,8
 541 280 541 280 541 205 c 0,9,10
 541 143 541 143 509 94 c 128,-1,11
 477 45 477 45 417 17 c 128,-1,12
 357 -11 357 -11 278 -11 c 0,13,14
 205 -11 205 -11 142.5 14 c 128,-1,15
 80 39 80 39 35 86 c 1,16,-1
 89 135 l 1,17,18
 171 62 171 62 278 62 c 0,19,20
 358 62 358 62 402.5 99 c 128,-1,21
 447 136 447 136 447 202 c 256,22,23
 447 268 447 268 403 300.5 c 128,-1,24
 359 333 359 333 286 333 c 2,25,-1
 165 333 l 1,26,-1
 175 406 l 1,27,-1
 280 406 l 2,28,29
 343 406 343 406 385.5 434.5 c 128,-1,30
 428 463 428 463 428 519 c 0,31,32
 428 572 428 572 386.5 600.5 c 128,-1,33
 345 629 345 629 279 629 c 0,34,35
 225 629 225 629 182 612.5 c 128,-1,36
 139 596 139 596 97 563 c 1,37,-1
 49 614 l 1,38,39
 101 657 101 657 157.5 678.5 c 128,-1,40
 214 700 214 700 281 700 c 0,41,0
 353 700 353 700 406.5 677.5 c 128,-1,1
EndSplineSet
EndChar

StartChar: uni0418
Encoding: 1048 1048 294
Width: 600
GlyphClass: 2
Flags: W
AnchorPoint: "Anchor-3" 300 689 basechar 0
AnchorPoint: "Anchor-2" 300 0 basechar 0
LayerCount: 2
Fore
SplineSet
83 689 m 1,0,-1
 169 689 l 1,1,-1
 169 340 l 2,2,3
 169 254 169 254 165.5 196.5 c 128,-1,4
 162 139 162 139 155 77 c 1,5,-1
 405 689 l 1,6,-1
 517 689 l 1,7,-1
 517 0 l 1,8,-1
 431 0 l 1,9,-1
 431 349 l 2,10,11
 431 482 431 482 445 606 c 1,12,-1
 197 0 l 1,13,-1
 83 0 l 1,14,-1
 83 689 l 1,0,-1
EndSplineSet
EndChar

StartChar: uni048A
Encoding: 1162 1162 297
Width: 600
GlyphClass: 2
Flags: W
AnchorPoint: "Anchor-3" 300 689 basechar 0
AnchorPoint: "Anchor-2" 300 0 basechar 0
LayerCount: 2
Fore
SplineSet
198 802.5 m 128,-1,1
 157 832 157 832 151 885 c 1,2,-1
 208 898 l 1,3,4
 219 866 219 866 240.5 852 c 128,-1,5
 262 838 262 838 298 838 c 256,6,7
 334 838 334 838 357 852 c 128,-1,8
 380 866 380 866 391 898 c 1,9,-1
 449 885 l 1,10,11
 443 832 443 832 400.5 802.5 c 128,-1,12
 358 773 358 773 298 773 c 0,13,0
 239 773 239 773 198 802.5 c 128,-1,1
607 69 m 1,14,-1
 529 -147 l 1,15,-1
 461 -147 l 1,16,-1
 496 0 l 1,17,-1
 431 0 l 1,18,-1
 431 349 l 2,19,20
 431 482 431 482 445 606 c 1,21,-1
 197 0 l 1,22,-1
 83 0 l 1,23,-1
 83 689 l 1,24,-1
 169 689 l 1,25,-1
 169 340 l 2,26,27
 169 254 169 254 165.5 196.5 c 128,-1,28
 162 139 162 139 155 77 c 1,29,-1
 405 689 l 1,30,-1
 517 689 l 1,31,-1
 517 69 l 1,32,-1
 607 69 l 1,14,-1
EndSplineSet
EndChar

StartChar: uni041A
Encoding: 1050 1050 298
Width: 600
GlyphClass: 2
Flags: W
AnchorPoint: "Anchor-3" 320 689 basechar 0
AnchorPoint: "Anchor-2" 300 0 basechar 0
LayerCount: 2
Fore
SplineSet
261 326 m 1,0,-1
 181 326 l 1,1,-1
 181 0 l 1,2,-1
 95 0 l 1,3,-1
 95 689 l 1,4,-1
 181 689 l 1,5,-1
 181 399 l 1,6,-1
 262 399 l 1,7,-1
 474 689 l 1,8,-1
 568 689 l 1,9,-1
 336 364 l 1,10,-1
 587 0 l 1,11,-1
 482 0 l 1,12,-1
 261 326 l 1,0,-1
EndSplineSet
EndChar

StartChar: uni041B
Encoding: 1051 1051 300
Width: 600
GlyphClass: 2
Flags: W
AnchorPoint: "Anchor-3" 300 689 basechar 0
AnchorPoint: "Anchor-2" 300 0 basechar 0
LayerCount: 2
Fore
SplineSet
517 0 m 1,0,-1
 430 0 l 1,1,-1
 430 614 l 1,2,-1
 245 614 l 1,3,-1
 220 410 l 2,4,5
 201 254 201 254 180 175 c 128,-1,6
 159 96 159 96 132 60 c 128,-1,7
 105 24 105 24 53 -11 c 1,8,-1
 15 53 l 1,9,10
 44 77 44 77 61 103 c 128,-1,11
 78 129 78 129 96 195 c 128,-1,12
 114 261 114 261 130 386 c 2,13,-1
 169 689 l 1,14,-1
 517 689 l 1,15,-1
 517 0 l 1,0,-1
EndSplineSet
EndChar

StartChar: uni041E
Encoding: 1054 1054 303
Width: 600
GlyphClass: 2
Flags: W
AnchorPoint: "Anchor-3" 300 689 basechar 0
AnchorPoint: "Anchor-2" 300 0 basechar 0
LayerCount: 2
Fore
SplineSet
487.5 86 m 128,-1,1
 422 -11 422 -11 300 -11 c 0,2,3
 177 -11 177 -11 112 84 c 128,-1,4
 47 179 47 179 47 343 c 0,5,6
 47 448 47 448 76 529 c 128,-1,7
 105 610 105 610 162 655 c 128,-1,8
 219 700 219 700 300 700 c 0,9,10
 422 700 422 700 487.5 603.5 c 128,-1,11
 553 507 553 507 553 344 c 0,12,0
 553 183 553 183 487.5 86 c 128,-1,1
424 556 m 128,-1,14
 385 627 385 627 300 627 c 256,15,16
 215 627 215 627 176 555.5 c 128,-1,17
 137 484 137 484 137 343 c 0,18,19
 137 203 137 203 176.5 132.5 c 128,-1,20
 216 62 216 62 300 62 c 0,21,22
 385 62 385 62 424 132.5 c 128,-1,23
 463 203 463 203 463 344 c 256,24,13
 463 485 463 485 424 556 c 128,-1,14
EndSplineSet
EndChar

StartChar: uni041F
Encoding: 1055 1055 304
Width: 600
GlyphClass: 2
Flags: W
AnchorPoint: "Anchor-3" 300 689 basechar 0
AnchorPoint: "Anchor-2" 300 0 basechar 0
LayerCount: 2
Fore
SplineSet
430 0 m 1,0,-1
 430 613 l 1,1,-1
 170 613 l 1,2,-1
 170 0 l 1,3,-1
 83 0 l 1,4,-1
 83 689 l 1,5,-1
 517 689 l 1,6,-1
 517 0 l 1,7,-1
 430 0 l 1,0,-1
EndSplineSet
EndChar

StartChar: uni0423
Encoding: 1059 1059 308
Width: 600
GlyphClass: 2
Flags: W
AnchorPoint: "Anchor-3" 310 689 basechar 0
AnchorPoint: "Anchor-2" 300 0 basechar 0
LayerCount: 2
Fore
SplineSet
369 180 m 2,0,1
 344 119 344 119 314.5 81.5 c 128,-1,2
 285 44 285 44 239 21 c 128,-1,3
 193 -2 193 -2 122 -11 c 1,4,-1
 109 58 l 1,5,6
 169 67 169 67 203.5 83 c 128,-1,7
 238 99 238 99 257 123.5 c 128,-1,8
 276 148 276 148 291 190 c 1,9,-1
 254 190 l 1,10,-1
 26 689 l 1,11,-1
 117 689 l 1,12,-1
 313 246 l 1,13,-1
 493 689 l 1,14,-1
 580 689 l 1,15,-1
 369 180 l 2,0,1
EndSplineSet
EndChar

StartChar: uni0424
Encoding: 1060 1060 310
Width: 600
GlyphClass: 2
Flags: W
AnchorPoint: "Anchor-3" 300 689 basechar 0
AnchorPoint: "Anchor-2" 300 0 basechar 0
LayerCount: 2
Fore
SplineSet
342 659 m 1,0,1
 467 650 467 650 527 572.5 c 128,-1,2
 587 495 587 495 587 347 c 0,3,4
 587 195 587 195 524 116 c 128,-1,5
 461 37 461 37 342 31 c 1,6,-1
 342 -29 l 1,7,-1
 258 -29 l 1,8,-1
 258 31 l 1,9,10
 138 36 138 36 75.5 115 c 128,-1,11
 13 194 13 194 13 347 c 0,12,13
 13 495 13 495 73 572.5 c 128,-1,14
 133 650 133 650 258 659 c 1,15,-1
 258 718 l 1,16,-1
 342 718 l 1,17,-1
 342 659 l 1,0,1
139 535 m 128,-1,19
 101 478 101 478 101 347 c 0,20,21
 101 220 101 220 138 161.5 c 128,-1,22
 175 103 175 103 259 95 c 1,23,-1
 259 595 l 1,24,18
 177 592 177 592 139 535 c 128,-1,19
341 95 m 1,25,26
 425 103 425 103 462 161.5 c 128,-1,27
 499 220 499 220 499 347 c 0,28,29
 499 478 499 478 461 535 c 128,-1,30
 423 592 423 592 341 595 c 1,31,-1
 341 95 l 1,25,26
EndSplineSet
EndChar

StartChar: uni0427
Encoding: 1063 1063 312
Width: 600
GlyphClass: 2
Flags: W
AnchorPoint: "Anchor-3" 289 689 basechar 0
AnchorPoint: "Anchor-2" 300 0 basechar 0
LayerCount: 2
Fore
SplineSet
517 689 m 1,0,-1
 517 0 l 1,1,-1
 430 0 l 1,2,-1
 430 282 l 1,3,4
 384 248 384 248 344 233.5 c 128,-1,5
 304 219 304 219 251 219 c 0,6,7
 161 219 161 219 106 274.5 c 128,-1,8
 51 330 51 330 51 423 c 2,9,-1
 51 689 l 1,10,-1
 137 689 l 1,11,-1
 137 430 l 2,12,13
 137 362 137 362 172 328.5 c 128,-1,14
 207 295 207 295 273 295 c 0,15,16
 367 295 367 295 430 356 c 1,17,-1
 430 689 l 1,18,-1
 517 689 l 1,0,-1
EndSplineSet
EndChar

StartChar: uni0426
Encoding: 1062 1062 313
Width: 600
GlyphClass: 2
Flags: W
AnchorPoint: "Anchor-3" 0 0 basechar 0
AnchorPoint: "Anchor-2" 300 0 basechar 0
LayerCount: 2
Fore
SplineSet
517 73 m 1,0,-1
 578 73 l 1,1,-1
 578 -147 l 1,2,-1
 509 -147 l 1,3,-1
 495 0 l 1,4,-1
 83 0 l 1,5,-1
 83 689 l 1,6,-1
 170 689 l 1,7,-1
 170 72 l 1,8,-1
 430 72 l 1,9,-1
 430 689 l 1,10,-1
 517 689 l 1,11,-1
 517 73 l 1,0,-1
EndSplineSet
EndChar

StartChar: uni0428
Encoding: 1064 1064 314
Width: 600
GlyphClass: 2
Flags: W
AnchorPoint: "Anchor-3" 300 689 basechar 0
AnchorPoint: "Anchor-2" 300 0 basechar 0
LayerCount: 2
Fore
SplineSet
554 689 m 1,0,-1
 554 0 l 1,1,-1
 46 0 l 1,2,-1
 46 689 l 1,3,-1
 128 689 l 1,4,-1
 128 73 l 1,5,-1
 261 73 l 1,6,-1
 261 689 l 1,7,-1
 339 689 l 1,8,-1
 339 73 l 1,9,-1
 472 73 l 1,10,-1
 472 689 l 1,11,-1
 554 689 l 1,0,-1
EndSplineSet
EndChar

StartChar: uni0429
Encoding: 1065 1065 315
Width: 600
GlyphClass: 2
Flags: W
AnchorPoint: "Anchor-3" 300 689 basechar 0
AnchorPoint: "Anchor-2" 300 0 basechar 0
LayerCount: 2
Fore
SplineSet
554 73 m 1,0,-1
 615 73 l 1,1,-1
 615 -147 l 1,2,-1
 546 -147 l 1,3,-1
 532 0 l 1,4,-1
 46 0 l 1,5,-1
 46 689 l 1,6,-1
 128 689 l 1,7,-1
 128 73 l 1,8,-1
 261 73 l 1,9,-1
 261 689 l 1,10,-1
 339 689 l 1,11,-1
 339 73 l 1,12,-1
 472 73 l 1,13,-1
 472 689 l 1,14,-1
 554 689 l 1,15,-1
 554 73 l 1,0,-1
EndSplineSet
EndChar

StartChar: uni040F
Encoding: 1039 1039 316
Width: 600
GlyphClass: 2
Flags: W
AnchorPoint: "Anchor-3" 0 0 basechar 0
AnchorPoint: "Anchor-2" 300 0 basechar 0
LayerCount: 2
Fore
SplineSet
517 689 m 1,0,-1
 517 0 l 1,1,-1
 342 0 l 1,2,-1
 342 -147 l 1,3,-1
 273 -147 l 1,4,-1
 259 0 l 1,5,-1
 83 0 l 1,6,-1
 83 689 l 1,7,-1
 170 689 l 1,8,-1
 170 72 l 1,9,-1
 243 72 l 1,10,-1
 243 73 l 1,11,-1
 342 73 l 1,12,-1
 342 72 l 1,13,-1
 430 72 l 1,14,-1
 430 689 l 1,15,-1
 517 689 l 1,0,-1
EndSplineSet
EndChar

StartChar: uni042C
Encoding: 1068 1068 317
Width: 600
GlyphClass: 2
Flags: W
AnchorPoint: "Anchor-3" 300 689 basechar 0
AnchorPoint: "Anchor-2" 300 0 basechar 0
LayerCount: 2
Fore
SplineSet
181 433 m 1,0,-1
 285 433 l 2,1,2
 413 433 413 433 482 381.5 c 128,-1,3
 551 330 551 330 551 221 c 0,4,5
 551 107 551 107 480 53.5 c 128,-1,6
 409 0 409 0 286 0 c 2,7,-1
 94 0 l 1,8,-1
 94 689 l 1,9,-1
 181 689 l 1,10,-1
 181 433 l 1,0,-1
181 364 m 1,11,-1
 181 71 l 1,12,-1
 296 71 l 2,13,14
 374 71 374 71 416.5 103.5 c 128,-1,15
 459 136 459 136 459 220 c 0,16,17
 459 296 459 296 415.5 330 c 128,-1,18
 372 364 372 364 297 364 c 2,19,-1
 181 364 l 1,11,-1
EndSplineSet
EndChar

StartChar: uni042A
Encoding: 1066 1066 318
Width: 600
Flags: W
LayerCount: 2
Fore
SplineSet
209 433 m 1,0,-1
 315 433 l 2,1,2
 443 433 443 433 512 381.5 c 128,-1,3
 581 330 581 330 581 221 c 0,4,5
 581 106 581 106 510 53 c 128,-1,6
 439 0 439 0 316 0 c 2,7,-1
 121 0 l 1,8,-1
 121 612 l 1,9,-1
 0 612 l 1,10,-1
 0 689 l 1,11,-1
 209 689 l 1,12,-1
 209 433 l 1,0,-1
209 364 m 1,13,-1
 209 71 l 1,14,-1
 331 71 l 2,15,16
 407 71 407 71 449 103.5 c 128,-1,17
 491 136 491 136 491 220 c 0,18,19
 491 296 491 296 447.5 330 c 128,-1,20
 404 364 404 364 329 364 c 2,21,-1
 209 364 l 1,13,-1
EndSplineSet
EndChar

StartChar: uni042B
Encoding: 1067 1067 319
Width: 600
GlyphClass: 2
Flags: W
AnchorPoint: "Anchor-3" 300 689 basechar 0
AnchorPoint: "Anchor-2" 300 0 basechar 0
LayerCount: 2
Fore
SplineSet
119 433 m 1,0,-1
 182 433 l 2,1,2
 307 433 307 433 368.5 379 c 128,-1,3
 430 325 430 325 430 221 c 0,4,5
 430 111 430 111 366.5 55.5 c 128,-1,6
 303 0 303 0 184 0 c 2,7,-1
 31 0 l 1,8,-1
 31 689 l 1,9,-1
 119 689 l 1,10,-1
 119 433 l 1,0,-1
569 689 m 1,11,-1
 569 0 l 1,12,-1
 481 0 l 1,13,-1
 481 689 l 1,14,-1
 569 689 l 1,11,-1
119 367 m 1,15,-1
 119 69 l 1,16,-1
 193 69 l 2,17,18
 265 69 265 69 301.5 104.5 c 128,-1,19
 338 140 338 140 338 220 c 0,20,21
 338 367 338 367 191 367 c 2,22,-1
 119 367 l 1,15,-1
EndSplineSet
EndChar

StartChar: uni0409
Encoding: 1033 1033 320
Width: 600
GlyphClass: 2
Flags: W
AnchorPoint: "Anchor-3" 300 689 basechar 0
AnchorPoint: "Anchor-2" 300 0 basechar 0
LayerCount: 2
Fore
SplineSet
355 433 m 1,0,1
 479 433 479 433 539.5 381.5 c 128,-1,2
 600 330 600 330 600 221 c 0,3,4
 600 0 600 0 363 0 c 2,5,-1
 269 0 l 1,6,-1
 269 617 l 1,7,-1
 175 617 l 1,8,-1
 152 311 l 2,9,10
 143 192 143 192 130 131 c 128,-1,11
 117 70 117 70 98.5 42.5 c 128,-1,12
 80 15 80 15 46 -11 c 1,13,-1
 2 46 l 1,14,15
 20 66 20 66 31 90.5 c 128,-1,16
 42 115 42 115 51.5 167 c 128,-1,17
 61 219 61 219 69 313 c 2,18,-1
 99 689 l 1,19,-1
 355 689 l 1,20,-1
 355 433 l 1,0,1
355 366 m 1,21,-1
 355 70 l 1,22,-1
 370 70 l 2,23,24
 442 70 442 70 476 102 c 128,-1,25
 510 134 510 134 510 220 c 0,26,27
 510 299 510 299 475.5 332.5 c 128,-1,28
 441 366 441 366 371 366 c 2,29,-1
 355 366 l 1,21,-1
EndSplineSet
EndChar

StartChar: uni040A
Encoding: 1034 1034 321
Width: 600
GlyphClass: 2
Flags: W
AnchorPoint: "Anchor-3" 300 689 basechar 0
AnchorPoint: "Anchor-2" 300 0 basechar 0
LayerCount: 2
Fore
SplineSet
354 414 m 1,0,1
 479 414 479 414 539.5 365 c 128,-1,2
 600 316 600 316 600 212 c 0,3,4
 600 100 600 100 539 50 c 128,-1,5
 478 0 478 0 363 0 c 2,6,-1
 269 0 l 1,7,-1
 269 349 l 1,8,-1
 127 349 l 1,9,-1
 127 0 l 1,10,-1
 41 0 l 1,11,-1
 41 689 l 1,12,-1
 127 689 l 1,13,-1
 127 414 l 1,14,-1
 269 414 l 1,15,-1
 269 689 l 1,16,-1
 354 689 l 1,17,-1
 354 414 l 1,0,1
354 349 m 1,18,-1
 354 68 l 1,19,-1
 371 68 l 2,20,21
 419 68 419 68 448.5 79.5 c 128,-1,22
 478 91 478 91 493.5 122 c 128,-1,23
 509 153 509 153 509 211 c 0,24,25
 509 286 509 286 475 317.5 c 128,-1,26
 441 349 441 349 371 349 c 2,27,-1
 354 349 l 1,18,-1
EndSplineSet
EndChar

StartChar: uni0404
Encoding: 1028 1028 323
Width: 600
GlyphClass: 2
Flags: W
AnchorPoint: "Anchor-3" 300 689 basechar 0
AnchorPoint: "Anchor-2" 300 0 basechar 0
LayerCount: 2
Fore
SplineSet
463 683 m 128,-1,1
 510 666 510 666 552 633 c 1,2,-1
 507 580 l 1,3,4
 439 629 439 629 358 629 c 0,5,6
 272 629 272 629 215.5 571.5 c 128,-1,7
 159 514 159 514 149 390 c 1,8,-1
 454 390 l 1,9,-1
 454 318 l 1,10,-1
 147 318 l 1,11,12
 153 188 153 188 210 124.5 c 128,-1,13
 267 61 267 61 357 61 c 0,14,15
 450 61 450 61 516 121 c 1,16,-1
 562 64 l 1,17,18
 526 31 526 31 474.5 10 c 128,-1,19
 423 -11 423 -11 354 -11 c 0,20,21
 267 -11 267 -11 200 30 c 128,-1,22
 133 71 133 71 95.5 151.5 c 128,-1,23
 58 232 58 232 58 345 c 0,24,25
 58 457 58 457 97.5 537.5 c 128,-1,26
 137 618 137 618 204 659 c 128,-1,27
 271 700 271 700 352 700 c 0,28,0
 416 700 416 700 463 683 c 128,-1,1
EndSplineSet
EndChar

StartChar: uni042D
Encoding: 1069 1069 324
Width: 600
GlyphClass: 2
Flags: W
AnchorPoint: "Anchor-3" 289 689 basechar 0
AnchorPoint: "Anchor-2" 300 0 basechar 0
LayerCount: 2
Fore
SplineSet
467.5 612 m 128,-1,1
 539 524 539 524 539 353 c 0,2,3
 539 176 539 176 465 82.5 c 128,-1,4
 391 -11 391 -11 261 -11 c 0,5,6
 195 -11 195 -11 138 12.5 c 128,-1,7
 81 36 81 36 42 77 c 1,8,-1
 94 126 l 1,9,10
 131 93 131 93 169.5 77 c 128,-1,11
 208 61 208 61 256 61 c 0,12,13
 347 61 347 61 395 123.5 c 128,-1,14
 443 186 443 186 449 317 c 1,15,-1
 146 317 l 1,16,-1
 146 391 l 1,17,-1
 449 391 l 1,18,19
 442 517 442 517 396 573 c 128,-1,20
 350 629 350 629 265 629 c 0,21,22
 212 629 212 629 173.5 611.5 c 128,-1,23
 135 594 135 594 98 564 c 1,24,-1
 50 615 l 1,25,26
 148 700 148 700 269 700 c 0,27,0
 396 700 396 700 467.5 612 c 128,-1,1
EndSplineSet
EndChar

StartChar: uni040B
Encoding: 1035 1035 328
Width: 600
Flags: W
LayerCount: 2
Fore
SplineSet
404 616 m 1,0,-1
 244 616 l 1,1,-1
 244 390 l 1,2,3
 306 450 306 450 388 450 c 0,4,5
 566 450 566 450 566 246 c 2,6,-1
 566 0 l 1,7,-1
 480 0 l 1,8,-1
 480 240 l 2,9,10
 480 312 480 312 454.5 343 c 128,-1,11
 429 374 429 374 369 374 c 0,12,13
 327 374 327 374 297.5 359 c 128,-1,14
 268 344 268 344 244 321 c 1,15,-1
 244 0 l 1,16,-1
 157 0 l 1,17,-1
 157 616 l 1,18,-1
 -5 616 l 1,19,-1
 -5 689 l 1,20,-1
 413 689 l 1,21,-1
 404 616 l 1,0,-1
EndSplineSet
EndChar

StartChar: uni042E
Encoding: 1070 1070 329
Width: 600
GlyphClass: 2
Flags: W
AnchorPoint: "Anchor-3" 300 689 basechar 0
AnchorPoint: "Anchor-2" 300 0 basechar 0
LayerCount: 2
Fore
SplineSet
536 613 m 128,-1,1
 579 526 579 526 579 344 c 0,2,3
 579 168 579 168 533.5 78.5 c 128,-1,4
 488 -11 488 -11 388 -11 c 0,5,6
 286 -11 286 -11 243 75 c 128,-1,7
 200 161 200 161 198 321 c 1,8,-1
 130 321 l 1,9,-1
 130 0 l 1,10,-1
 47 0 l 1,11,-1
 47 689 l 1,12,-1
 130 689 l 1,13,-1
 130 393 l 1,14,-1
 199 393 l 1,15,16
 205 547 205 547 249 623.5 c 128,-1,17
 293 700 293 700 388 700 c 0,18,0
 493 700 493 700 536 613 c 128,-1,1
328.5 602 m 128,-1,20
 307 575 307 575 297 513.5 c 128,-1,21
 287 452 287 452 287 345 c 0,22,23
 287 237 287 237 297 175.5 c 128,-1,24
 307 114 307 114 328.5 87 c 128,-1,25
 350 60 350 60 388 60 c 0,26,27
 424 60 424 60 446 87 c 128,-1,28
 468 114 468 114 479 176 c 128,-1,29
 490 238 490 238 490 344 c 0,30,31
 490 449 490 449 479 511.5 c 128,-1,32
 468 574 468 574 446 601.5 c 128,-1,33
 424 629 424 629 388 629 c 0,34,19
 350 629 350 629 328.5 602 c 128,-1,20
EndSplineSet
EndChar

StartChar: uni042F
Encoding: 1071 1071 330
Width: 600
GlyphClass: 2
Flags: W
AnchorPoint: "Anchor-3" 300 689 basechar 0
AnchorPoint: "Anchor-2" 300 0 basechar 0
LayerCount: 2
Fore
SplineSet
517 0 m 1,0,-1
 430 0 l 1,1,-1
 430 277 l 1,2,-1
 277 277 l 1,3,-1
 131 0 l 1,4,-1
 33 0 l 1,5,-1
 195 297 l 1,6,7
 136 324 136 324 105.5 372.5 c 128,-1,8
 75 421 75 421 75 484 c 0,9,10
 75 582 75 582 142 635.5 c 128,-1,11
 209 689 209 689 336 689 c 2,12,-1
 517 689 l 1,13,-1
 517 0 l 1,0,-1
325 619 m 2,14,15
 245 619 245 619 206.5 586.5 c 128,-1,16
 168 554 168 554 168 485 c 0,17,18
 168 347 168 347 307 347 c 2,19,-1
 430 347 l 1,20,-1
 430 619 l 1,21,-1
 325 619 l 2,14,15
EndSplineSet
EndChar

StartChar: uni0402
Encoding: 1026 1026 331
Width: 600
GlyphClass: 2
Flags: W
AnchorPoint: "Anchor-3" 300 689 basechar 0
AnchorPoint: "Anchor-2" 300 -200 basechar 0
LayerCount: 2
Fore
SplineSet
244 390 m 1,0,1
 309 450 309 450 388 450 c 0,2,3
 566 450 566 450 566 246 c 2,4,-1
 566 96 l 2,5,6
 566 -3 566 -3 523.5 -54 c 128,-1,7
 481 -105 481 -105 393 -135 c 1,8,-1
 371 -66 l 1,9,10
 415 -48 415 -48 438.5 -28 c 128,-1,11
 462 -8 462 -8 471 20.5 c 128,-1,12
 480 49 480 49 480 95 c 2,13,-1
 480 240 l 2,14,15
 480 312 480 312 454.5 343 c 128,-1,16
 429 374 429 374 369 374 c 0,17,18
 327 374 327 374 297.5 359 c 128,-1,19
 268 344 268 344 244 321 c 1,20,-1
 244 0 l 1,21,-1
 157 0 l 1,22,-1
 157 616 l 1,23,-1
 -5 616 l 1,24,-1
 -5 689 l 1,25,-1
 413 689 l 1,26,-1
 404 616 l 1,27,-1
 244 616 l 1,28,-1
 244 390 l 1,0,1
EndSplineSet
EndChar

StartChar: uni0460
Encoding: 1120 1120 332
Width: 600
Flags: W
LayerCount: 2
Fore
SplineSet
564.5 515.5 m 128,-1,1
 585 425 585 425 585 298 c 0,2,3
 585 -11 585 -11 423 -11 c 0,4,5
 376 -11 376 -11 346.5 15 c 128,-1,6
 317 41 317 41 301 93 c 1,7,8
 285 41 285 41 256.5 15 c 128,-1,9
 228 -11 228 -11 180 -11 c 0,10,11
 137 -11 137 -11 100 19.5 c 128,-1,12
 63 50 63 50 40 119 c 128,-1,13
 17 188 17 188 17 298 c 0,14,15
 17 387 17 387 28.5 461 c 128,-1,16
 40 535 40 535 53.5 581.5 c 128,-1,17
 67 628 67 628 88 689 c 1,18,-1
 172 689 l 1,19,20
 137 597 137 597 119.5 507 c 128,-1,21
 102 417 102 417 102 302 c 0,22,23
 102 60 102 60 194 60 c 0,24,25
 222 60 222 60 240 86 c 128,-1,26
 258 112 258 112 258 169 c 2,27,-1
 258 398 l 1,28,-1
 343 398 l 1,29,-1
 343 170 l 2,30,31
 343 114 343 114 363 87 c 128,-1,32
 383 60 383 60 413 60 c 0,33,34
 454 60 454 60 476.5 110 c 128,-1,35
 499 160 499 160 499 299 c 0,36,37
 499 413 499 413 481 502 c 128,-1,38
 463 591 463 591 429 689 c 1,39,-1
 513 689 l 1,40,0
 544 606 544 606 564.5 515.5 c 128,-1,1
EndSplineSet
EndChar

StartChar: uni0462
Encoding: 1122 1122 333
Width: 600
GlyphClass: 2
Flags: W
AnchorPoint: "Anchor-3" 300 689 basechar 0
AnchorPoint: "Anchor-2" 300 0 basechar 0
LayerCount: 2
Fore
SplineSet
500 375.5 m 128,-1,1
 568 323 568 323 568 221 c 0,2,3
 568 109 568 109 496 54.5 c 128,-1,4
 424 0 424 0 300 0 c 2,5,-1
 154 0 l 1,6,-1
 154 530 l 1,7,-1
 10 530 l 1,8,-1
 10 595 l 1,9,-1
 154 595 l 1,10,-1
 154 689 l 1,11,-1
 241 689 l 1,12,-1
 241 595 l 1,13,-1
 394 595 l 1,14,-1
 394 530 l 1,15,-1
 241 530 l 1,16,-1
 241 428 l 1,17,-1
 312 428 l 2,18,0
 432 428 432 428 500 375.5 c 128,-1,1
432 104 m 128,-1,20
 475 137 475 137 475 219 c 0,21,22
 475 294 475 294 433.5 327 c 128,-1,23
 392 360 392 360 314 360 c 2,24,-1
 241 360 l 1,25,-1
 241 71 l 1,26,-1
 310 71 l 2,27,19
 389 71 389 71 432 104 c 128,-1,20
EndSplineSet
EndChar

StartChar: uni0464
Encoding: 1124 1124 334
Width: 600
GlyphClass: 2
Flags: W
AnchorPoint: "Anchor-3" 300 689 basechar 0
AnchorPoint: "Anchor-2" 300 0 basechar 0
LayerCount: 2
Fore
SplineSet
595 37 m 1,0,1
 565 14 565 14 530.5 1.5 c 128,-1,2
 496 -11 496 -11 446 -11 c 0,3,4
 335 -11 335 -11 269 74 c 128,-1,5
 203 159 203 159 197 318 c 1,6,-1
 128 318 l 1,7,-1
 128 0 l 1,8,-1
 40 0 l 1,9,-1
 40 688 l 1,10,-1
 128 688 l 1,11,-1
 128 393 l 1,12,-1
 199 393 l 1,13,14
 209 541 209 541 276.5 620.5 c 128,-1,15
 344 700 344 700 451 700 c 0,16,17
 496 700 496 700 526.5 690 c 128,-1,18
 557 680 557 680 588 659 c 1,19,-1
 546 602 l 1,20,21
 522 616 522 616 502 622 c 128,-1,22
 482 628 482 628 453 628 c 0,23,24
 307 628 307 628 288 391 c 1,25,-1
 517 391 l 1,26,-1
 517 317 l 1,27,-1
 286 317 l 1,28,29
 293 186 293 186 335 124 c 128,-1,30
 377 62 377 62 449 62 c 0,31,32
 483 62 483 62 504 70 c 128,-1,33
 525 78 525 78 554 95 c 1,34,-1
 595 37 l 1,0,1
EndSplineSet
EndChar

StartChar: uni0466
Encoding: 1126 1126 335
Width: 600
GlyphClass: 2
Flags: W
AnchorPoint: "Anchor-3" 300 689 basechar 0
AnchorPoint: "Anchor-2" 300 0 basechar 0
LayerCount: 2
Fore
SplineSet
486 0 m 1,0,-1
 397 290 l 1,1,-1
 339 290 l 1,2,-1
 339 0 l 1,3,-1
 257 0 l 1,4,-1
 257 290 l 1,5,-1
 199 290 l 1,6,-1
 110 0 l 1,7,-1
 20 0 l 1,8,-1
 245 689 l 1,9,-1
 355 689 l 1,10,-1
 579 0 l 1,11,-1
 486 0 l 1,0,-1
222 364 m 1,12,-1
 374 364 l 1,13,-1
 298 612 l 1,14,-1
 222 364 l 1,12,-1
EndSplineSet
EndChar

StartChar: uni0468
Encoding: 1128 1128 336
Width: 600
GlyphClass: 2
Flags: W
AnchorPoint: "Anchor-3" 300 689 basechar 0
AnchorPoint: "Anchor-2" 300 0 basechar 0
LayerCount: 2
Fore
SplineSet
514 0 m 1,0,-1
 450 291 l 1,1,-1
 413 291 l 1,2,-1
 413 0 l 1,3,-1
 340 0 l 1,4,-1
 340 291 l 1,5,-1
 304 291 l 1,6,-1
 239 0 l 1,7,-1
 158 0 l 1,8,-1
 228 291 l 1,9,-1
 123 291 l 1,10,-1
 123 0 l 1,11,-1
 37 0 l 1,12,-1
 37 689 l 1,13,-1
 123 689 l 1,14,-1
 123 360 l 1,15,-1
 230 360 l 1,16,-1
 232 310 l 1,17,-1
 233 312 l 1,18,-1
 323 689 l 1,19,-1
 434 689 l 1,20,-1
 599 0 l 1,21,-1
 514 0 l 1,0,-1
319 360 m 1,22,-1
 435 360 l 1,23,-1
 377 621 l 1,24,-1
 319 360 l 1,22,-1
EndSplineSet
EndChar

StartChar: uni046A
Encoding: 1130 1130 337
Width: 600
GlyphClass: 2
Flags: W
AnchorPoint: "Anchor-3" 300 689 basechar 0
AnchorPoint: "Anchor-2" 300 0 basechar 0
LayerCount: 2
Fore
SplineSet
459 379 m 1,0,-1
 562 0 l 1,1,-1
 482 0 l 1,2,-1
 400 311 l 1,3,-1
 343 311 l 1,4,-1
 343 0 l 1,5,-1
 258 0 l 1,6,-1
 258 311 l 1,7,-1
 201 311 l 1,8,-1
 118 0 l 1,9,-1
 38 0 l 1,10,-1
 150 379 l 1,11,-1
 222 379 l 1,12,-1
 93 631 l 1,13,-1
 93 689 l 1,14,-1
 513 689 l 1,15,-1
 513 631 l 1,16,-1
 379 379 l 1,17,-1
 459 379 l 1,0,-1
183 626 m 1,18,-1
 303 379 l 1,19,-1
 426 626 l 1,20,-1
 183 626 l 1,18,-1
EndSplineSet
EndChar

StartChar: uni046C
Encoding: 1132 1132 338
Width: 600
GlyphClass: 2
Flags: W
AnchorPoint: "Anchor-3" 300 689 basechar 0
AnchorPoint: "Anchor-2" 300 0 basechar 0
LayerCount: 2
Fore
SplineSet
528 379 m 1,0,-1
 628 0 l 1,1,-1
 546 0 l 1,2,-1
 469 311 l 1,3,-1
 423 311 l 1,4,-1
 423 0 l 1,5,-1
 337 0 l 1,6,-1
 337 311 l 1,7,-1
 291 311 l 1,8,-1
 213 0 l 1,9,-1
 131 0 l 1,10,-1
 220 311 l 1,11,-1
 104 311 l 1,12,-1
 104 0 l 1,13,-1
 18 0 l 1,14,-1
 18 689 l 1,15,-1
 104 689 l 1,16,-1
 104 379 l 1,17,-1
 304 379 l 1,18,-1
 190 631 l 1,19,-1
 190 689 l 1,20,-1
 574 689 l 1,21,-1
 574 631 l 1,22,-1
 455 379 l 1,23,-1
 528 379 l 1,0,-1
490 625 m 1,24,-1
 277 625 l 1,25,-1
 383 379 l 1,26,-1
 490 625 l 1,24,-1
EndSplineSet
EndChar

StartChar: uni046E
Encoding: 1134 1134 339
Width: 600
GlyphClass: 2
Flags: W
AnchorPoint: "Anchor-3" 283 689 basechar 0
AnchorPoint: "Anchor-2" 0 0 basechar 0
LayerCount: 2
Fore
SplineSet
312 754 m 1,0,-1
 255 754 l 1,1,-1
 120 862 l 1,2,-1
 158 905 l 1,3,-1
 283 824 l 1,4,-1
 409 905 l 1,5,-1
 446 862 l 1,6,-1
 312 754 l 1,0,-1
459.5 323.5 m 128,-1,8
 518 271 518 271 518 177 c 0,9,10
 518 86 518 86 458.5 31.5 c 128,-1,11
 399 -23 399 -23 307 -32 c 0,12,13
 256 -38 256 -38 229.5 -44.5 c 128,-1,14
 203 -51 203 -51 192.5 -60 c 128,-1,15
 182 -69 182 -69 182 -85 c 0,16,17
 182 -104 182 -104 200.5 -121.5 c 128,-1,18
 219 -139 219 -139 255 -158 c 1,19,-1
 223 -214 l 1,20,21
 160 -186 160 -186 128 -153 c 128,-1,22
 96 -120 96 -120 96 -78 c 0,23,24
 96 -29 96 -29 137 -1.5 c 128,-1,25
 178 26 178 26 263 34 c 0,26,27
 427 50 427 50 427 177 c 0,28,29
 427 248 427 248 389.5 279.5 c 128,-1,30
 352 311 352 311 275 311 c 2,31,-1
 169 311 l 1,32,-1
 169 375 l 1,33,-1
 380 616 l 1,34,-1
 82 616 l 1,35,-1
 82 689 l 1,36,-1
 484 689 l 1,37,-1
 484 616 l 1,38,-1
 264 376 l 1,39,-1
 291 376 l 2,40,7
 401 376 401 376 459.5 323.5 c 128,-1,8
EndSplineSet
EndChar

StartChar: uni0474
Encoding: 1140 1140 342
Width: 600
GlyphClass: 2
Flags: W
AnchorPoint: "Anchor-3" 289 689 basechar 0
AnchorPoint: "Anchor-2" 300 0 basechar 0
LayerCount: 2
Fore
SplineSet
532 633 m 0,1,2
 513 633 513 633 501.5 620 c 128,-1,3
 490 607 490 607 482 579 c 2,4,-1
 328 0 l 1,5,-1
 232 0 l 1,6,-1
 28 689 l 1,7,-1
 121 689 l 1,8,-1
 279 100 l 1,9,-1
 404 591 l 2,10,11
 419 648 419 648 447 674 c 128,-1,12
 475 700 475 700 522 700 c 0,13,14
 556 700 556 700 594 682 c 1,15,-1
 566 626 l 1,16,0
 545 633 545 633 532 633 c 0,1,2
EndSplineSet
EndChar

StartChar: uni0478
Encoding: 1144 1144 344
Width: 600
Flags: W
LayerCount: 2
Fore
SplineSet
45 78 m 128,-1,1
 9 167 9 167 9 343 c 0,2,3
 9 517 9 517 45 608.5 c 128,-1,4
 81 700 81 700 164 700 c 256,5,6
 247 700 247 700 283.5 609.5 c 128,-1,7
 320 519 320 519 320 344 c 0,8,9
 320 168 320 168 283.5 78.5 c 128,-1,10
 247 -11 247 -11 164 -11 c 256,11,0
 81 -11 81 -11 45 78 c 128,-1,1
210 84.5 m 128,-1,13
 226 114 226 114 232.5 176 c 128,-1,14
 239 238 239 238 239 344 c 0,15,16
 239 449 239 449 232.5 511 c 128,-1,17
 226 573 226 573 210 603 c 128,-1,18
 194 633 194 633 164 633 c 0,19,20
 135 633 135 633 119 603 c 128,-1,21
 103 573 103 573 96.5 510.5 c 128,-1,22
 90 448 90 448 90 343 c 0,23,24
 90 188 90 188 106.5 121.5 c 128,-1,25
 123 55 123 55 164 55 c 0,26,12
 194 55 194 55 210 84.5 c 128,-1,13
338 -148 m 1,27,28
 382 -135 382 -135 407.5 -100.5 c 128,-1,29
 433 -66 433 -66 443 0 c 1,30,-1
 408 0 l 1,31,-1
 324 527 l 1,32,-1
 400 527 l 1,33,-1
 461 64 l 1,34,-1
 517 527 l 1,35,-1
 594 527 l 1,36,-1
 511 -3 l 2,37,38
 497 -91 497 -91 456.5 -141.5 c 128,-1,39
 416 -192 416 -192 349 -212 c 1,40,-1
 338 -148 l 1,27,28
EndSplineSet
EndChar

StartChar: uni0492
Encoding: 1170 1170 345
Width: 600
GlyphClass: 2
Flags: W
AnchorPoint: "Anchor-3" 380 689 basechar 0
AnchorPoint: "Anchor-2" 211 0 basechar 0
LayerCount: 2
Fore
SplineSet
566 612 m 1,0,-1
 254 612 l 1,1,-1
 254 433 l 1,2,-1
 411 433 l 1,3,-1
 411 366 l 1,4,-1
 254 366 l 1,5,-1
 254 0 l 1,6,-1
 167 0 l 1,7,-1
 167 366 l 1,8,-1
 66 366 l 1,9,-1
 66 433 l 1,10,-1
 167 433 l 1,11,-1
 167 689 l 1,12,-1
 575 689 l 1,13,-1
 566 612 l 1,0,-1
EndSplineSet
EndChar

StartChar: uni0494
Encoding: 1172 1172 346
Width: 600
GlyphClass: 2
Flags: W
AnchorPoint: "Anchor-3" 300 689 basechar 0
AnchorPoint: "Anchor-2" 300 -200 basechar 0
LayerCount: 2
Fore
SplineSet
496 392.5 m 128,-1,1
 549 335 549 335 549 235 c 2,2,-1
 549 -61 l 2,3,4
 549 -134 549 -134 510.5 -172.5 c 128,-1,5
 472 -211 472 -211 404 -211 c 0,6,7
 340 -211 340 -211 291 -174 c 1,8,-1
 325 -117 l 1,9,10
 344 -130 344 -130 360 -135.5 c 128,-1,11
 376 -141 376 -141 400 -141 c 0,12,13
 462 -141 462 -141 462 -66 c 2,14,-1
 462 234 l 2,15,16
 462 302 462 302 431 338 c 128,-1,17
 400 374 400 374 338 374 c 0,18,19
 285 374 285 374 246 354 c 128,-1,20
 207 334 207 334 171 294 c 1,21,-1
 171 0 l 1,22,-1
 84 0 l 1,23,-1
 84 689 l 1,24,-1
 469 689 l 1,25,-1
 458 616 l 1,26,-1
 171 616 l 1,27,-1
 171 374 l 1,28,29
 207 411 207 411 251.5 430.5 c 128,-1,30
 296 450 296 450 353 450 c 0,31,0
 443 450 443 450 496 392.5 c 128,-1,1
EndSplineSet
EndChar

StartChar: uni0496
Encoding: 1174 1174 347
Width: 600
GlyphClass: 2
Flags: W
AnchorPoint: "Anchor-3" 300 689 basechar 0
AnchorPoint: "Anchor-2" 300 0 basechar 0
LayerCount: 2
Fore
SplineSet
563 73 m 1,0,-1
 610 73 l 1,1,-1
 610 -147 l 1,2,-1
 539 -147 l 1,3,-1
 524 0 l 1,4,-1
 500 0 l 1,5,-1
 501 5 l 1,6,-1
 399 327 l 1,7,-1
 339 327 l 1,8,-1
 339 0 l 1,9,-1
 261 0 l 1,10,-1
 261 327 l 1,11,-1
 200 327 l 1,12,-1
 96 0 l 1,13,-1
 12 0 l 1,14,-1
 135 364 l 1,15,-1
 27 689 l 1,16,-1
 110 689 l 1,17,-1
 201 398 l 1,18,-1
 261 398 l 1,19,-1
 261 689 l 1,20,-1
 339 689 l 1,21,-1
 339 398 l 1,22,-1
 399 398 l 1,23,-1
 491 689 l 1,24,-1
 573 689 l 1,25,-1
 465 364 l 1,26,-1
 563 73 l 1,0,-1
EndSplineSet
EndChar

StartChar: uni0498
Encoding: 1176 1176 348
Width: 600
GlyphClass: 2
Flags: W
AnchorPoint: "Anchor-3" 298 689 basechar 0
AnchorPoint: "Anchor-2" 294 0 basechar 0
LayerCount: 2
Fore
SplineSet
513.5 101.5 m 128,-1,1
 486 55 486 55 434.5 26 c 128,-1,2
 383 -3 383 -3 314 -9 c 1,3,-1
 314 -57 l 1,4,5
 360 -61 360 -61 383.5 -84.5 c 128,-1,6
 407 -108 407 -108 407 -140 c 0,7,8
 407 -187 407 -187 371.5 -212.5 c 128,-1,9
 336 -238 336 -238 285 -238 c 0,10,11
 255 -238 255 -238 227.5 -231.5 c 128,-1,12
 200 -225 200 -225 180 -214 c 1,13,-1
 207 -166 l 1,14,15
 237 -182 237 -182 274 -182 c 0,16,17
 334 -182 334 -182 334 -141 c 0,18,19
 334 -115 334 -115 313 -106 c 128,-1,20
 292 -97 292 -97 248 -97 c 1,21,-1
 254 -10 l 1,22,23
 188 -6 188 -6 132 18.5 c 128,-1,24
 76 43 76 43 35 86 c 1,25,-1
 89 135 l 1,26,27
 171 62 171 62 278 62 c 0,28,29
 358 62 358 62 402.5 99 c 128,-1,30
 447 136 447 136 447 202 c 256,31,32
 447 268 447 268 403 300.5 c 128,-1,33
 359 333 359 333 286 333 c 2,34,-1
 165 333 l 1,35,-1
 175 406 l 1,36,-1
 280 406 l 2,37,38
 343 406 343 406 385.5 434.5 c 128,-1,39
 428 463 428 463 428 519 c 0,40,41
 428 572 428 572 386.5 600.5 c 128,-1,42
 345 629 345 629 279 629 c 0,43,44
 225 629 225 629 182 612.5 c 128,-1,45
 139 596 139 596 97 563 c 1,46,-1
 49 614 l 1,47,48
 101 657 101 657 157.5 678.5 c 128,-1,49
 214 700 214 700 281 700 c 0,50,51
 353 700 353 700 406.5 677.5 c 128,-1,52
 460 655 460 655 488.5 614 c 128,-1,53
 517 573 517 573 517 520 c 0,54,55
 517 459 517 459 477 421.5 c 128,-1,56
 437 384 437 384 375 375 c 1,57,58
 445 369 445 369 493 324.5 c 128,-1,59
 541 280 541 280 541 205 c 0,60,0
 541 148 541 148 513.5 101.5 c 128,-1,1
EndSplineSet
EndChar

StartChar: uni049A
Encoding: 1178 1178 349
Width: 600
GlyphClass: 2
Flags: W
AnchorPoint: "Anchor-3" 320 689 basechar 0
AnchorPoint: "Anchor-2" 300 0 basechar 0
LayerCount: 2
Fore
SplineSet
587 0 m 1,0,-1
 586 0 l 1,1,-1
 586 -147 l 1,2,-1
 517 -147 l 1,3,-1
 503 0 l 1,4,-1
 481 0 l 1,5,-1
 481 1 l 1,6,-1
 261 326 l 1,7,-1
 181 326 l 1,8,-1
 181 0 l 1,9,-1
 95 0 l 1,10,-1
 95 689 l 1,11,-1
 181 689 l 1,12,-1
 181 399 l 1,13,-1
 262 399 l 1,14,-1
 474 689 l 1,15,-1
 568 689 l 1,16,-1
 336 364 l 1,17,-1
 537 73 l 1,18,-1
 586 73 l 1,19,-1
 586 1 l 1,20,-1
 587 0 l 1,0,-1
EndSplineSet
EndChar

StartChar: uni049C
Encoding: 1180 1180 350
Width: 600
GlyphClass: 2
Flags: W
AnchorPoint: "Anchor-3" 300 689 basechar 0
AnchorPoint: "Anchor-2" 300 0 basechar 0
LayerCount: 2
Fore
SplineSet
228 150 m 1,0,-1
 228 326 l 1,1,-1
 180 326 l 1,2,-1
 180 0 l 1,3,-1
 95 0 l 1,4,-1
 95 689 l 1,5,-1
 180 689 l 1,6,-1
 180 398 l 1,7,-1
 228 398 l 1,8,-1
 228 570 l 1,9,-1
 282 570 l 1,10,-1
 282 398 l 1,11,-1
 308 398 l 1,12,-1
 477 689 l 1,13,-1
 568 689 l 1,14,-1
 376 364 l 1,15,-1
 587 0 l 1,16,-1
 490 0 l 1,17,-1
 308 326 l 1,18,-1
 282 326 l 1,19,-1
 282 150 l 1,20,-1
 228 150 l 1,0,-1
EndSplineSet
EndChar

StartChar: uni049E
Encoding: 1182 1182 351
Width: 600
Flags: W
LayerCount: 2
Fore
SplineSet
353 364 m 1,0,-1
 584 0 l 1,1,-1
 479 0 l 1,2,-1
 278 326 l 1,3,-1
 198 326 l 1,4,-1
 198 0 l 1,5,-1
 112 0 l 1,6,-1
 112 523 l 1,7,-1
 37 523 l 1,8,-1
 37 593 l 1,9,-1
 112 593 l 1,10,-1
 112 689 l 1,11,-1
 198 689 l 1,12,-1
 198 593 l 1,13,-1
 313 593 l 1,14,-1
 313 523 l 1,15,-1
 198 523 l 1,16,-1
 198 399 l 1,17,-1
 280 399 l 1,18,-1
 471 689 l 1,19,-1
 565 689 l 1,20,-1
 353 364 l 1,0,-1
EndSplineSet
EndChar

StartChar: uni04A0
Encoding: 1184 1184 352
Width: 600
Flags: W
LayerCount: 2
Fore
SplineSet
289 325 m 1,0,-1
 220 325 l 1,1,-1
 220 0 l 1,2,-1
 132 0 l 1,3,-1
 132 612 l 1,4,-1
 11 612 l 1,5,-1
 11 689 l 1,6,-1
 220 689 l 1,7,-1
 220 399 l 1,8,-1
 291 399 l 1,9,-1
 486 689 l 1,10,-1
 580 689 l 1,11,-1
 365 364 l 1,12,-1
 599 0 l 1,13,-1
 494 0 l 1,14,-1
 289 325 l 1,0,-1
EndSplineSet
EndChar

StartChar: uni04A2
Encoding: 1186 1186 353
Width: 600
GlyphClass: 2
Flags: W
AnchorPoint: "Anchor-3" 300 689 basechar 0
AnchorPoint: "Anchor-2" 300 0 basechar 0
LayerCount: 2
Fore
SplineSet
517 73 m 1,0,-1
 578 73 l 1,1,-1
 578 -147 l 1,2,-1
 509 -147 l 1,3,-1
 495 0 l 1,4,-1
 430 0 l 1,5,-1
 430 327 l 1,6,-1
 170 327 l 1,7,-1
 170 0 l 1,8,-1
 83 0 l 1,9,-1
 83 689 l 1,10,-1
 170 689 l 1,11,-1
 170 398 l 1,12,-1
 430 398 l 1,13,-1
 430 689 l 1,14,-1
 517 689 l 1,15,-1
 517 73 l 1,0,-1
EndSplineSet
EndChar

StartChar: uni04A4
Encoding: 1188 1188 354
Width: 600
Flags: W
LayerCount: 2
Fore
SplineSet
604 689 m 1,0,-1
 596 617 l 1,1,-1
 462 617 l 1,2,-1
 462 0 l 1,3,-1
 375 0 l 1,4,-1
 375 327 l 1,5,-1
 154 327 l 1,6,-1
 154 0 l 1,7,-1
 68 0 l 1,8,-1
 68 689 l 1,9,-1
 154 689 l 1,10,-1
 154 398 l 1,11,-1
 375 398 l 1,12,-1
 375 689 l 1,13,-1
 604 689 l 1,0,-1
EndSplineSet
EndChar

StartChar: uni04A6
Encoding: 1190 1190 355
Width: 600
GlyphClass: 2
Flags: W
AnchorPoint: "Anchor-3" 300 689 basechar 0
AnchorPoint: "Anchor-2" 300 -200 basechar 0
LayerCount: 2
Fore
SplineSet
554 408.5 m 128,-1,1
 593 366 593 366 593 294 c 2,2,-1
 593 -58 l 2,3,4
 593 -132 593 -132 553 -171.5 c 128,-1,5
 513 -211 513 -211 448 -211 c 0,6,7
 384 -211 384 -211 335 -174 c 1,8,-1
 369 -117 l 1,9,10
 390 -129 390 -129 405.5 -134.5 c 128,-1,11
 421 -140 421 -140 444 -140 c 0,12,13
 506 -140 506 -140 506 -65 c 2,14,-1
 506 295 l 2,15,16
 506 374 506 374 436 374 c 0,17,18
 390 374 390 374 348 338 c 1,19,-1
 348 0 l 1,20,-1
 261 0 l 1,21,-1
 261 611 l 1,22,-1
 114 611 l 1,23,-1
 114 0 l 1,24,-1
 27 0 l 1,25,-1
 27 689 l 1,26,-1
 348 689 l 1,27,-1
 348 411 l 1,28,29
 391 451 391 451 449 451 c 0,30,0
 515 451 515 451 554 408.5 c 128,-1,1
EndSplineSet
EndChar

StartChar: uni0524
Encoding: 1316 1316 356
Width: 600
GlyphClass: 2
Flags: W
AnchorPoint: "Anchor-3" 300 689 basechar 0
AnchorPoint: "Anchor-2" 300 0 basechar 0
LayerCount: 2
Fore
SplineSet
517 73 m 1,0,-1
 578 73 l 1,1,-1
 578 -147 l 1,2,-1
 509 -147 l 1,3,-1
 495 0 l 1,4,-1
 430 0 l 1,5,-1
 430 613 l 1,6,-1
 170 613 l 1,7,-1
 170 0 l 1,8,-1
 83 0 l 1,9,-1
 83 689 l 1,10,-1
 517 689 l 1,11,-1
 517 73 l 1,0,-1
EndSplineSet
EndChar

StartChar: uni04A8
Encoding: 1192 1192 357
Width: 600
GlyphClass: 2
Flags: W
AnchorPoint: "Anchor-3" 300 689 basechar 0
AnchorPoint: "Anchor-2" 300 -200 basechar 0
LayerCount: 2
Fore
SplineSet
547.5 124.5 m 128,-1,1
 513 60 513 60 451 24 c 1,2,-1
 478 -10 l 2,3,4
 515 -56 515 -56 529 -76 c 1,5,-1
 472 -119 l 1,6,-1
 430 -66 l 2,7,8
 396 -24 396 -24 381 -4 c 1,9,10
 344 -11 344 -11 314 -11 c 0,11,12
 230 -11 230 -11 167 30 c 128,-1,13
 104 71 104 71 69.5 151 c 128,-1,14
 35 231 35 231 35 345 c 0,15,16
 35 457 35 457 72 537.5 c 128,-1,17
 109 618 109 618 171 659 c 128,-1,18
 233 700 233 700 305 700 c 0,19,20
 364 700 364 700 405.5 684 c 128,-1,21
 447 668 447 668 489 633 c 1,22,-1
 444 576 l 1,23,24
 410 602 410 602 377.5 614.5 c 128,-1,25
 345 627 345 627 308 627 c 0,26,27
 231 627 231 627 180 559.5 c 128,-1,28
 129 492 129 492 129 345 c 0,29,30
 129 200 129 200 179 132.5 c 128,-1,31
 229 65 229 65 317 65 c 2,32,-1
 330 65 l 1,33,34
 296 117 296 117 277.5 162.5 c 128,-1,35
 259 208 259 208 259 254 c 0,36,37
 259 304 259 304 279.5 344 c 128,-1,38
 300 384 300 384 337 407.5 c 128,-1,39
 374 431 374 431 421 431 c 0,40,41
 497 431 497 431 539.5 383.5 c 128,-1,42
 582 336 582 336 582 259 c 0,43,0
 582 189 582 189 547.5 124.5 c 128,-1,1
360 168 m 128,-1,45
 375 128 375 128 405 84 c 1,46,47
 448 106 448 106 470 151 c 128,-1,48
 492 196 492 196 493 260 c 0,49,50
 493 361 493 361 421 361 c 0,51,52
 384 361 384 361 364.5 333 c 128,-1,53
 345 305 345 305 345 255 c 0,54,44
 345 208 345 208 360 168 c 128,-1,45
EndSplineSet
EndChar

StartChar: uni04AA
Encoding: 1194 1194 358
Width: 600
GlyphClass: 2
Flags: W
AnchorPoint: "Anchor-3" 365 689 basechar 0
AnchorPoint: "Anchor-2" 350 0 basechar 0
LayerCount: 2
Fore
SplineSet
468 -128 m 0,1,2
 468 -178 468 -178 434.5 -208.5 c 128,-1,3
 401 -239 401 -239 343 -239 c 0,4,5
 286 -239 286 -239 246 -214 c 1,6,-1
 268 -163 l 1,7,8
 287 -172 287 -172 301.5 -176.5 c 128,-1,9
 316 -181 316 -181 338 -181 c 0,10,11
 366 -181 366 -181 380.5 -166 c 128,-1,12
 395 -151 395 -151 395 -125 c 0,13,14
 395 -93 395 -93 375.5 -62.5 c 128,-1,15
 356 -32 356 -32 318 -8 c 1,16,17
 244 2 244 2 186.5 46 c 128,-1,18
 129 90 129 90 96 166 c 128,-1,19
 63 242 63 242 63 345 c 0,20,21
 63 457 63 457 102.5 537.5 c 128,-1,22
 142 618 142 618 209.5 659 c 128,-1,23
 277 700 277 700 358 700 c 0,24,25
 422 700 422 700 468 683.5 c 128,-1,26
 514 667 514 667 558 633 c 1,27,-1
 509 576 l 1,28,29
 448 627 448 627 364 627 c 0,30,31
 271 627 271 627 212.5 559.5 c 128,-1,32
 154 492 154 492 154 345 c 0,33,34
 154 199 154 199 211 131 c 128,-1,35
 268 63 268 63 363 63 c 0,36,37
 415 63 415 63 452 78 c 128,-1,38
 489 93 489 93 523 120 c 1,39,-1
 568 64 l 1,40,41
 502 -1 502 -1 394 -10 c 1,42,0
 468 -58 468 -58 468 -128 c 0,1,2
EndSplineSet
EndChar

StartChar: uni04AC
Encoding: 1196 1196 359
Width: 600
GlyphClass: 2
Flags: W
AnchorPoint: "Anchor-3" 299 689 basechar 0
AnchorPoint: "Anchor-2" 299 0 basechar 0
LayerCount: 2
Fore
SplineSet
550 614 m 1,0,-1
 342 614 l 1,1,-1
 342 73 l 1,2,-1
 403 73 l 1,3,-1
 403 -147 l 1,4,-1
 334 -147 l 1,5,-1
 320 0 l 1,6,-1
 255 0 l 1,7,-1
 255 614 l 1,8,-1
 40 614 l 1,9,-1
 40 689 l 1,10,-1
 559 689 l 1,11,-1
 550 614 l 1,0,-1
EndSplineSet
EndChar

StartChar: uni04B0
Encoding: 1200 1200 361
Width: 600
GlyphClass: 2
Flags: W
AnchorPoint: "Anchor-3" 303 689 basechar 0
AnchorPoint: "Anchor-2" 300 0 basechar 0
LayerCount: 2
Fore
SplineSet
577 689 m 1,0,-1
 373 319 l 1,1,-1
 472 319 l 1,2,-1
 472 251 l 1,3,-1
 344 251 l 1,4,-1
 344 0 l 1,5,-1
 256 0 l 1,6,-1
 256 251 l 1,7,-1
 128 251 l 1,8,-1
 128 319 l 1,9,-1
 226 319 l 1,10,-1
 23 689 l 1,11,-1
 119 689 l 1,12,-1
 302 343 l 1,13,-1
 487 689 l 1,14,-1
 577 689 l 1,0,-1
EndSplineSet
EndChar

StartChar: uni04B2
Encoding: 1202 1202 362
Width: 600
GlyphClass: 2
Flags: W
AnchorPoint: "Anchor-3" 300 689 basechar 0
AnchorPoint: "Anchor-2" 300 0 basechar 0
LayerCount: 2
Fore
SplineSet
526 73 m 1,0,-1
 574 73 l 1,1,-1
 574 -147 l 1,2,-1
 505 -147 l 1,3,-1
 491 0 l 1,4,-1
 469 0 l 1,5,-1
 298 311 l 1,6,-1
 124 0 l 1,7,-1
 31 0 l 1,8,-1
 247 367 l 1,9,-1
 49 689 l 1,10,-1
 149 689 l 1,11,-1
 300 424 l 1,12,-1
 452 689 l 1,13,-1
 545 689 l 1,14,-1
 350 372 l 1,15,-1
 526 73 l 1,0,-1
EndSplineSet
EndChar

StartChar: uni04B4
Encoding: 1204 1204 363
Width: 600
GlyphClass: 2
Flags: W
AnchorPoint: "Anchor-3" 300 689 basechar 0
AnchorPoint: "Anchor-2" 300 -200 basechar 0
LayerCount: 2
Fore
SplineSet
514 73 m 1,0,-1
 564 73 l 1,1,-1
 564 -147 l 1,2,-1
 493 -147 l 1,3,-1
 478 0 l 1,4,-1
 128 0 l 1,5,-1
 128 617 l 1,6,-1
 0 617 l 1,7,-1
 0 689 l 1,8,-1
 346 689 l 1,9,-1
 337 617 l 1,10,-1
 217 617 l 1,11,-1
 217 72 l 1,12,-1
 425 72 l 1,13,-1
 425 689 l 1,14,-1
 514 689 l 1,15,-1
 514 73 l 1,0,-1
EndSplineSet
EndChar

StartChar: uni04B6
Encoding: 1206 1206 364
Width: 600
GlyphClass: 2
Flags: W
AnchorPoint: "Anchor-3" 289 689 basechar 0
AnchorPoint: "Anchor-2" 300 0 basechar 0
LayerCount: 2
Fore
SplineSet
578 73 m 1,0,-1
 578 -147 l 1,1,-1
 509 -147 l 1,2,-1
 495 0 l 1,3,-1
 430 0 l 1,4,-1
 430 282 l 1,5,6
 384 248 384 248 344 233.5 c 128,-1,7
 304 219 304 219 251 219 c 0,8,9
 161 219 161 219 106 274.5 c 128,-1,10
 51 330 51 330 51 423 c 2,11,-1
 51 689 l 1,12,-1
 137 689 l 1,13,-1
 137 430 l 2,14,15
 137 362 137 362 172 328.5 c 128,-1,16
 207 295 207 295 273 295 c 0,17,18
 367 295 367 295 430 356 c 1,19,-1
 430 689 l 1,20,-1
 517 689 l 1,21,-1
 517 73 l 1,22,-1
 578 73 l 1,0,-1
EndSplineSet
EndChar

StartChar: uni04B8
Encoding: 1208 1208 365
Width: 600
GlyphClass: 2
Flags: W
AnchorPoint: "Anchor-3" 289 689 basechar 0
AnchorPoint: "Anchor-2" 300 0 basechar 0
LayerCount: 2
Fore
SplineSet
517 689 m 1,0,-1
 517 0 l 1,1,-1
 430 0 l 1,2,-1
 430 282 l 1,3,4
 371 238 371 238 318 226 c 1,5,-1
 318 119 l 1,6,-1
 260 119 l 1,7,-1
 260 219 l 1,8,-1
 251 219 l 2,9,10
 161 219 161 219 106 274.5 c 128,-1,11
 51 330 51 330 51 423 c 2,12,-1
 51 689 l 1,13,-1
 137 689 l 1,14,-1
 137 430 l 2,15,16
 137 365 137 365 168.5 331.5 c 128,-1,17
 200 298 200 298 260 295 c 1,18,-1
 260 538 l 1,19,-1
 318 538 l 1,20,-1
 318 299 l 1,21,22
 383 311 383 311 430 356 c 1,23,-1
 430 689 l 1,24,-1
 517 689 l 1,0,-1
EndSplineSet
EndChar

StartChar: uni04BA
Encoding: 1210 1210 366
Width: 600
GlyphClass: 2
Flags: W
AnchorPoint: "Anchor-3" 300 689 basechar 0
AnchorPoint: "Anchor-2" 300 0 basechar 0
LayerCount: 2
Fore
SplineSet
495 392.5 m 128,-1,1
 548 335 548 335 548 235 c 2,2,-1
 548 0 l 1,3,-1
 461 0 l 1,4,-1
 461 234 l 2,5,6
 461 302 461 302 430 338 c 128,-1,7
 399 374 399 374 337 374 c 0,8,9
 284 374 284 374 245 354 c 128,-1,10
 206 334 206 334 170 294 c 1,11,-1
 170 0 l 1,12,-1
 83 0 l 1,13,-1
 83 689 l 1,14,-1
 170 689 l 1,15,-1
 170 374 l 1,16,17
 206 411 206 411 250.5 430.5 c 128,-1,18
 295 450 295 450 352 450 c 0,19,0
 442 450 442 450 495 392.5 c 128,-1,1
EndSplineSet
EndChar

StartChar: uni0526
Encoding: 1318 1318 367
Width: 600
Flags: W
LayerCount: 2
Fore
SplineSet
601 73 m 1,0,-1
 601 -147 l 1,1,-1
 532 -147 l 1,2,-1
 518 0 l 1,3,-1
 455 0 l 1,4,-1
 455 234 l 2,5,6
 455 374 455 374 322 374 c 0,7,8
 274 374 274 374 237.5 354 c 128,-1,9
 201 334 201 334 170 295 c 1,10,-1
 170 0 l 1,11,-1
 83 0 l 1,12,-1
 83 689 l 1,13,-1
 170 689 l 1,14,-1
 170 379 l 1,15,16
 235 450 235 450 341 450 c 0,17,18
 435 450 435 450 488 393 c 128,-1,19
 541 336 541 336 541 235 c 2,20,-1
 541 73 l 1,21,-1
 601 73 l 1,0,-1
EndSplineSet
EndChar

StartChar: uni04BC
Encoding: 1212 1212 368
Width: 600
GlyphClass: 2
Flags: W
AnchorPoint: "Anchor-3" 300 689 basechar 0
AnchorPoint: "Anchor-2" 300 0 basechar 0
LayerCount: 2
Fore
SplineSet
564 308 m 1,1,-1
 220 308 l 1,2,3
 223 180 223 180 264 119.5 c 128,-1,4
 305 59 305 59 370 59 c 0,5,6
 411 59 411 59 437 70.5 c 128,-1,7
 463 82 463 82 497 105 c 1,8,-1
 538 53 l 1,9,10
 464 -11 464 -11 371 -11 c 0,11,12
 266 -11 266 -11 202 70.5 c 128,-1,13
 138 152 138 152 132 308 c 1,14,15
 69 309 69 309 35 341.5 c 128,-1,16
 1 374 1 374 1 422 c 0,17,18
 1 474 1 474 40 527 c 1,19,-1
 97 501 l 1,20,21
 87 479 87 479 81.5 462.5 c 128,-1,22
 76 446 76 446 76 429 c 0,23,24
 76 379 76 379 127 379 c 2,25,-1
 133 379 l 1,26,27
 139 478 139 478 169 550.5 c 128,-1,28
 199 623 199 623 248.5 661.5 c 128,-1,29
 298 700 298 700 361 700 c 0,30,31
 456 700 456 700 511.5 612 c 128,-1,32
 567 524 567 524 567 357 c 0,33,0
 567 335 567 335 564 308 c 1,1,-1
485 379 m 1,34,35
 480 510 480 510 448 570 c 128,-1,36
 416 630 416 630 359 630 c 0,37,38
 299 630 299 630 263 568 c 128,-1,39
 227 506 227 506 220 379 c 1,40,-1
 485 379 l 1,34,35
EndSplineSet
EndChar

StartChar: uni04BE
Encoding: 1214 1214 369
Width: 600
GlyphClass: 2
Flags: W
AnchorPoint: "Anchor-3" 300 689 basechar 0
AnchorPoint: "Anchor-2" 300 0 basechar 0
LayerCount: 2
Fore
SplineSet
564 308 m 1,1,-1
 220 308 l 1,2,3
 223 180 223 180 264 119.5 c 128,-1,4
 305 59 305 59 370 59 c 0,5,6
 411 59 411 59 437 70.5 c 128,-1,7
 463 82 463 82 497 105 c 1,8,-1
 538 53 l 1,9,10
 491 14 491 14 446 0 c 1,11,12
 374 -31 374 -31 348 -58 c 128,-1,13
 322 -85 322 -85 322 -114 c 0,14,15
 322 -138 322 -138 335 -150 c 128,-1,16
 348 -162 348 -162 378 -162 c 0,17,18
 405 -162 405 -162 439 -155 c 1,19,-1
 431 -223 l 1,20,21
 389 -229 389 -229 367 -229 c 0,22,23
 311 -229 311 -229 278 -201.5 c 128,-1,24
 245 -174 245 -174 245 -131 c 0,25,26
 245 -58 245 -58 334 -8 c 1,27,28
 244 6 244 6 190.5 86 c 128,-1,29
 137 166 137 166 132 308 c 1,30,31
 69 309 69 309 35 341.5 c 128,-1,32
 1 374 1 374 1 422 c 0,33,34
 1 474 1 474 40 527 c 1,35,-1
 97 501 l 1,36,37
 87 479 87 479 81.5 462.5 c 128,-1,38
 76 446 76 446 76 429 c 0,39,40
 76 379 76 379 127 379 c 2,41,-1
 133 379 l 1,42,43
 139 478 139 478 169 550.5 c 128,-1,44
 199 623 199 623 248.5 661.5 c 128,-1,45
 298 700 298 700 361 700 c 0,46,47
 456 700 456 700 511.5 612 c 128,-1,48
 567 524 567 524 567 357 c 0,49,0
 567 335 567 335 564 308 c 1,1,-1
485 379 m 1,50,51
 480 510 480 510 448 570 c 128,-1,52
 416 630 416 630 359 630 c 0,53,54
 299 630 299 630 263 568 c 128,-1,55
 227 506 227 506 220 379 c 1,56,-1
 485 379 l 1,50,51
EndSplineSet
EndChar

StartChar: uni04C3
Encoding: 1219 1219 372
Width: 600
GlyphClass: 2
Flags: W
AnchorPoint: "Anchor-3" 300 689 basechar 0
AnchorPoint: "Anchor-2" 300 -200 basechar 0
LayerCount: 2
Fore
SplineSet
487 319.5 m 128,-1,1
 532 265 532 265 532 171 c 2,2,-1
 532 -61 l 2,3,4
 532 -134 532 -134 493.5 -172.5 c 128,-1,5
 455 -211 455 -211 387 -211 c 0,6,7
 323 -211 323 -211 274 -174 c 1,8,-1
 308 -117 l 1,9,10
 327 -130 327 -130 343 -135.5 c 128,-1,11
 359 -141 359 -141 383 -141 c 0,12,13
 445 -141 445 -141 445 -66 c 2,14,-1
 445 170 l 2,15,16
 445 242 445 242 413 277 c 128,-1,17
 381 312 381 312 314 312 c 1,18,-1
 314 321 l 1,19,-1
 309 312 l 1,20,-1
 170 312 l 1,21,-1
 170 0 l 1,22,-1
 83 0 l 1,23,-1
 83 689 l 1,24,-1
 170 689 l 1,25,-1
 170 385 l 1,26,-1
 269 385 l 1,27,-1
 441 689 l 1,28,-1
 534 689 l 1,29,-1
 351 383 l 1,30,0
 442 374 442 374 487 319.5 c 128,-1,1
EndSplineSet
EndChar

StartChar: uni04C5
Encoding: 1221 1221 373
Width: 600
Flags: W
LayerCount: 2
Fore
SplineSet
581 69 m 1,0,-1
 503 -147 l 1,1,-1
 435 -147 l 1,2,-1
 470 0 l 1,3,-1
 404 0 l 1,4,-1
 404 614 l 1,5,-1
 249 614 l 1,6,-1
 224 410 l 2,7,8
 205 254 205 254 184 175 c 128,-1,9
 163 96 163 96 136 60 c 128,-1,10
 109 24 109 24 57 -11 c 1,11,-1
 19 53 l 1,12,13
 48 77 48 77 65 103 c 128,-1,14
 82 129 82 129 100 195 c 128,-1,15
 118 261 118 261 134 386 c 2,16,-1
 173 689 l 1,17,-1
 491 689 l 1,18,-1
 491 69 l 1,19,-1
 581 69 l 1,0,-1
EndSplineSet
EndChar

StartChar: uni04C7
Encoding: 1223 1223 374
Width: 600
GlyphClass: 2
Flags: W
AnchorPoint: "Anchor-3" 300 689 basechar 0
AnchorPoint: "Anchor-2" 300 0 basechar 0
LayerCount: 2
Fore
SplineSet
517 689 m 1,0,-1
 517 -61 l 2,1,2
 517 -134 517 -134 478.5 -172.5 c 128,-1,3
 440 -211 440 -211 372 -211 c 0,4,5
 308 -211 308 -211 259 -174 c 1,6,-1
 293 -117 l 1,7,8
 312 -130 312 -130 328 -135.5 c 128,-1,9
 344 -141 344 -141 368 -141 c 0,10,11
 430 -141 430 -141 430 -66 c 2,12,-1
 430 327 l 1,13,-1
 170 327 l 1,14,-1
 170 0 l 1,15,-1
 83 0 l 1,16,-1
 83 689 l 1,17,-1
 170 689 l 1,18,-1
 170 398 l 1,19,-1
 430 398 l 1,20,-1
 430 689 l 1,21,-1
 517 689 l 1,0,-1
EndSplineSet
EndChar

StartChar: uni04C9
Encoding: 1225 1225 375
Width: 600
Flags: W
LayerCount: 2
Fore
SplineSet
487 69 m 1,0,-1
 577 69 l 1,1,-1
 499 -147 l 1,2,-1
 431 -147 l 1,3,-1
 466 0 l 1,4,-1
 400 0 l 1,5,-1
 400 327 l 1,6,-1
 159 327 l 1,7,-1
 159 0 l 1,8,-1
 72 0 l 1,9,-1
 72 689 l 1,10,-1
 159 689 l 1,11,-1
 159 398 l 1,12,-1
 400 398 l 1,13,-1
 400 689 l 1,14,-1
 487 689 l 1,15,-1
 487 69 l 1,0,-1
EndSplineSet
EndChar

StartChar: uni04CB
Encoding: 1227 1227 376
Width: 600
GlyphClass: 2
Flags: W
AnchorPoint: "Anchor-3" 289 689 basechar 0
AnchorPoint: "Anchor-2" 300 0 basechar 0
LayerCount: 2
Fore
SplineSet
517 689 m 1,0,-1
 517 0 l 1,1,-1
 430 0 l 1,2,-1
 430 282 l 1,3,4
 384 248 384 248 344 233.5 c 128,-1,5
 304 219 304 219 251 219 c 0,6,7
 161 219 161 219 106 274.5 c 128,-1,8
 51 330 51 330 51 423 c 2,9,-1
 51 689 l 1,10,-1
 137 689 l 1,11,-1
 137 430 l 2,12,13
 137 362 137 362 172 328.5 c 128,-1,14
 207 295 207 295 273 295 c 0,15,16
 367 295 367 295 430 356 c 1,17,-1
 430 689 l 1,18,-1
 517 689 l 1,0,-1
264 73 m 1,19,-1
 363 73 l 1,20,-1
 369 0 l 1,21,-1
 347 0 l 1,22,-1
 333 -147 l 1,23,-1
 264 -147 l 1,24,-1
 264 73 l 1,19,-1
EndSplineSet
EndChar

StartChar: uni04CD
Encoding: 1229 1229 377
Width: 600
Flags: W
LayerCount: 2
Fore
SplineSet
604 69 m 1,0,-1
 527 -147 l 1,1,-1
 456 -147 l 1,2,-1
 491 0 l 1,3,-1
 446 0 l 1,4,-1
 424 360 l 2,5,6
 419 453 419 453 419 571 c 2,7,-1
 419 603 l 1,8,-1
 317 124 l 1,9,-1
 230 124 l 1,10,-1
 122 603 l 1,11,-1
 122 545 l 2,12,13
 122 417 122 417 119 360 c 2,14,-1
 100 0 l 1,15,-1
 19 0 l 1,16,-1
 58 689 l 1,17,-1
 179 689 l 1,18,-1
 276 217 l 1,19,-1
 368 689 l 1,20,-1
 490 689 l 1,21,-1
 525 69 l 1,22,-1
 604 69 l 1,0,-1
EndSplineSet
EndChar

StartChar: uni04D8
Encoding: 1240 1240 382
Width: 600
GlyphClass: 2
Flags: W
AnchorPoint: "Anchor-3" 293 688 basechar 0
AnchorPoint: "Anchor-2" 300 0 basechar 0
LayerCount: 2
Fore
SplineSet
47 381 m 1,0,-1
 462 381 l 1,1,2
 458 512 458 512 414 571 c 128,-1,3
 370 630 370 630 290 630 c 0,4,5
 244 630 244 630 208 615 c 128,-1,6
 172 600 172 600 133 572 c 1,7,-1
 88 623 l 1,8,9
 131 660 131 660 181 680 c 128,-1,10
 231 700 231 700 293 700 c 0,11,12
 419 700 419 700 485 612.5 c 128,-1,13
 551 525 551 525 551 353 c 0,14,15
 551 240 551 240 520.5 158 c 128,-1,16
 490 76 490 76 432.5 32.5 c 128,-1,17
 375 -11 375 -11 297 -11 c 0,18,19
 178 -11 178 -11 111.5 76 c 128,-1,20
 45 163 45 163 45 331 c 1,21,-1
 47 381 l 1,0,-1
462 309 m 1,23,-1
 129 309 l 1,24,25
 135 176 135 176 176 118 c 128,-1,26
 217 60 217 60 298 60 c 0,27,22
 449 60 449 60 462 309 c 1,23,-1
EndSplineSet
EndChar

StartChar: uni04E0
Encoding: 1248 1248 386
Width: 600
Flags: W
LayerCount: 2
Fore
SplineSet
473.5 348 m 128,-1,1
 530 296 530 296 530 205 c 0,2,3
 530 141 530 141 499.5 92 c 128,-1,4
 469 43 469 43 413 16 c 128,-1,5
 357 -11 357 -11 282 -11 c 0,6,7
 211 -11 211 -11 163 7.5 c 128,-1,8
 115 26 115 26 70 63 c 1,9,-1
 115 118 l 1,10,11
 156 89 156 89 192.5 75.5 c 128,-1,12
 229 62 229 62 283 62 c 0,13,14
 359 62 359 62 399 100 c 128,-1,15
 439 138 439 138 439 207 c 0,16,17
 439 331 439 331 298 331 c 2,18,-1
 178 331 l 1,19,-1
 178 395 l 1,20,-1
 400 616 l 1,21,-1
 97 616 l 1,22,-1
 97 689 l 1,23,-1
 501 689 l 1,24,-1
 501 616 l 1,25,-1
 278 400 l 1,26,-1
 295 400 l 2,27,0
 417 400 417 400 473.5 348 c 128,-1,1
EndSplineSet
EndChar

StartChar: uni04E8
Encoding: 1256 1256 390
Width: 600
GlyphClass: 2
Flags: W
AnchorPoint: "Anchor-3" 300 689 basechar 0
AnchorPoint: "Anchor-2" 300 0 basechar 0
LayerCount: 2
Fore
SplineSet
487.5 86 m 128,-1,1
 422 -11 422 -11 300 -11 c 0,2,3
 177 -11 177 -11 112 84 c 128,-1,4
 47 179 47 179 47 343 c 0,5,6
 47 448 47 448 76 529 c 128,-1,7
 105 610 105 610 162 655 c 128,-1,8
 219 700 219 700 300 700 c 0,9,10
 422 700 422 700 487.5 603.5 c 128,-1,11
 553 507 553 507 553 344 c 0,12,0
 553 183 553 183 487.5 86 c 128,-1,1
183.5 566.5 m 128,-1,14
 145 506 145 506 139 384 c 1,15,-1
 460 384 l 1,16,17
 455 506 455 506 416.5 566.5 c 128,-1,18
 378 627 378 627 300 627 c 256,19,13
 222 627 222 627 183.5 566.5 c 128,-1,14
419.5 126 m 128,-1,21
 458 190 458 190 461 318 c 1,22,-1
 138 318 l 1,23,24
 141 190 141 190 180.5 126 c 128,-1,25
 220 62 220 62 300 62 c 0,26,20
 381 62 381 62 419.5 126 c 128,-1,21
EndSplineSet
EndChar

StartChar: uni04F6
Encoding: 1270 1270 397
Width: 600
GlyphClass: 2
Flags: W
AnchorPoint: "Anchor-3" 349 689 basechar 0
AnchorPoint: "Anchor-2" 180 0 basechar 0
LayerCount: 2
Fore
SplineSet
535 612 m 1,0,-1
 223 612 l 1,1,-1
 223 73 l 1,2,-1
 281 73 l 1,3,-1
 281 -147 l 1,4,-1
 212 -147 l 1,5,-1
 198 0 l 1,6,-1
 136 0 l 1,7,-1
 136 689 l 1,8,-1
 544 689 l 1,9,-1
 535 612 l 1,0,-1
EndSplineSet
EndChar

StartChar: uni04FA
Encoding: 1274 1274 399
Width: 600
GlyphClass: 2
Flags: W
AnchorPoint: "Anchor-3" 388 689 basechar 0
AnchorPoint: "Anchor-2" 219 0 basechar 0
LayerCount: 2
Fore
SplineSet
262 612 m 1,0,-1
 262 433 l 1,1,-1
 419 433 l 1,2,-1
 419 366 l 1,3,-1
 262 366 l 1,4,-1
 262 73 l 1,5,-1
 321 73 l 1,6,-1
 321 -61 l 2,7,8
 321 -134 321 -134 282.5 -172.5 c 128,-1,9
 244 -211 244 -211 176 -211 c 0,10,11
 112 -211 112 -211 63 -174 c 1,12,-1
 97 -117 l 1,13,14
 116 -130 116 -130 132 -135.5 c 128,-1,15
 148 -141 148 -141 172 -141 c 0,16,17
 234 -141 234 -141 234 -66 c 2,18,-1
 234 0 l 1,19,-1
 175 0 l 1,20,-1
 175 366 l 1,21,-1
 74 366 l 1,22,-1
 74 433 l 1,23,-1
 175 433 l 1,24,-1
 175 689 l 1,25,-1
 583 689 l 1,26,-1
 574 612 l 1,27,-1
 262 612 l 1,0,-1
EndSplineSet
EndChar

StartChar: uni04FC
Encoding: 1276 1276 400
Width: 600
GlyphClass: 2
Flags: W
AnchorPoint: "Anchor-3" 284 689 basechar 0
AnchorPoint: "Anchor-2" 284 0 basechar 0
LayerCount: 2
Fore
SplineSet
576 73 m 1,0,-1
 576 -61 l 2,1,2
 576 -134 576 -134 537.5 -172.5 c 128,-1,3
 499 -211 499 -211 431 -211 c 0,4,5
 367 -211 367 -211 318 -174 c 1,6,-1
 352 -117 l 1,7,8
 371 -130 371 -130 387 -135.5 c 128,-1,9
 403 -141 403 -141 427 -141 c 0,10,11
 489 -141 489 -141 489 -66 c 2,12,-1
 489 0 l 1,13,-1
 453 0 l 1,14,-1
 282 311 l 1,15,-1
 108 0 l 1,16,-1
 15 0 l 1,17,-1
 231 367 l 1,18,-1
 33 689 l 1,19,-1
 133 689 l 1,20,-1
 284 424 l 1,21,-1
 436 689 l 1,22,-1
 529 689 l 1,23,-1
 334 372 l 1,24,-1
 510 73 l 1,25,-1
 576 73 l 1,0,-1
EndSplineSet
EndChar

StartChar: uni04FE
Encoding: 1278 1278 401
Width: 600
GlyphClass: 2
Flags: W
AnchorPoint: "Anchor-3" 300 689 basechar 0
AnchorPoint: "Anchor-2" 300 0 basechar 0
LayerCount: 2
Fore
SplineSet
372 335 m 1,0,-1
 569 0 l 1,1,-1
 469 0 l 1,2,-1
 298 311 l 1,3,-1
 124 0 l 1,4,-1
 31 0 l 1,5,-1
 228 335 l 1,6,-1
 40 335 l 1,7,-1
 40 400 l 1,8,-1
 227 400 l 1,9,-1
 49 689 l 1,10,-1
 149 689 l 1,11,-1
 300 424 l 1,12,-1
 452 689 l 1,13,-1
 545 689 l 1,14,-1
 367 400 l 1,15,-1
 560 400 l 1,16,-1
 560 335 l 1,17,-1
 372 335 l 1,0,-1
EndSplineSet
EndChar

StartChar: uni0500
Encoding: 1280 1280 402
Width: 600
GlyphClass: 2
Flags: W
AnchorPoint: "Anchor-3" 300 689 basechar 0
AnchorPoint: "Anchor-2" 300 0 basechar 0
LayerCount: 2
Fore
SplineSet
119.5 54 m 128,-1,1
 49 108 49 108 49 210 c 256,2,3
 49 312 49 312 119 369 c 128,-1,4
 189 426 189 426 309 426 c 2,5,-1
 419 426 l 1,6,-1
 419 689 l 1,7,-1
 506 689 l 1,8,-1
 506 0 l 1,9,-1
 303 0 l 2,10,0
 190 0 190 0 119.5 54 c 128,-1,1
419 71 m 1,11,-1
 419 358 l 1,12,-1
 307 358 l 2,13,14
 227 358 227 358 184 321.5 c 128,-1,15
 141 285 141 285 141 210 c 0,16,17
 141 71 141 71 304 71 c 2,18,-1
 419 71 l 1,11,-1
EndSplineSet
EndChar

StartChar: uni0502
Encoding: 1282 1282 403
Width: 600
GlyphClass: 2
Flags: W
AnchorPoint: "Anchor-3" 300 689 basechar 0
AnchorPoint: "Anchor-2" 300 0 basechar 0
LayerCount: 2
Fore
SplineSet
585 250 m 0,1,2
 585 117 585 117 539.5 51.5 c 128,-1,3
 494 -14 494 -14 420 -14 c 0,4,5
 377 -14 377 -14 345 6.5 c 128,-1,6
 313 27 313 27 296 66 c 1,7,8
 248 -14 248 -14 164 -14 c 0,9,10
 122 -14 122 -14 87 9 c 128,-1,11
 52 32 52 32 30.5 78 c 128,-1,12
 9 124 9 124 9 190 c 0,13,14
 9 303 9 303 65.5 364.5 c 128,-1,15
 122 426 122 426 232 426 c 2,16,-1
 278 426 l 1,17,-1
 278 689 l 1,18,-1
 365 689 l 1,19,-1
 365 155 l 2,20,21
 365 107 365 107 379 81.5 c 128,-1,22
 393 56 393 56 421 56 c 0,23,24
 455 56 455 56 476.5 100.5 c 128,-1,25
 498 145 498 145 498 248 c 0,26,27
 498 307 498 307 493 377 c 1,28,-1
 580 377 l 1,29,0
 585 312 585 312 585 250 c 0,1,2
234.5 77 m 128,-1,31
 257 98 257 98 278 143 c 1,32,-1
 278 359 l 1,33,-1
 230 359 l 2,34,35
 167 359 167 359 131.5 317 c 128,-1,36
 96 275 96 275 96 190 c 0,37,38
 96 120 96 120 119 88 c 128,-1,39
 142 56 142 56 180 56 c 0,40,30
 212 56 212 56 234.5 77 c 128,-1,31
EndSplineSet
EndChar

StartChar: uni0504
Encoding: 1284 1284 404
Width: 600
GlyphClass: 2
Flags: W
AnchorPoint: "Anchor-3" 300 689 basechar 0
AnchorPoint: "Anchor-2" 300 0 basechar 0
LayerCount: 2
Fore
SplineSet
575 255 m 0,1,2
 575 119 575 119 527 54 c 128,-1,3
 479 -11 479 -11 397 -11 c 0,4,5
 334 -11 334 -11 292 22 c 128,-1,6
 250 55 250 55 217 127 c 2,7,-1
 138 295 l 1,8,-1
 55 295 l 1,9,-1
 55 364 l 1,10,-1
 127 364 l 2,11,12
 204 364 204 364 243.5 395 c 128,-1,13
 283 426 283 426 283 495 c 0,14,15
 283 561 283 561 243 590 c 128,-1,16
 203 619 203 619 115 619 c 2,17,-1
 25 619 l 1,18,-1
 25 689 l 1,19,-1
 116 689 l 2,20,21
 243 689 243 689 309 639.5 c 128,-1,22
 375 590 375 590 375 495 c 0,23,24
 375 423 375 423 338 378 c 128,-1,25
 301 333 301 333 224 311 c 1,26,-1
 296 151 l 2,27,28
 320 99 320 99 342 78 c 128,-1,29
 364 57 364 57 397 57 c 0,30,31
 440 57 440 57 464.5 102 c 128,-1,32
 489 147 489 147 489 255 c 0,33,34
 489 310 489 310 484 380 c 1,35,-1
 570 380 l 1,36,0
 575 315 575 315 575 255 c 0,1,2
EndSplineSet
EndChar

StartChar: uni0506
Encoding: 1286 1286 405
Width: 600
GlyphClass: 2
Flags: W
AnchorPoint: "Anchor-3" 300 689 basechar 0
AnchorPoint: "Anchor-2" 300 -200 basechar 0
LayerCount: 2
Fore
SplineSet
555 73 m 1,0,-1
 555 -147 l 1,1,-1
 486 -147 l 1,2,-1
 472 0 l 1,3,-1
 435 0 l 1,4,-1
 247 295 l 1,5,-1
 102 295 l 1,6,-1
 102 363 l 1,7,-1
 254 363 l 2,8,9
 331 363 331 363 370.5 394.5 c 128,-1,10
 410 426 410 426 410 495 c 0,11,12
 410 561 410 561 372.5 590 c 128,-1,13
 335 619 335 619 254 619 c 2,14,-1
 73 619 l 1,15,-1
 73 689 l 1,16,-1
 244 689 l 2,17,18
 372 689 372 689 437.5 640 c 128,-1,19
 503 591 503 591 503 495 c 0,20,21
 503 421 503 421 457 372.5 c 128,-1,22
 411 324 411 324 335 305 c 1,23,-1
 490 73 l 1,24,-1
 555 73 l 1,0,-1
EndSplineSet
EndChar

StartChar: uni0508
Encoding: 1288 1288 406
Width: 600
GlyphClass: 2
Flags: W
AnchorPoint: "Anchor-3" 300 689 basechar 0
AnchorPoint: "Anchor-2" 300 0 basechar 0
LayerCount: 2
Fore
SplineSet
587 250 m 0,1,2
 587 117 587 117 541 51.5 c 128,-1,3
 495 -14 495 -14 421 -14 c 0,4,5
 359 -14 359 -14 319.5 30 c 128,-1,6
 280 74 280 74 280 158 c 2,7,-1
 280 616 l 1,8,-1
 185 616 l 1,9,-1
 167 370 l 2,10,11
 157 234 157 234 143 162.5 c 128,-1,12
 129 91 129 91 110 58 c 128,-1,13
 91 25 91 25 55 -11 c 1,14,-1
 5 49 l 1,15,16
 26 71 26 71 38 98.5 c 128,-1,17
 50 126 50 126 60 192 c 128,-1,18
 70 258 70 258 81 388 c 2,19,-1
 105 689 l 1,20,-1
 366 689 l 1,21,-1
 366 155 l 2,22,23
 366 107 366 107 380.5 81.5 c 128,-1,24
 395 56 395 56 423 56 c 0,25,26
 457 56 457 56 478.5 100.5 c 128,-1,27
 500 145 500 145 500 248 c 0,28,29
 500 307 500 307 495 377 c 1,30,-1
 582 377 l 1,31,0
 587 312 587 312 587 250 c 0,1,2
EndSplineSet
EndChar

StartChar: uni050A
Encoding: 1290 1290 407
Width: 600
GlyphClass: 2
Flags: W
AnchorPoint: "Anchor-3" 300 689 basechar 0
AnchorPoint: "Anchor-2" 300 0 basechar 0
LayerCount: 2
Fore
SplineSet
590 250 m 0,1,2
 590 117 590 117 544 51.5 c 128,-1,3
 498 -14 498 -14 425 -14 c 0,4,5
 363 -14 363 -14 323.5 30 c 128,-1,6
 284 74 284 74 284 158 c 2,7,-1
 284 327 l 1,8,-1
 135 327 l 1,9,-1
 135 0 l 1,10,-1
 49 0 l 1,11,-1
 49 689 l 1,12,-1
 135 689 l 1,13,-1
 135 399 l 1,14,-1
 284 399 l 1,15,-1
 284 689 l 1,16,-1
 370 689 l 1,17,-1
 370 155 l 2,18,19
 370 107 370 107 384.5 81.5 c 128,-1,20
 399 56 399 56 427 56 c 0,21,22
 461 56 461 56 482.5 100.5 c 128,-1,23
 504 145 504 145 504 248 c 0,24,25
 504 307 504 307 499 377 c 1,26,-1
 585 377 l 1,27,0
 590 312 590 312 590 250 c 0,1,2
EndSplineSet
EndChar

StartChar: uni050E
Encoding: 1294 1294 409
Width: 600
GlyphClass: 2
Flags: W
AnchorPoint: "Anchor-3" 300 689 basechar 0
AnchorPoint: "Anchor-2" 300 0 basechar 0
LayerCount: 2
Fore
SplineSet
568 256 m 0,1,2
 568 166 568 166 537 106 c 128,-1,3
 506 46 506 46 458 17.5 c 128,-1,4
 410 -11 410 -11 358 -11 c 0,5,6
 287 -11 287 -11 240.5 36.5 c 128,-1,7
 194 84 194 84 194 171 c 2,8,-1
 194 613 l 1,9,-1
 15 613 l 1,10,-1
 15 689 l 1,11,-1
 485 689 l 1,12,-1
 476 613 l 1,13,-1
 281 613 l 1,14,-1
 281 185 l 2,15,16
 281 57 281 57 361 57 c 0,17,18
 414 57 414 57 448 103 c 128,-1,19
 482 149 482 149 482 256 c 0,20,21
 482 309 482 309 477 379 c 1,22,-1
 563 379 l 1,23,0
 568 314 568 314 568 256 c 0,1,2
EndSplineSet
EndChar

StartChar: uni0510
Encoding: 1296 1296 410
Width: 600
Flags: W
LayerCount: 2
Fore
SplineSet
443.5 678.5 m 128,-1,1
 500 657 500 657 551 614 c 1,2,-1
 503 563 l 1,3,4
 461 596 461 596 418 612.5 c 128,-1,5
 375 629 375 629 321 629 c 0,6,7
 255 629 255 629 213.5 600.5 c 128,-1,8
 172 572 172 572 172 518 c 0,9,10
 172 462 172 462 214 434 c 128,-1,11
 256 406 256 406 320 406 c 2,12,-1
 437 406 l 1,13,-1
 427 333 l 1,14,-1
 314 333 l 2,15,16
 241 333 241 333 197 300.5 c 128,-1,17
 153 268 153 268 153 201 c 0,18,19
 153 136 153 136 197.5 99 c 128,-1,20
 242 62 242 62 322 62 c 0,21,22
 428 62 428 62 513 135 c 1,23,-1
 565 86 l 1,24,25
 521 39 521 39 457 14 c 128,-1,26
 393 -11 393 -11 319 -11 c 0,27,28
 240 -11 240 -11 181 16 c 128,-1,29
 122 43 122 43 90.5 91 c 128,-1,30
 59 139 59 139 59 200 c 0,31,32
 59 276 59 276 107 321.5 c 128,-1,33
 155 367 155 367 225 375 c 1,34,35
 164 384 164 384 123.5 421.5 c 128,-1,36
 83 459 83 459 83 517 c 0,37,38
 83 571 83 571 113 612.5 c 128,-1,39
 143 654 143 654 197 677 c 128,-1,40
 251 700 251 700 320 700 c 0,41,0
 387 700 387 700 443.5 678.5 c 128,-1,1
EndSplineSet
EndChar

StartChar: uni0512
Encoding: 1298 1298 411
Width: 600
GlyphClass: 2
Flags: W
AnchorPoint: "Anchor-3" 300 689 basechar 0
AnchorPoint: "Anchor-2" 300 0 basechar 0
LayerCount: 2
Fore
SplineSet
517 689 m 1,0,-1
 517 -61 l 2,1,2
 517 -134 517 -134 478.5 -172.5 c 128,-1,3
 440 -211 440 -211 372 -211 c 0,4,5
 308 -211 308 -211 259 -174 c 1,6,-1
 293 -117 l 1,7,8
 312 -130 312 -130 328 -135.5 c 128,-1,9
 344 -141 344 -141 368 -141 c 0,10,11
 430 -141 430 -141 430 -66 c 2,12,-1
 430 614 l 1,13,-1
 245 614 l 1,14,-1
 220 410 l 2,15,16
 201 254 201 254 180 175 c 128,-1,17
 159 96 159 96 132 60 c 128,-1,18
 105 24 105 24 53 -11 c 1,19,-1
 15 53 l 1,20,21
 44 77 44 77 61 103 c 128,-1,22
 78 129 78 129 96 195 c 128,-1,23
 114 261 114 261 130 386 c 2,24,-1
 169 689 l 1,25,-1
 517 689 l 1,0,-1
EndSplineSet
EndChar

StartChar: uni0514
Encoding: 1300 1300 412
Width: 600
GlyphClass: 2
Flags: W
AnchorPoint: "Anchor-3" 300 689 basechar 0
AnchorPoint: "Anchor-2" 300 0 basechar 0
LayerCount: 2
Fore
SplineSet
608 0 m 1,0,-1
 520 0 l 1,1,-1
 396 307 l 1,2,-1
 278 0 l 1,3,-1
 194 0 l 1,4,-1
 349 368 l 1,5,-1
 242 612 l 1,6,-1
 184 612 l 1,7,-1
 166 370 l 2,8,9
 156 234 156 234 142 162.5 c 128,-1,10
 128 91 128 91 109.5 58 c 128,-1,11
 91 25 91 25 55 -11 c 1,12,-1
 4 49 l 1,13,14
 25 71 25 71 37 98.5 c 128,-1,15
 49 126 49 126 59 192 c 128,-1,16
 69 258 69 258 80 388 c 2,17,-1
 104 689 l 1,18,-1
 109 684 l 1,19,-1
 105 689 l 1,20,-1
 297 689 l 1,21,-1
 403 426 l 1,22,-1
 506 689 l 1,23,-1
 589 689 l 1,24,-1
 451 368 l 1,25,-1
 608 0 l 1,0,-1
EndSplineSet
EndChar

StartChar: uni0516
Encoding: 1302 1302 413
Width: 600
GlyphClass: 2
Flags: W
AnchorPoint: "Anchor-3" 300 689 basechar 0
AnchorPoint: "Anchor-2" 300 0 basechar 0
LayerCount: 2
Fore
SplineSet
495 0 m 1,0,-1
 333 321 l 1,1,2
 303 290 303 290 262.5 273 c 128,-1,3
 222 256 222 256 175 256 c 2,4,-1
 138 256 l 1,5,-1
 138 0 l 1,6,-1
 55 0 l 1,7,-1
 55 689 l 1,8,-1
 175 689 l 2,9,10
 275 689 275 689 332.5 630.5 c 128,-1,11
 390 572 390 572 390 477 c 2,12,-1
 390 460 l 1,13,-1
 502 689 l 1,14,-1
 588 689 l 1,15,-1
 412 353 l 1,16,-1
 589 0 l 1,17,-1
 495 0 l 1,0,-1
271 361 m 128,-1,19
 308 396 308 396 308 476 c 0,20,21
 308 547 308 547 273.5 583 c 128,-1,22
 239 619 239 619 177 619 c 2,23,-1
 138 619 l 1,24,-1
 138 326 l 1,25,-1
 172 326 l 2,26,18
 234 326 234 326 271 361 c 128,-1,19
EndSplineSet
EndChar

StartChar: uni0518
Encoding: 1304 1304 414
Width: 600
GlyphClass: 2
Flags: W
AnchorPoint: "Anchor-3" 300 689 basechar 0
AnchorPoint: "Anchor-2" 300 0 basechar 0
LayerCount: 2
Fore
SplineSet
598 70 m 1,0,-1
 598 0 l 1,1,-1
 294 0 l 1,2,-1
 294 277 l 1,3,-1
 224 277 l 1,4,-1
 107 0 l 1,5,-1
 8 0 l 1,6,-1
 141 297 l 1,7,8
 80 323 80 323 49 370.5 c 128,-1,9
 18 418 18 418 18 483 c 0,10,11
 18 578 18 578 83 633.5 c 128,-1,12
 148 689 148 689 262 689 c 2,13,-1
 589 689 l 1,14,-1
 579 617 l 1,15,-1
 383 617 l 1,16,-1
 383 386 l 1,17,-1
 539 386 l 1,18,-1
 539 314 l 1,19,-1
 383 314 l 1,20,-1
 383 70 l 1,21,-1
 598 70 l 1,0,-1
294 619 m 1,22,-1
 252 619 l 2,23,24
 186 619 186 619 149.5 584.5 c 128,-1,25
 113 550 113 550 113 484 c 0,26,27
 113 416 113 416 145.5 382 c 128,-1,28
 178 348 178 348 234 348 c 2,29,-1
 294 348 l 1,30,-1
 294 619 l 1,22,-1
EndSplineSet
EndChar

StartChar: uni051E
Encoding: 1310 1310 417
Width: 600
GlyphClass: 2
Flags: W
AnchorPoint: "Anchor-3" 314 689 basechar 0
AnchorPoint: "Anchor-2" 294 0 basechar 0
LayerCount: 2
Fore
SplineSet
330 364 m 1,0,-1
 581 0 l 1,1,-1
 476 0 l 1,2,-1
 255 326 l 1,3,-1
 175 326 l 1,4,-1
 175 0 l 1,5,-1
 89 0 l 1,6,-1
 89 689 l 1,7,-1
 175 689 l 1,8,-1
 175 399 l 1,9,-1
 256 399 l 1,10,-1
 347 523 l 1,11,-1
 227 601 l 1,12,-1
 265 656 l 1,13,-1
 386 577 l 1,14,-1
 468 689 l 1,15,-1
 562 689 l 1,16,-1
 452 535 l 1,17,-1
 560 465 l 1,18,-1
 522 409 l 1,19,-1
 413 480 l 1,20,-1
 330 364 l 1,0,-1
EndSplineSet
EndChar

StartChar: uni0520
Encoding: 1312 1312 418
Width: 600
GlyphClass: 2
Flags: W
AnchorPoint: "Anchor-3" 300 689 basechar 0
AnchorPoint: "Anchor-2" 300 -200 basechar 0
LayerCount: 2
Fore
SplineSet
547 410 m 128,-1,1
 583 369 583 369 583 305 c 2,2,-1
 583 -58 l 2,3,4
 583 -132 583 -132 543 -171.5 c 128,-1,5
 503 -211 503 -211 437 -211 c 0,6,7
 373 -211 373 -211 324 -174 c 1,8,-1
 358 -116 l 1,9,10
 378 -128 378 -128 393.5 -133.5 c 128,-1,11
 409 -139 409 -139 433 -139 c 0,12,13
 495 -139 495 -139 495 -65 c 2,14,-1
 495 295 l 2,15,16
 495 374 495 374 435 374 c 0,17,18
 393 374 393 374 354 338 c 1,19,-1
 354 0 l 1,20,-1
 268 0 l 1,21,-1
 268 616 l 1,22,-1
 173 616 l 1,23,-1
 155 370 l 2,24,25
 145 234 145 234 131 162.5 c 128,-1,26
 117 91 117 91 98 58 c 128,-1,27
 79 25 79 25 43 -11 c 1,28,-1
 -7 49 l 1,29,30
 14 71 14 71 26 98.5 c 128,-1,31
 38 126 38 126 48 192 c 128,-1,32
 58 258 58 258 69 388 c 2,33,-1
 93 689 l 1,34,-1
 354 689 l 1,35,-1
 354 411 l 1,36,37
 394 451 394 451 449 451 c 0,38,0
 511 451 511 451 547 410 c 128,-1,1
EndSplineSet
EndChar

StartChar: uni0522
Encoding: 1314 1314 419
Width: 600
GlyphClass: 2
Flags: W
AnchorPoint: "Anchor-3" 300 689 basechar 0
AnchorPoint: "Anchor-2" 300 -200 basechar 0
LayerCount: 2
Fore
SplineSet
554 408.5 m 128,-1,1
 593 366 593 366 593 294 c 2,2,-1
 593 -58 l 2,3,4
 593 -132 593 -132 553 -171.5 c 128,-1,5
 513 -211 513 -211 448 -211 c 0,6,7
 384 -211 384 -211 335 -174 c 1,8,-1
 369 -117 l 1,9,10
 390 -129 390 -129 405.5 -134.5 c 128,-1,11
 421 -140 421 -140 444 -140 c 0,12,13
 506 -140 506 -140 506 -65 c 2,14,-1
 506 295 l 2,15,16
 506 374 506 374 436 374 c 0,17,18
 412 374 412 374 390.5 365 c 128,-1,19
 369 356 369 356 347 337 c 1,20,-1
 347 0 l 1,21,-1
 261 0 l 1,22,-1
 261 327 l 1,23,-1
 112 327 l 1,24,-1
 112 0 l 1,25,-1
 26 0 l 1,26,-1
 26 689 l 1,27,-1
 112 689 l 1,28,-1
 112 399 l 1,29,-1
 261 399 l 1,30,-1
 261 689 l 1,31,-1
 347 689 l 1,32,-1
 347 410 l 1,33,34
 390 451 390 451 449 451 c 0,35,0
 515 451 515 451 554 408.5 c 128,-1,1
EndSplineSet
EndChar

StartChar: uni048C
Encoding: 1164 1164 420
Width: 600
GlyphClass: 2
Flags: W
AnchorPoint: "Anchor-3" 300 689 basechar 0
AnchorPoint: "Anchor-2" 300 0 basechar 0
LayerCount: 2
Fore
SplineSet
501 375.5 m 128,-1,1
 569 323 569 323 569 221 c 0,2,3
 569 109 569 109 497 54.5 c 128,-1,4
 425 0 425 0 301 0 c 2,5,-1
 125 0 l 1,6,-1
 125 531 l 1,7,-1
 30 531 l 1,8,-1
 30 594 l 1,9,-1
 125 594 l 1,10,-1
 125 689 l 1,11,-1
 212 689 l 1,12,-1
 212 594 l 1,13,-1
 343 594 l 1,14,-1
 343 531 l 1,15,-1
 212 531 l 1,16,-1
 212 428 l 1,17,-1
 314 428 l 2,18,0
 433 428 433 428 501 375.5 c 128,-1,1
433 104 m 128,-1,20
 476 137 476 137 476 219 c 0,21,22
 476 294 476 294 434.5 327 c 128,-1,23
 393 360 393 360 315 360 c 2,24,-1
 212 360 l 1,25,-1
 212 71 l 1,26,-1
 311 71 l 2,27,19
 390 71 390 71 433 104 c 128,-1,20
EndSplineSet
EndChar

StartChar: uni048E
Encoding: 1166 1166 421
Width: 600
GlyphClass: 2
Flags: W
AnchorPoint: "Anchor-3" 300 689 basechar 0
AnchorPoint: "Anchor-2" 300 0 basechar 0
LayerCount: 2
Fore
SplineSet
472 304 m 1,1,-1
 555 168 l 1,2,-1
 476 168 l 1,3,-1
 411 274 l 1,4,5
 359 256 359 256 291 256 c 2,6,-1
 202 256 l 1,7,-1
 202 0 l 1,8,-1
 116 0 l 1,9,-1
 116 689 l 1,10,-1
 291 689 l 2,11,12
 418 689 418 689 487.5 635.5 c 128,-1,13
 557 582 557 582 557 475 c 0,14,0
 557 363 557 363 472 304 c 1,1,-1
374 334 m 1,16,-1
 286 479 l 1,17,-1
 365 479 l 1,18,-1
 432 369 l 1,19,20
 463 404 463 404 463 474 c 0,21,22
 463 551 463 551 419.5 585.5 c 128,-1,23
 376 620 376 620 301 620 c 2,24,-1
 202 620 l 1,25,-1
 202 325 l 1,26,-1
 298 325 l 2,27,15
 342 325 342 325 374 334 c 1,16,-1
EndSplineSet
EndChar

StartChar: uni0431
Encoding: 1073 1073 423
Width: 600
GlyphClass: 2
Flags: W
AnchorPoint: "Anchor-3" 300 739 basechar 0
AnchorPoint: "Anchor-2" 300 0 basechar 0
LayerCount: 2
Fore
SplineSet
432.5 463 m 128,-1,1
 476 434 476 434 500 379.5 c 128,-1,2
 524 325 524 325 524 252 c 0,3,4
 524 169 524 169 495.5 109.5 c 128,-1,5
 467 50 467 50 416.5 19.5 c 128,-1,6
 366 -11 366 -11 299 -11 c 0,7,8
 199 -11 199 -11 137 64 c 128,-1,9
 75 139 75 139 75 289 c 0,10,11
 75 404 75 404 92 477.5 c 128,-1,12
 109 551 109 551 150.5 599 c 128,-1,13
 192 647 192 647 268 673 c 0,14,15
 332 696 332 696 365 711 c 128,-1,16
 398 726 398 726 433 750 c 1,17,-1
 469 685 l 1,18,19
 403 644 403 644 310 609 c 0,20,21
 263 592 263 592 234.5 570 c 128,-1,22
 206 548 206 548 189 507 c 128,-1,23
 172 466 172 466 165 394 c 1,24,25
 191 439 191 439 234.5 465.5 c 128,-1,26
 278 492 278 492 332 492 c 0,27,0
 389 492 389 492 432.5 463 c 128,-1,1
396.5 100.5 m 128,-1,29
 432 143 432 143 432 249 c 0,30,31
 432 423 432 423 319 423 c 0,32,33
 274 423 274 423 233.5 397.5 c 128,-1,34
 193 372 193 372 167 319 c 1,35,-1
 167 255 l 2,36,37
 167 161 167 161 202 109.5 c 128,-1,38
 237 58 237 58 299 58 c 256,39,28
 361 58 361 58 396.5 100.5 c 128,-1,29
EndSplineSet
EndChar

StartChar: uni0432
Encoding: 1074 1074 424
Width: 600
Flags: W
LayerCount: 2
Fore
SplineSet
499 247 m 128,-1,1
 532 215 532 215 532 156 c 0,2,3
 532 78 532 78 467.5 39 c 128,-1,4
 403 0 403 0 307 0 c 2,5,-1
 112 0 l 1,6,-1
 112 519 l 1,7,8
 205 538 205 538 290 538 c 0,9,10
 390 538 390 538 447.5 502 c 128,-1,11
 505 466 505 466 505 400 c 0,12,13
 505 357 505 357 481 328.5 c 128,-1,14
 457 300 457 300 398 285 c 1,15,0
 466 279 466 279 499 247 c 128,-1,1
196 464 m 1,17,-1
 196 312 l 1,18,-1
 304 312 l 2,19,20
 359 312 359 312 388.5 330.5 c 128,-1,21
 418 349 418 349 418 393 c 0,22,23
 418 434 418 434 387.5 452 c 128,-1,24
 357 470 357 470 292 470 c 0,25,16
 243 470 243 470 196 464 c 1,17,-1
402 84 m 128,-1,27
 443 100 443 100 443 155 c 0,28,29
 443 207 443 207 405.5 226 c 128,-1,30
 368 245 368 245 310 245 c 2,31,-1
 196 245 l 1,32,-1
 196 68 l 1,33,-1
 291 68 l 2,34,26
 361 68 361 68 402 84 c 128,-1,27
EndSplineSet
EndChar

StartChar: uni0433
Encoding: 1075 1075 425
Width: 600
GlyphClass: 2
Flags: W
AnchorPoint: "Anchor-3" 340 527 basechar 0
AnchorPoint: "Anchor-2" 200 0 basechar 0
LayerCount: 2
Fore
SplineSet
242 0 m 1,0,-1
 158 0 l 1,1,-1
 158 527 l 1,2,-1
 524 527 l 1,3,-1
 514 456 l 1,4,-1
 242 456 l 1,5,-1
 242 0 l 1,0,-1
EndSplineSet
EndChar

StartChar: uni0491
Encoding: 1169 1169 427
Width: 600
GlyphClass: 2
Flags: W
AnchorPoint: "Anchor-3" 340 527 basechar 0
AnchorPoint: "Anchor-2" 200 0 basechar 0
LayerCount: 2
Fore
SplineSet
439 659 m 1,0,-1
 524 659 l 1,1,-1
 524 527 l 1,2,-1
 514 456 l 1,3,-1
 242 456 l 1,4,-1
 242 0 l 1,5,-1
 158 0 l 1,6,-1
 158 527 l 1,7,-1
 439 527 l 1,8,-1
 439 659 l 1,0,-1
EndSplineSet
EndChar

StartChar: uni0434
Encoding: 1076 1076 428
Width: 600
GlyphClass: 2
Flags: W
AnchorPoint: "Anchor-3" 300 527 basechar 0
AnchorPoint: "Anchor-2" 300 -200 basechar 0
LayerCount: 2
Fore
SplineSet
535 69 m 1,0,-1
 535 -147 l 1,1,-1
 465 -147 l 1,2,-1
 451 0 l 1,3,-1
 111 0 l 1,4,-1
 97 -147 l 1,5,-1
 27 -147 l 1,6,-1
 27 69 l 1,7,-1
 62 69 l 1,8,9
 87 90 87 90 102 121 c 128,-1,10
 117 152 117 152 127.5 207 c 128,-1,11
 138 262 138 262 145 357 c 2,12,-1
 156 527 l 1,13,-1
 496 527 l 1,14,-1
 496 69 l 1,15,-1
 535 69 l 1,0,-1
411 458 m 1,16,-1
 233 458 l 1,17,-1
 226 363 l 2,18,19
 219 263 219 263 209 208 c 128,-1,20
 199 153 199 153 181.5 122 c 128,-1,21
 164 91 164 91 133 69 c 1,22,-1
 411 69 l 1,23,-1
 411 458 l 1,16,-1
EndSplineSet
EndChar

StartChar: uni0435
Encoding: 1077 1077 429
Width: 600
GlyphClass: 2
Flags: W
AnchorPoint: "Anchor-3" 310 527 basechar 0
AnchorPoint: "Anchor-2" 300 0 basechar 0
LayerCount: 2
Fore
SplineSet
212.5 103 m 128,-1,1
 255 59 255 59 320 59 c 0,2,3
 359 59 359 59 391.5 70.5 c 128,-1,4
 424 82 424 82 461 106 c 1,5,-1
 500 50 l 1,6,7
 463 21 463 21 415.5 5 c 128,-1,8
 368 -11 368 -11 320 -11 c 0,9,10
 206 -11 206 -11 142.5 63.5 c 128,-1,11
 79 138 79 138 79 263 c 0,12,13
 79 342 79 342 107 404.5 c 128,-1,14
 135 467 135 467 187 502.5 c 128,-1,15
 239 538 239 538 308 538 c 0,16,17
 408 538 408 538 465.5 468.5 c 128,-1,18
 523 399 523 399 523 279 c 0,19,20
 523 256 523 256 521 234 c 1,21,-1
 167 234 l 1,22,0
 170 147 170 147 212.5 103 c 128,-1,1
210 425.5 m 128,-1,24
 172 382 172 382 167 298 c 1,25,-1
 441 298 l 1,26,27
 440 381 440 381 405 425 c 128,-1,28
 370 469 370 469 309 469 c 256,29,23
 248 469 248 469 210 425.5 c 128,-1,24
EndSplineSet
EndChar

StartChar: uni0436
Encoding: 1078 1078 432
Width: 600
GlyphClass: 2
Flags: W
AnchorPoint: "Anchor-3" 300 527 basechar 0
AnchorPoint: "Anchor-2" 300 0 basechar 0
LayerCount: 2
Fore
SplineSet
263 0 m 1,0,-1
 263 247 l 1,1,-1
 206 247 l 1,2,-1
 102 0 l 1,3,-1
 20 0 l 1,4,-1
 142 283 l 1,5,-1
 29 527 l 1,6,-1
 115 527 l 1,7,-1
 207 312 l 1,8,-1
 263 312 l 1,9,-1
 263 527 l 1,10,-1
 337 527 l 1,11,-1
 337 312 l 1,12,-1
 393 312 l 1,13,-1
 488 527 l 1,14,-1
 571 527 l 1,15,-1
 458 283 l 1,16,-1
 580 0 l 1,17,-1
 495 0 l 1,18,-1
 391 247 l 1,19,-1
 337 247 l 1,20,-1
 337 0 l 1,21,-1
 263 0 l 1,0,-1
EndSplineSet
EndChar

StartChar: uni0437
Encoding: 1079 1079 433
Width: 600
GlyphClass: 2
Flags: W
AnchorPoint: "Anchor-3" 294 527 basechar 0
AnchorPoint: "Anchor-2" 301 0 basechar 0
LayerCount: 2
Fore
SplineSet
286 309 m 2,0,1
 339 309 339 309 369.5 331 c 128,-1,2
 400 353 400 353 400 389 c 0,3,4
 400 470 400 470 276 470 c 0,5,6
 235 470 235 470 192 458 c 128,-1,7
 149 446 149 446 113 424 c 1,8,-1
 73 474 l 1,9,10
 113 504 113 504 168 521 c 128,-1,11
 223 538 223 538 279 538 c 0,12,13
 370 538 370 538 429 500.5 c 128,-1,14
 488 463 488 463 488 394 c 0,15,16
 488 352 488 352 459 323.5 c 128,-1,17
 430 295 430 295 381 281 c 1,18,19
 413 280 413 280 444.5 265 c 128,-1,20
 476 250 476 250 496.5 222 c 128,-1,21
 517 194 517 194 517 157 c 0,22,23
 517 76 517 76 451 32.5 c 128,-1,24
 385 -11 385 -11 278 -11 c 0,25,26
 143 -11 143 -11 54 62 c 1,27,-1
 94 116 l 1,28,29
 175 58 175 58 281 58 c 0,30,31
 352 58 352 58 389 84 c 128,-1,32
 426 110 426 110 426 155 c 0,33,34
 426 241 426 241 292 241 c 2,35,-1
 186 241 l 1,36,-1
 191 309 l 1,37,-1
 286 309 l 2,0,1
EndSplineSet
EndChar

StartChar: uni0438
Encoding: 1080 1080 434
Width: 600
GlyphClass: 2
Flags: W
AnchorPoint: "Anchor-3" 300 527 basechar 0
AnchorPoint: "Anchor-2" 300 0 basechar 0
LayerCount: 2
Fore
SplineSet
500 0 m 1,0,-1
 416 0 l 1,1,-1
 416 246 l 2,2,3
 416 320 416 320 420.5 371 c 128,-1,4
 425 422 425 422 425 427 c 2,5,-1
 203 0 l 1,6,-1
 100 0 l 1,7,-1
 100 527 l 1,8,-1
 184 527 l 1,9,-1
 184 280 l 2,10,11
 184 217 184 217 180 162.5 c 128,-1,12
 176 108 176 108 176 103 c 2,13,-1
 395 527 l 1,14,-1
 500 527 l 1,15,-1
 500 0 l 1,0,-1
EndSplineSet
EndChar

StartChar: uni048B
Encoding: 1163 1163 437
Width: 600
Flags: W
LayerCount: 2
Fore
SplineSet
186 676.5 m 128,-1,1
 145 706 145 706 139 759 c 1,2,-1
 196 772 l 1,3,4
 207 740 207 740 228.5 726 c 128,-1,5
 250 712 250 712 286 712 c 256,6,7
 322 712 322 712 345 726 c 128,-1,8
 368 740 368 740 379 772 c 1,9,-1
 437 759 l 1,10,11
 431 706 431 706 388.5 676.5 c 128,-1,12
 346 647 346 647 286 647 c 0,13,0
 227 647 227 647 186 676.5 c 128,-1,1
561 66 m 1,14,-1
 494 -147 l 1,15,-1
 426 -147 l 1,16,-1
 460 0 l 1,17,-1
 402 0 l 1,18,-1
 402 246 l 2,19,20
 402 362 402 362 412 449 c 1,21,-1
 195 0 l 1,22,-1
 93 0 l 1,23,-1
 93 527 l 1,24,-1
 175 527 l 1,25,-1
 175 280 l 2,26,27
 175 222 175 222 171 165.5 c 128,-1,28
 167 109 167 109 161 80 c 1,29,-1
 381 527 l 1,30,-1
 484 527 l 1,31,-1
 484 66 l 1,32,-1
 561 66 l 1,14,-1
EndSplineSet
EndChar

StartChar: uni043A
Encoding: 1082 1082 438
Width: 600
GlyphClass: 2
Flags: W
AnchorPoint: "Anchor-3" 320 527 basechar 0
AnchorPoint: "Anchor-2" 300 0 basechar 0
LayerCount: 2
Fore
SplineSet
106 0 m 1,0,-1
 106 527 l 1,1,-1
 190 527 l 1,2,-1
 190 313 l 1,3,-1
 295 313 l 1,4,-1
 447 527 l 1,5,-1
 542 527 l 1,6,-1
 364 283 l 1,7,-1
 569 0 l 1,8,-1
 467 0 l 1,9,-1
 293 245 l 1,10,-1
 190 245 l 1,11,-1
 190 0 l 1,12,-1
 106 0 l 1,0,-1
EndSplineSet
EndChar

StartChar: uni043B
Encoding: 1083 1083 440
Width: 600
GlyphClass: 2
Flags: W
AnchorPoint: "Anchor-3" 300 527 basechar 0
AnchorPoint: "Anchor-2" 300 0 basechar 0
LayerCount: 2
Fore
SplineSet
510 0 m 1,0,-1
 426 0 l 1,1,-1
 426 456 l 1,2,-1
 229 456 l 1,3,-1
 217 317 l 2,4,5
 207 199 207 199 192.5 139 c 128,-1,6
 178 79 178 79 153 48 c 128,-1,7
 128 17 128 17 78 -11 c 1,8,-1
 42 43 l 1,9,10
 71 61 71 61 87.5 83.5 c 128,-1,11
 104 106 104 106 116.5 159 c 128,-1,12
 129 212 129 212 137 314 c 2,13,-1
 153 527 l 1,14,-1
 510 527 l 1,15,-1
 510 0 l 1,0,-1
EndSplineSet
EndChar

StartChar: uni043C
Encoding: 1084 1084 441
Width: 600
GlyphClass: 2
Flags: W
AnchorPoint: "Anchor-3" 300 527 basechar 0
AnchorPoint: "Anchor-2" 300 0 basechar 0
LayerCount: 2
Fore
SplineSet
558 0 m 1,0,-1
 477 0 l 1,1,-1
 457 257 l 2,2,3
 451 347 451 347 451 398 c 2,4,-1
 452 443 l 1,5,-1
 448 443 l 1,6,-1
 343 88 l 1,7,-1
 260 88 l 1,8,-1
 144 443 l 1,9,-1
 140 443 l 1,10,11
 141 427 141 427 141 392 c 0,12,13
 141 339 141 339 137 259 c 2,14,-1
 122 0 l 1,15,-1
 42 0 l 1,16,-1
 80 527 l 1,17,-1
 190 527 l 1,18,-1
 303 167 l 1,19,-1
 407 527 l 1,20,-1
 519 527 l 1,21,-1
 558 0 l 1,0,-1
EndSplineSet
EndChar

StartChar: uni043D
Encoding: 1085 1085 442
Width: 600
Flags: W
LayerCount: 2
Fore
SplineSet
416 0 m 1,0,-1
 416 234 l 1,1,-1
 184 234 l 1,2,-1
 184 0 l 1,3,-1
 100 0 l 1,4,-1
 100 527 l 1,5,-1
 184 527 l 1,6,-1
 184 303 l 1,7,-1
 416 303 l 1,8,-1
 416 527 l 1,9,-1
 500 527 l 1,10,-1
 500 0 l 1,11,-1
 416 0 l 1,0,-1
EndSplineSet
EndChar

StartChar: uni043E
Encoding: 1086 1086 443
Width: 600
GlyphClass: 2
Flags: W
AnchorPoint: "Anchor-3" 300 527 basechar 0
AnchorPoint: "Anchor-2" 300 0 basechar 0
LayerCount: 2
Fore
SplineSet
468.5 464.5 m 128,-1,1
 527 391 527 391 527 264 c 0,2,3
 527 140 527 140 467.5 64.5 c 128,-1,4
 408 -11 408 -11 300 -11 c 0,5,6
 191 -11 191 -11 132 62.5 c 128,-1,7
 73 136 73 136 73 263 c 0,8,9
 73 388 73 388 132.5 463 c 128,-1,10
 192 538 192 538 301 538 c 256,11,0
 410 538 410 538 468.5 464.5 c 128,-1,1
198 418 m 128,-1,13
 164 367 164 367 164 263 c 256,14,15
 164 159 164 159 197.5 108.5 c 128,-1,16
 231 58 231 58 300 58 c 256,17,18
 369 58 369 58 402.5 108.5 c 128,-1,19
 436 159 436 159 436 264 c 0,20,21
 436 368 436 368 402.5 418.5 c 128,-1,22
 369 469 369 469 301 469 c 0,23,12
 232 469 232 469 198 418 c 128,-1,13
EndSplineSet
EndChar

StartChar: uni043F
Encoding: 1087 1087 444
Width: 600
GlyphClass: 2
Flags: W
AnchorPoint: "Anchor-3" 300 527 basechar 0
AnchorPoint: "Anchor-2" 300 0 basechar 0
LayerCount: 2
Fore
SplineSet
416 0 m 1,0,-1
 416 458 l 1,1,-1
 184 458 l 1,2,-1
 184 0 l 1,3,-1
 100 0 l 1,4,-1
 100 527 l 1,5,-1
 500 527 l 1,6,-1
 500 0 l 1,7,-1
 416 0 l 1,0,-1
EndSplineSet
EndChar

StartChar: uni0442
Encoding: 1090 1090 447
Width: 600
GlyphClass: 2
Flags: W
AnchorPoint: "Anchor-3" 300 527 basechar 0
AnchorPoint: "Anchor-2" 300 0 basechar 0
LayerCount: 2
Fore
SplineSet
541 527 m 1,0,-1
 530 457 l 1,1,-1
 342 457 l 1,2,-1
 342 0 l 1,3,-1
 258 0 l 1,4,-1
 258 457 l 1,5,-1
 65 457 l 1,6,-1
 65 527 l 1,7,-1
 541 527 l 1,0,-1
EndSplineSet
EndChar

StartChar: uni0443
Encoding: 1091 1091 448
Width: 600
GlyphClass: 2
Flags: W
AnchorPoint: "Anchor-3" 300 527 basechar 0
AnchorPoint: "Anchor-2" 0 0 basechar 0
LayerCount: 2
Fore
SplineSet
354 -3 m 2,0,1
 323 -94 323 -94 269 -148 c 128,-1,2
 215 -202 215 -202 118 -212 c 1,3,-1
 106 -145 l 1,4,5
 159 -136 159 -136 190.5 -117.5 c 128,-1,6
 222 -99 222 -99 240 -71.5 c 128,-1,7
 258 -44 258 -44 273 0 c 1,8,-1
 245 0 l 1,9,-1
 62 527 l 1,10,-1
 151 527 l 1,11,-1
 302 64 l 1,12,-1
 451 527 l 1,13,-1
 538 527 l 1,14,-1
 354 -3 l 2,0,1
EndSplineSet
EndChar

StartChar: uni0444
Encoding: 1092 1092 450
Width: 600
GlyphClass: 2
Flags: W
AnchorPoint: "Anchor-3" 300 739 basechar 0
AnchorPoint: "Anchor-2" 300 -200 basechar 0
LayerCount: 2
Fore
SplineSet
338 738 m 1,0,-1
 338 484 l 1,1,2
 379 538 379 538 436 538 c 0,3,4
 510 538 510 538 540.5 467.5 c 128,-1,5
 571 397 571 397 571 264 c 0,6,7
 571 138 571 138 533.5 63.5 c 128,-1,8
 496 -11 496 -11 427 -11 c 0,9,10
 403 -11 403 -11 380 3 c 128,-1,11
 357 17 357 17 338 45 c 1,12,-1
 338 -201 l 1,13,-1
 262 -212 l 1,14,-1
 262 45 l 1,15,16
 243 18 243 18 219 3.5 c 128,-1,17
 195 -11 195 -11 171 -11 c 0,18,19
 102 -11 102 -11 65.5 63 c 128,-1,20
 29 137 29 137 29 264 c 0,21,22
 29 396 29 396 61.5 467 c 128,-1,23
 94 538 94 538 169 538 c 0,24,25
 223 538 223 538 262 486 c 1,26,-1
 262 749 l 1,27,-1
 338 738 l 1,0,-1
133.5 422.5 m 128,-1,29
 116 374 116 374 116 264 c 0,30,31
 116 153 116 153 133.5 104 c 128,-1,32
 151 55 151 55 188 55 c 0,33,34
 208 55 208 55 223.5 66.5 c 128,-1,35
 239 78 239 78 262 106 c 1,36,-1
 262 424 l 1,37,38
 241 450 241 450 225.5 460.5 c 128,-1,39
 210 471 210 471 188 471 c 0,40,28
 151 471 151 471 133.5 422.5 c 128,-1,29
376 460 m 128,-1,42
 358 449 358 449 338 423 c 1,43,-1
 338 106 l 1,44,45
 357 79 357 79 373 67 c 128,-1,46
 389 55 389 55 410 55 c 0,47,48
 448 55 448 55 466.5 105 c 128,-1,49
 485 155 485 155 485 264 c 0,50,51
 485 376 485 376 469.5 423.5 c 128,-1,52
 454 471 454 471 417 471 c 0,53,41
 394 471 394 471 376 460 c 128,-1,42
EndSplineSet
EndChar

StartChar: uni0447
Encoding: 1095 1095 452
Width: 600
GlyphClass: 2
Flags: W
AnchorPoint: "Anchor-3" 287 527 basechar 0
AnchorPoint: "Anchor-2" 300 0 basechar 0
LayerCount: 2
Fore
SplineSet
489 0 m 1,0,-1
 405 0 l 1,1,-1
 405 223 l 1,2,3
 374 196 374 196 331 180 c 128,-1,4
 288 164 288 164 240 164 c 0,5,6
 164 164 164 164 124.5 204.5 c 128,-1,7
 85 245 85 245 85 319 c 2,8,-1
 85 527 l 1,9,-1
 169 527 l 1,10,-1
 169 329 l 2,11,12
 169 276 169 276 191 253 c 128,-1,13
 213 230 213 230 261 230 c 0,14,15
 300 230 300 230 341 246.5 c 128,-1,16
 382 263 382 263 405 290 c 1,17,-1
 405 527 l 1,18,-1
 489 527 l 1,19,-1
 489 0 l 1,0,-1
EndSplineSet
EndChar

StartChar: uni0446
Encoding: 1094 1094 453
Width: 600
GlyphClass: 2
Flags: W
AnchorPoint: "Anchor-3" 0 0 basechar 0
AnchorPoint: "Anchor-2" 294 0 basechar 0
LayerCount: 2
Fore
SplineSet
494 69 m 1,0,-1
 575 69 l 1,1,-1
 575 -147 l 1,2,-1
 505 -147 l 1,3,-1
 491 0 l 1,4,-1
 94 0 l 1,5,-1
 94 527 l 1,6,-1
 178 527 l 1,7,-1
 178 70 l 1,8,-1
 410 70 l 1,9,-1
 410 527 l 1,10,-1
 494 527 l 1,11,-1
 494 69 l 1,0,-1
EndSplineSet
EndChar

StartChar: uni0448
Encoding: 1096 1096 454
Width: 600
GlyphClass: 2
Flags: W
AnchorPoint: "Anchor-3" 300 527 basechar 0
AnchorPoint: "Anchor-2" 300 0 basechar 0
LayerCount: 2
Fore
SplineSet
551 527 m 1,0,-1
 551 0 l 1,1,-1
 49 0 l 1,2,-1
 49 527 l 1,3,-1
 128 527 l 1,4,-1
 128 70 l 1,5,-1
 261 70 l 1,6,-1
 261 527 l 1,7,-1
 339 527 l 1,8,-1
 339 70 l 1,9,-1
 473 70 l 1,10,-1
 473 527 l 1,11,-1
 551 527 l 1,0,-1
EndSplineSet
EndChar

StartChar: uni0449
Encoding: 1097 1097 455
Width: 600
GlyphClass: 2
Flags: W
AnchorPoint: "Anchor-3" 300 527 basechar 0
AnchorPoint: "Anchor-2" 300 0 basechar 0
LayerCount: 2
Fore
SplineSet
551 69 m 1,0,-1
 622 69 l 1,1,-1
 622 -147 l 1,2,-1
 552 -147 l 1,3,-1
 538 0 l 1,4,-1
 49 0 l 1,5,-1
 49 527 l 1,6,-1
 128 527 l 1,7,-1
 128 70 l 1,8,-1
 261 70 l 1,9,-1
 261 527 l 1,10,-1
 339 527 l 1,11,-1
 339 70 l 1,12,-1
 473 70 l 1,13,-1
 473 527 l 1,14,-1
 551 527 l 1,15,-1
 551 69 l 1,0,-1
EndSplineSet
EndChar

StartChar: uni045F
Encoding: 1119 1119 456
Width: 600
GlyphClass: 2
Flags: W
AnchorPoint: "Anchor-3" 0 0 basechar 0
AnchorPoint: "Anchor-2" 300 0 basechar 0
LayerCount: 2
Fore
SplineSet
500 527 m 1,0,-1
 500 0 l 1,1,-1
 342 0 l 1,2,-1
 342 -147 l 1,3,-1
 272 -147 l 1,4,-1
 258 0 l 1,5,-1
 100 0 l 1,6,-1
 100 527 l 1,7,-1
 184 527 l 1,8,-1
 184 70 l 1,9,-1
 416 70 l 1,10,-1
 416 527 l 1,11,-1
 500 527 l 1,0,-1
EndSplineSet
EndChar

StartChar: uni044C
Encoding: 1100 1100 457
Width: 600
GlyphClass: 2
Flags: W
AnchorPoint: "Anchor-3" 300 527 basechar 0
AnchorPoint: "Anchor-2" 300 0 basechar 0
LayerCount: 2
Fore
SplineSet
210 361 m 1,0,-1
 313 361 l 2,1,2
 431 361 431 361 482.5 314.5 c 128,-1,3
 534 268 534 268 534 181 c 0,4,5
 534 121 534 121 506 80 c 128,-1,6
 478 39 478 39 432 19.5 c 128,-1,7
 386 0 386 0 332 0 c 2,8,-1
 126 0 l 1,9,-1
 126 527 l 1,10,-1
 210 527 l 1,11,-1
 210 361 l 1,0,-1
210 295 m 1,12,-1
 210 68 l 1,13,-1
 323 68 l 2,14,15
 380 68 380 68 411.5 93.5 c 128,-1,16
 443 119 443 119 443 181 c 0,17,18
 443 240 443 240 414 267.5 c 128,-1,19
 385 295 385 295 312 295 c 2,20,-1
 210 295 l 1,12,-1
EndSplineSet
EndChar

StartChar: uni044A
Encoding: 1098 1098 458
Width: 600
Flags: W
LayerCount: 2
Fore
SplineSet
242 361 m 1,0,-1
 305 361 l 2,1,2
 545 361 545 361 545 184 c 0,3,4
 545 0 545 0 305 0 c 2,5,-1
 158 0 l 1,6,-1
 158 462 l 1,7,-1
 33 462 l 1,8,-1
 33 527 l 1,9,-1
 242 527 l 1,10,-1
 242 361 l 1,0,-1
242 295 m 1,11,-1
 242 68 l 1,12,-1
 314 68 l 2,13,14
 381 68 381 68 418 93 c 128,-1,15
 455 118 455 118 455 183 c 0,16,17
 455 242 455 242 419 268.5 c 128,-1,18
 383 295 383 295 315 295 c 2,19,-1
 242 295 l 1,11,-1
EndSplineSet
EndChar

StartChar: uni044B
Encoding: 1099 1099 459
Width: 600
GlyphClass: 2
Flags: W
AnchorPoint: "Anchor-3" 300 527 basechar 0
AnchorPoint: "Anchor-2" 300 0 basechar 0
LayerCount: 2
Fore
SplineSet
142 356 m 1,0,-1
 178 356 l 2,1,2
 286 356 286 356 344 313.5 c 128,-1,3
 402 271 402 271 402 183 c 0,4,5
 402 90 402 90 343 45 c 128,-1,6
 284 0 284 0 178 0 c 2,7,-1
 62 0 l 1,8,-1
 62 527 l 1,9,-1
 142 527 l 1,10,-1
 142 356 l 1,0,-1
538 527 m 1,11,-1
 538 0 l 1,12,-1
 457 0 l 1,13,-1
 457 527 l 1,14,-1
 538 527 l 1,11,-1
142 293 m 1,15,-1
 142 65 l 1,16,-1
 181 65 l 2,17,18
 248 65 248 65 281.5 91 c 128,-1,19
 315 117 315 117 315 182 c 0,20,21
 315 241 315 241 283 267 c 128,-1,22
 251 293 251 293 181 293 c 2,23,-1
 142 293 l 1,15,-1
EndSplineSet
EndChar

StartChar: uni0459
Encoding: 1113 1113 460
Width: 600
GlyphClass: 2
Flags: W
AnchorPoint: "Anchor-3" 300 527 basechar 0
AnchorPoint: "Anchor-2" 300 0 basechar 0
LayerCount: 2
Fore
SplineSet
363 356 m 1,0,-1
 376 356 l 2,1,2
 480 356 480 356 536 313.5 c 128,-1,3
 592 271 592 271 592 183 c 0,4,5
 592 92 592 92 535 46 c 128,-1,6
 478 0 478 0 377 0 c 2,7,-1
 282 0 l 1,8,-1
 282 460 l 1,9,-1
 176 460 l 1,10,-1
 170 321 l 2,11,12
 165 209 165 209 150 146.5 c 128,-1,13
 135 84 135 84 108.5 51 c 128,-1,14
 82 18 82 18 34 -11 c 1,15,-1
 3 45 l 1,16,17
 27 65 27 65 42 88.5 c 128,-1,18
 57 112 57 112 69 165.5 c 128,-1,19
 81 219 81 219 87 315 c 2,20,-1
 98 527 l 1,21,-1
 363 527 l 1,22,-1
 363 356 l 1,0,-1
363 293 m 1,23,-1
 363 66 l 1,24,-1
 383 66 l 2,25,26
 445 66 445 66 474.5 91.5 c 128,-1,27
 504 117 504 117 504 183 c 0,28,29
 504 242 504 242 475 267.5 c 128,-1,30
 446 293 446 293 381 293 c 2,31,-1
 363 293 l 1,23,-1
EndSplineSet
EndChar

StartChar: uni045A
Encoding: 1114 1114 461
Width: 600
GlyphClass: 2
Flags: W
AnchorPoint: "Anchor-3" 300 527 basechar 0
AnchorPoint: "Anchor-2" 300 0 basechar 0
LayerCount: 2
Fore
SplineSet
366 328 m 1,0,-1
 379 328 l 2,1,2
 484 328 484 328 539.5 289.5 c 128,-1,3
 595 251 595 251 595 165 c 0,4,5
 595 0 595 0 382 0 c 2,6,-1
 285 0 l 1,7,-1
 285 266 l 1,8,-1
 155 266 l 1,9,-1
 155 0 l 1,10,-1
 72 0 l 1,11,-1
 72 527 l 1,12,-1
 155 527 l 1,13,-1
 155 328 l 1,14,-1
 285 328 l 1,15,-1
 285 527 l 1,16,-1
 366 527 l 1,17,-1
 366 328 l 1,0,-1
366 266 m 1,18,-1
 366 65 l 1,19,-1
 385 65 l 2,20,21
 427 65 427 65 452.5 72 c 128,-1,22
 478 79 478 79 492.5 100.5 c 128,-1,23
 507 122 507 122 507 165 c 0,24,25
 507 222 507 222 478 244 c 128,-1,26
 449 266 449 266 383 266 c 2,27,-1
 366 266 l 1,18,-1
EndSplineSet
EndChar

StartChar: uni0454
Encoding: 1108 1108 463
Width: 600
GlyphClass: 2
Flags: W
AnchorPoint: "Anchor-3" 300 527 basechar 0
AnchorPoint: "Anchor-2" 300 0 basechar 0
LayerCount: 2
Fore
SplineSet
516 480 m 1,1,-1
 476 425 l 1,2,3
 442 449 442 449 409 459.5 c 128,-1,4
 376 470 376 470 338 470 c 0,5,6
 275 470 275 470 232 427 c 128,-1,7
 189 384 189 384 180 303 c 1,8,-1
 420 303 l 1,9,-1
 420 237 l 1,10,-1
 179 237 l 1,11,12
 184 147 184 147 227 103 c 128,-1,13
 270 59 270 59 338 59 c 0,14,15
 377 59 377 59 410 70 c 128,-1,16
 443 81 443 81 477 104 c 1,17,-1
 516 50 l 1,18,19
 482 21 482 21 434 5 c 128,-1,20
 386 -11 386 -11 341 -11 c 0,21,22
 222 -11 222 -11 156.5 62.5 c 128,-1,23
 91 136 91 136 91 261 c 0,24,25
 91 341 91 341 120.5 403.5 c 128,-1,26
 150 466 150 466 206.5 502 c 128,-1,27
 263 538 263 538 340 538 c 0,28,0
 442 538 442 538 516 480 c 1,1,-1
EndSplineSet
EndChar

StartChar: uni044D
Encoding: 1101 1101 464
Width: 600
GlyphClass: 2
Flags: W
AnchorPoint: "Anchor-3" 294 527 basechar 0
AnchorPoint: "Anchor-2" 300 0 basechar 0
LayerCount: 2
Fore
SplineSet
456 466 m 128,-1,1
 516 394 516 394 516 266 c 0,2,3
 516 139 516 139 453 64 c 128,-1,4
 390 -11 390 -11 273 -11 c 0,5,6
 224 -11 224 -11 175.5 5 c 128,-1,7
 127 21 127 21 91 51 c 1,8,-1
 132 107 l 1,9,10
 196 59 196 59 272 59 c 0,11,12
 342 59 342 59 383 102.5 c 128,-1,13
 424 146 424 146 429 237 c 1,14,-1
 181 237 l 1,15,-1
 181 303 l 1,16,-1
 428 303 l 1,17,18
 421 387 421 387 382 428.5 c 128,-1,19
 343 470 343 470 277 470 c 0,20,21
 199 470 199 470 136 423 c 1,22,-1
 96 477 l 1,23,24
 131 506 131 506 180 522 c 128,-1,25
 229 538 229 538 278 538 c 0,26,0
 396 538 396 538 456 466 c 128,-1,1
EndSplineSet
EndChar

StartChar: uni044E
Encoding: 1102 1102 469
Width: 600
GlyphClass: 2
Flags: W
AnchorPoint: "Anchor-3" 300 527 basechar 0
AnchorPoint: "Anchor-2" 300 0 basechar 0
LayerCount: 2
Fore
SplineSet
522 466.5 m 128,-1,1
 568 395 568 395 568 264 c 0,2,3
 568 136 568 136 522.5 62.5 c 128,-1,4
 477 -11 477 -11 385 -11 c 0,5,6
 298 -11 298 -11 254 55.5 c 128,-1,7
 210 122 210 122 205 234 c 1,8,-1
 138 234 l 1,9,-1
 138 0 l 1,10,-1
 56 0 l 1,11,-1
 56 527 l 1,12,-1
 138 527 l 1,13,-1
 138 304 l 1,14,-1
 205 304 l 1,15,16
 211 416 211 416 255.5 477 c 128,-1,17
 300 538 300 538 385 538 c 0,18,0
 476 538 476 538 522 466.5 c 128,-1,1
312 420.5 m 128,-1,20
 292 372 292 372 292 263 c 0,21,22
 292 160 292 160 312 109 c 128,-1,23
 332 58 332 58 385 58 c 0,24,25
 439 58 439 58 459 109 c 128,-1,26
 479 160 479 160 479 264 c 0,27,28
 479 371 479 371 458 420 c 128,-1,29
 437 469 437 469 385 469 c 0,30,19
 332 469 332 469 312 420.5 c 128,-1,20
EndSplineSet
EndChar

StartChar: uni044F
Encoding: 1103 1103 470
Width: 600
GlyphClass: 2
Flags: W
AnchorPoint: "Anchor-3" 300 527 basechar 0
AnchorPoint: "Anchor-2" 300 0 basechar 0
LayerCount: 2
Fore
SplineSet
486 527 m 1,0,-1
 486 0 l 1,1,-1
 402 0 l 1,2,-1
 402 204 l 1,3,-1
 260 204 l 1,4,-1
 148 0 l 1,5,-1
 53 0 l 1,6,-1
 178 223 l 1,7,8
 85 267 85 267 85 367 c 0,9,10
 85 445 85 445 139.5 486 c 128,-1,11
 194 527 194 527 293 527 c 2,12,-1
 486 527 l 1,0,-1
402 271 m 1,13,-1
 402 459 l 1,14,-1
 291 459 l 2,15,16
 232 459 232 459 203 437 c 128,-1,17
 174 415 174 415 174 367 c 0,18,19
 174 316 174 316 200.5 293.5 c 128,-1,20
 227 271 227 271 288 271 c 2,21,-1
 402 271 l 1,13,-1
EndSplineSet
EndChar

StartChar: uni0452
Encoding: 1106 1106 471
Width: 600
GlyphClass: 2
Flags: W
AnchorPoint: "Anchor-3" 300 739 basechar 0
AnchorPoint: "Anchor-2" 300 -200 basechar 0
LayerCount: 2
Fore
SplineSet
184 665 m 1,0,-1
 353 665 l 1,1,-1
 353 597 l 1,2,-1
 184 597 l 1,3,-1
 184 458 l 1,4,5
 215 495 215 495 260.5 516.5 c 128,-1,6
 306 538 306 538 353 538 c 0,7,8
 501 538 501 538 501 382 c 2,9,-1
 501 26 l 2,10,11
 501 -45 501 -45 484 -89 c 128,-1,12
 467 -133 467 -133 434.5 -159.5 c 128,-1,13
 402 -186 402 -186 346 -211 c 1,14,-1
 315 -150 l 1,15,16
 354 -131 354 -131 375 -113.5 c 128,-1,17
 396 -96 396 -96 406.5 -64 c 128,-1,18
 417 -32 417 -32 417 24 c 2,19,-1
 417 378 l 2,20,21
 417 427 417 427 395 449 c 128,-1,22
 373 471 373 471 325 471 c 0,23,24
 284 471 284 471 246 445 c 128,-1,25
 208 419 208 419 184 384 c 1,26,-1
 184 0 l 1,27,-1
 100 0 l 1,28,-1
 100 597 l 1,29,-1
 19 597 l 1,30,-1
 19 665 l 1,31,-1
 100 665 l 1,32,-1
 100 738 l 1,33,-1
 184 747 l 1,34,-1
 184 665 l 1,0,-1
EndSplineSet
EndChar

StartChar: uni0463
Encoding: 1123 1123 473
Width: 600
GlyphClass: 2
Flags: W
AnchorPoint: "Anchor-3" 187 652 basechar 0
AnchorPoint: "Anchor-2" 300 0 basechar 0
LayerCount: 2
Fore
SplineSet
229 536 m 1,0,-1
 362 536 l 1,1,-1
 351 468 l 1,2,-1
 229 468 l 1,3,-1
 229 356 l 1,4,-1
 299 356 l 2,5,6
 540 356 540 356 540 180 c 0,7,8
 540 0 540 0 298 0 c 2,9,-1
 145 0 l 1,10,-1
 145 468 l 1,11,-1
 58 468 l 1,12,-1
 58 536 l 1,13,-1
 145 536 l 1,14,-1
 145 645 l 1,15,-1
 229 655 l 1,16,-1
 229 536 l 1,0,-1
229 290 m 1,17,-1
 229 68 l 1,18,-1
 309 68 l 2,19,20
 376 68 376 68 413 92 c 128,-1,21
 450 116 450 116 450 180 c 0,22,23
 450 238 450 238 414 264 c 128,-1,24
 378 290 378 290 309 290 c 2,25,-1
 229 290 l 1,17,-1
EndSplineSet
EndChar

StartChar: uni0465
Encoding: 1125 1125 474
Width: 600
GlyphClass: 2
Flags: W
AnchorPoint: "Anchor-3" 300 527 basechar 0
AnchorPoint: "Anchor-2" 300 0 basechar 0
LayerCount: 2
Fore
SplineSet
487 70.5 m 128,-1,1
 510 81 510 81 535 102 c 1,2,-1
 581 50 l 1,3,4
 550 20 550 20 511.5 4.5 c 128,-1,5
 473 -11 473 -11 436 -11 c 0,6,7
 343 -11 343 -11 286.5 54.5 c 128,-1,8
 230 120 230 120 224 234 c 1,9,-1
 160 234 l 1,10,-1
 160 0 l 1,11,-1
 76 0 l 1,12,-1
 76 527 l 1,13,-1
 160 527 l 1,14,-1
 160 304 l 1,15,-1
 225 304 l 1,16,17
 234 410 234 410 289.5 474 c 128,-1,18
 345 538 345 538 439 538 c 0,19,20
 480 538 480 538 515 524 c 128,-1,21
 550 510 550 510 584 481 c 1,22,-1
 541 429 l 1,23,24
 515 449 515 449 491 459 c 128,-1,25
 467 469 467 469 437 469 c 0,26,27
 380 469 380 469 348.5 426.5 c 128,-1,28
 317 384 317 384 308 303 c 1,29,-1
 506 303 l 1,30,-1
 506 237 l 1,31,-1
 307 237 l 1,32,33
 310 148 310 148 344 104 c 128,-1,34
 378 60 378 60 434 60 c 0,35,0
 464 60 464 60 487 70.5 c 128,-1,1
EndSplineSet
EndChar

StartChar: uni0467
Encoding: 1127 1127 475
Width: 600
GlyphClass: 2
Flags: W
AnchorPoint: "Anchor-3" 300 527 basechar 0
AnchorPoint: "Anchor-2" 300 0 basechar 0
LayerCount: 2
Fore
SplineSet
476 0 m 1,0,-1
 397 204 l 1,1,-1
 334 204 l 1,2,-1
 334 0 l 1,3,-1
 262 0 l 1,4,-1
 262 204 l 1,5,-1
 201 204 l 1,6,-1
 122 0 l 1,7,-1
 36 0 l 1,8,-1
 253 527 l 1,9,-1
 350 527 l 1,10,-1
 565 0 l 1,11,-1
 476 0 l 1,0,-1
227 272 m 1,12,-1
 371 272 l 1,13,-1
 299 458 l 1,14,-1
 227 272 l 1,12,-1
EndSplineSet
EndChar

StartChar: uni0469
Encoding: 1129 1129 476
Width: 600
GlyphClass: 2
Flags: W
AnchorPoint: "Anchor-3" 300 527 basechar 0
AnchorPoint: "Anchor-2" 300 0 basechar 0
LayerCount: 2
Fore
SplineSet
513 0 m 1,0,-1
 456 205 l 1,1,-1
 416 205 l 1,2,-1
 416 0 l 1,3,-1
 348 0 l 1,4,-1
 348 205 l 1,5,-1
 312 205 l 1,6,-1
 254 0 l 1,7,-1
 176 0 l 1,8,-1
 238 205 l 1,9,-1
 135 205 l 1,10,-1
 135 0 l 1,11,-1
 52 0 l 1,12,-1
 52 527 l 1,13,-1
 135 527 l 1,14,-1
 135 274 l 1,15,-1
 259 274 l 1,16,-1
 335 527 l 1,17,-1
 437 527 l 1,18,-1
 594 0 l 1,19,-1
 513 0 l 1,0,-1
331 274 m 1,20,-1
 436 274 l 1,21,-1
 384 460 l 1,22,-1
 331 274 l 1,20,-1
EndSplineSet
EndChar

StartChar: uni046B
Encoding: 1131 1131 477
Width: 600
GlyphClass: 2
Flags: W
AnchorPoint: "Anchor-3" 300 527 basechar 0
AnchorPoint: "Anchor-2" 300 0 basechar 0
LayerCount: 2
Fore
SplineSet
469 299 m 1,0,-1
 578 0 l 1,1,-1
 501 0 l 1,2,-1
 416 232 l 1,3,-1
 341 232 l 1,4,-1
 341 0 l 1,5,-1
 258 0 l 1,6,-1
 258 232 l 1,7,-1
 185 232 l 1,8,-1
 101 0 l 1,9,-1
 22 0 l 1,10,-1
 131 299 l 1,11,-1
 222 299 l 1,12,-1
 101 481 l 1,13,-1
 101 527 l 1,14,-1
 494 527 l 1,15,-1
 494 481 l 1,16,-1
 372 299 l 1,17,-1
 469 299 l 1,0,-1
195 462 m 1,18,-1
 299 299 l 1,19,-1
 403 462 l 1,20,-1
 195 462 l 1,18,-1
EndSplineSet
EndChar

StartChar: uni046D
Encoding: 1133 1133 478
Width: 600
GlyphClass: 2
Flags: W
AnchorPoint: "Anchor-3" 300 527 basechar 0
AnchorPoint: "Anchor-2" 300 0 basechar 0
LayerCount: 2
Fore
SplineSet
511 298 m 1,0,-1
 612 0 l 1,1,-1
 532 0 l 1,2,-1
 459 229 l 1,3,-1
 422 229 l 1,4,-1
 422 0 l 1,5,-1
 344 0 l 1,6,-1
 344 229 l 1,7,-1
 308 229 l 1,8,-1
 233 0 l 1,9,-1
 154 0 l 1,10,-1
 234 229 l 1,11,-1
 117 229 l 1,12,-1
 117 0 l 1,13,-1
 35 0 l 1,14,-1
 35 527 l 1,15,-1
 117 527 l 1,16,-1
 117 298 l 1,17,-1
 310 298 l 1,18,-1
 203 481 l 1,19,-1
 203 527 l 1,20,-1
 558 527 l 1,21,-1
 558 481 l 1,22,-1
 452 298 l 1,23,-1
 511 298 l 1,0,-1
293 464 m 1,24,-1
 384 298 l 1,25,-1
 472 464 l 1,26,-1
 293 464 l 1,24,-1
EndSplineSet
EndChar

StartChar: uni046F
Encoding: 1135 1135 479
Width: 600
GlyphClass: 2
Flags: W
AnchorPoint: "Anchor-3" 285 527 basechar 0
AnchorPoint: "Anchor-2" 0 0 basechar 0
LayerCount: 2
Fore
SplineSet
410 789 m 1,0,-1
 448 748 l 1,1,-1
 314 629 l 1,2,-1
 257 629 l 1,3,-1
 122 748 l 1,4,-1
 162 789 l 1,5,-1
 286 699 l 1,6,-1
 410 789 l 1,0,-1
118 -151 m 128,-1,8
 86 -117 86 -117 86 -75 c 0,9,10
 86 -25 86 -25 128 2.5 c 128,-1,11
 170 30 170 30 262 39 c 0,12,13
 352 48 352 48 389.5 68 c 128,-1,14
 427 88 427 88 427 135 c 0,15,16
 427 179 427 179 404.5 198.5 c 128,-1,17
 382 218 382 218 340 218 c 2,18,-1
 168 218 l 1,19,-1
 168 282 l 1,20,-1
 377 455 l 1,21,-1
 80 455 l 1,22,-1
 80 527 l 1,23,-1
 489 527 l 1,24,-1
 489 461 l 1,25,-1
 265 282 l 1,26,-1
 339 282 l 2,27,28
 423 282 423 282 470.5 245.5 c 128,-1,29
 518 209 518 209 518 134 c 0,30,31
 518 -5 518 -5 306 -29 c 0,32,33
 251 -35 251 -35 222.5 -41.5 c 128,-1,34
 194 -48 194 -48 183 -57 c 128,-1,35
 172 -66 172 -66 172 -82 c 0,36,37
 172 -102 172 -102 191 -120 c 128,-1,38
 210 -138 210 -138 249 -158 c 1,39,-1
 216 -214 l 1,40,7
 150 -185 150 -185 118 -151 c 128,-1,8
EndSplineSet
EndChar

StartChar: uni0475
Encoding: 1141 1141 482
Width: 600
GlyphClass: 2
Flags: W
AnchorPoint: "Anchor-3" 300 527 basechar 0
AnchorPoint: "Anchor-2" 300 0 basechar 0
LayerCount: 2
Fore
SplineSet
57 527 m 1,0,-1
 149 527 l 1,1,-1
 292 77 l 1,2,-1
 416 467 l 2,3,4
 435 526 435 526 458.5 550 c 128,-1,5
 482 574 482 574 528 574 c 0,6,7
 557 574 557 574 597 555 c 1,8,-1
 569 499 l 1,9,10
 554 505 554 505 538 505 c 0,11,12
 521 505 521 505 511.5 495 c 128,-1,13
 502 485 502 485 494 460 c 2,14,-1
 342 0 l 1,15,-1
 240 0 l 1,16,-1
 57 527 l 1,0,-1
EndSplineSet
EndChar

StartChar: uni0479
Encoding: 1145 1145 484
Width: 600
Flags: W
LayerCount: 2
Fore
SplineSet
0 263 m 0,1,2
 0 391 0 391 37.5 464.5 c 128,-1,3
 75 538 75 538 154 538 c 0,4,5
 307 538 307 538 307 264 c 0,6,7
 307 136 307 136 269.5 62.5 c 128,-1,8
 232 -11 232 -11 153 -11 c 0,9,0
 0 -11 0 -11 0 263 c 0,1,2
258 -149 m 1,10,11
 338 -133 338 -133 376.5 -101 c 128,-1,12
 415 -69 415 -69 431 0 c 1,13,-1
 393 0 l 1,14,-1
 299 527 l 1,15,-1
 388 527 l 1,16,-1
 454 64 l 1,17,-1
 519 527 l 1,18,-1
 605 527 l 1,19,-1
 513 7 l 2,20,21
 494 -94 494 -94 434.5 -147.5 c 128,-1,22
 375 -201 375 -201 270 -212 c 1,23,-1
 258 -149 l 1,10,11
207 104.5 m 128,-1,25
 222 153 222 153 222 264 c 256,26,27
 222 375 222 375 207.5 423.5 c 128,-1,28
 193 472 193 472 154 472 c 256,29,30
 115 472 115 472 100 423.5 c 128,-1,31
 85 375 85 375 85 263 c 0,32,33
 85 152 85 152 99.5 104 c 128,-1,34
 114 56 114 56 153 56 c 256,35,24
 192 56 192 56 207 104.5 c 128,-1,25
EndSplineSet
EndChar

StartChar: uni0493
Encoding: 1171 1171 485
Width: 600
GlyphClass: 2
Flags: W
AnchorPoint: "Anchor-3" 370 527 basechar 0
AnchorPoint: "Anchor-2" 230 0 basechar 0
LayerCount: 2
Fore
SplineSet
544 456 m 1,0,-1
 272 456 l 1,1,-1
 272 302 l 1,2,-1
 397 302 l 1,3,-1
 397 235 l 1,4,-1
 272 235 l 1,5,-1
 272 0 l 1,6,-1
 188 0 l 1,7,-1
 188 235 l 1,8,-1
 94 235 l 1,9,-1
 94 302 l 1,10,-1
 188 302 l 1,11,-1
 188 527 l 1,12,-1
 554 527 l 1,13,-1
 544 456 l 1,0,-1
EndSplineSet
EndChar

StartChar: uni0495
Encoding: 1173 1173 486
Width: 600
GlyphClass: 2
Flags: W
AnchorPoint: "Anchor-3" 300 527 basechar 0
AnchorPoint: "Anchor-2" 300 -200 basechar 0
LayerCount: 2
Fore
SplineSet
454.5 307 m 128,-1,1
 497 265 497 265 497 193 c 2,2,-1
 497 -61 l 2,3,4
 497 -134 497 -134 457.5 -172.5 c 128,-1,5
 418 -211 418 -211 351 -211 c 0,6,7
 287 -211 287 -211 238 -174 c 1,8,-1
 272 -120 l 1,9,10
 294 -132 294 -132 309 -137.5 c 128,-1,11
 324 -143 324 -143 347 -143 c 0,12,13
 413 -143 413 -143 413 -68 c 2,14,-1
 413 185 l 2,15,16
 413 235 413 235 390.5 259 c 128,-1,17
 368 283 368 283 328 283 c 0,18,19
 284 283 284 283 251 261 c 128,-1,20
 218 239 218 239 187 199 c 1,21,-1
 186 202 l 1,22,-1
 186 0 l 1,23,-1
 102 0 l 1,24,-1
 102 527 l 1,25,-1
 424 527 l 1,26,-1
 414 460 l 1,27,-1
 186 460 l 1,28,-1
 186 272 l 1,29,30
 215 307 215 307 255.5 328 c 128,-1,31
 296 349 296 349 346 349 c 0,32,0
 412 349 412 349 454.5 307 c 128,-1,1
EndSplineSet
EndChar

StartChar: uni0497
Encoding: 1175 1175 487
Width: 600
Flags: W
LayerCount: 2
Fore
SplineSet
547 69 m 1,0,-1
 601 69 l 1,1,-1
 601 -147 l 1,2,-1
 540 -147 l 1,3,-1
 526 0 l 1,4,-1
 491 0 l 1,5,-1
 391 247 l 1,6,-1
 337 247 l 1,7,-1
 337 0 l 1,8,-1
 263 0 l 1,9,-1
 263 247 l 1,10,-1
 206 247 l 1,11,-1
 107 0 l 1,12,-1
 24 0 l 1,13,-1
 142 283 l 1,14,-1
 34 527 l 1,15,-1
 119 527 l 1,16,-1
 207 312 l 1,17,-1
 263 312 l 1,18,-1
 263 527 l 1,19,-1
 337 527 l 1,20,-1
 337 312 l 1,21,-1
 393 312 l 1,22,-1
 484 527 l 1,23,-1
 566 527 l 1,24,-1
 458 283 l 1,25,-1
 547 69 l 1,0,-1
EndSplineSet
EndChar

StartChar: uni0499
Encoding: 1177 1177 488
Width: 600
GlyphClass: 2
Flags: W
AnchorPoint: "Anchor-3" 294 527 basechar 0
AnchorPoint: "Anchor-2" 301 0 basechar 0
LayerCount: 2
Fore
SplineSet
463.5 42.5 m 128,-1,1
 410 0 410 0 321 -9 c 1,2,-1
 321 -57 l 1,3,4
 367 -61 367 -61 390.5 -84.5 c 128,-1,5
 414 -108 414 -108 414 -140 c 0,6,7
 414 -187 414 -187 378.5 -212.5 c 128,-1,8
 343 -238 343 -238 292 -238 c 0,9,10
 262 -238 262 -238 234.5 -231.5 c 128,-1,11
 207 -225 207 -225 187 -214 c 1,12,-1
 214 -166 l 1,13,14
 244 -182 244 -182 281 -182 c 0,15,16
 341 -182 341 -182 341 -141 c 0,17,18
 341 -115 341 -115 320 -106 c 128,-1,19
 299 -97 299 -97 255 -97 c 1,20,-1
 261 -11 l 1,21,22
 136 -6 136 -6 54 62 c 1,23,-1
 94 116 l 1,24,25
 175 58 175 58 281 58 c 0,26,27
 352 58 352 58 389 84 c 128,-1,28
 426 110 426 110 426 155 c 0,29,30
 426 241 426 241 292 241 c 2,31,-1
 186 241 l 1,32,-1
 191 309 l 1,33,-1
 286 309 l 2,34,35
 339 309 339 309 369.5 331 c 128,-1,36
 400 353 400 353 400 389 c 0,37,38
 400 470 400 470 276 470 c 0,39,40
 235 470 235 470 192 458 c 128,-1,41
 149 446 149 446 113 424 c 1,42,-1
 73 474 l 1,43,44
 113 504 113 504 168 521 c 128,-1,45
 223 538 223 538 279 538 c 0,46,47
 370 538 370 538 429 500.5 c 128,-1,48
 488 463 488 463 488 394 c 0,49,50
 488 352 488 352 459 323.5 c 128,-1,51
 430 295 430 295 381 281 c 1,52,53
 413 280 413 280 444.5 265 c 128,-1,54
 476 250 476 250 496.5 222 c 128,-1,55
 517 194 517 194 517 157 c 0,56,0
 517 85 517 85 463.5 42.5 c 128,-1,1
EndSplineSet
EndChar

StartChar: uni049B
Encoding: 1179 1179 489
Width: 600
GlyphClass: 2
Flags: W
AnchorPoint: "Anchor-3" 320 527 basechar 0
AnchorPoint: "Anchor-2" 300 0 basechar 0
LayerCount: 2
Fore
SplineSet
519 69 m 1,0,-1
 587 69 l 1,1,-1
 587 -147 l 1,2,-1
 517 -147 l 1,3,-1
 503 0 l 1,4,-1
 467 0 l 1,5,-1
 293 245 l 1,6,-1
 190 245 l 1,7,-1
 190 0 l 1,8,-1
 106 0 l 1,9,-1
 106 527 l 1,10,-1
 190 527 l 1,11,-1
 190 313 l 1,12,-1
 295 313 l 1,13,-1
 447 527 l 1,14,-1
 542 527 l 1,15,-1
 364 283 l 1,16,-1
 519 69 l 1,0,-1
EndSplineSet
EndChar

StartChar: uni049D
Encoding: 1181 1181 490
Width: 600
GlyphClass: 2
Flags: W
AnchorPoint: "Anchor-3" 300 527 basechar 0
AnchorPoint: "Anchor-2" 300 0 basechar 0
LayerCount: 2
Fore
SplineSet
106 0 m 1,0,-1
 106 527 l 1,1,-1
 191 527 l 1,2,-1
 191 315 l 1,3,-1
 236 315 l 1,4,-1
 236 430 l 1,5,-1
 282 430 l 1,6,-1
 282 315 l 1,7,-1
 310 315 l 1,8,-1
 454 527 l 1,9,-1
 542 527 l 1,10,-1
 378 284 l 1,11,-1
 569 0 l 1,12,-1
 477 0 l 1,13,-1
 310 244 l 1,14,-1
 282 244 l 1,15,-1
 282 120 l 1,16,-1
 236 120 l 1,17,-1
 236 244 l 1,18,-1
 191 244 l 1,19,-1
 191 0 l 1,20,-1
 106 0 l 1,0,-1
EndSplineSet
EndChar

StartChar: uni049F
Encoding: 1183 1183 491
Width: 600
Flags: W
LayerCount: 2
Fore
SplineSet
357 283 m 1,0,-1
 561 0 l 1,1,-1
 459 0 l 1,2,-1
 285 245 l 1,3,-1
 202 245 l 1,4,-1
 202 0 l 1,5,-1
 118 0 l 1,6,-1
 118 567 l 1,7,-1
 39 567 l 1,8,-1
 39 635 l 1,9,-1
 118 635 l 1,10,-1
 118 739 l 1,11,-1
 202 749 l 1,12,-1
 202 635 l 1,13,-1
 351 635 l 1,14,-1
 351 567 l 1,15,-1
 202 567 l 1,16,-1
 202 313 l 1,17,-1
 287 313 l 1,18,-1
 439 527 l 1,19,-1
 534 527 l 1,20,-1
 357 283 l 1,0,-1
EndSplineSet
EndChar

StartChar: uni04A1
Encoding: 1185 1185 492
Width: 600
Flags: W
LayerCount: 2
Fore
SplineSet
382 283 m 1,0,-1
 588 0 l 1,1,-1
 486 0 l 1,2,-1
 311 245 l 1,3,-1
 217 245 l 1,4,-1
 217 0 l 1,5,-1
 133 0 l 1,6,-1
 133 462 l 1,7,-1
 8 462 l 1,8,-1
 8 527 l 1,9,-1
 217 527 l 1,10,-1
 217 313 l 1,11,-1
 312 313 l 1,12,-1
 466 527 l 1,13,-1
 560 527 l 1,14,-1
 382 283 l 1,0,-1
EndSplineSet
EndChar

StartChar: uni04A3
Encoding: 1187 1187 493
Width: 600
Flags: W
LayerCount: 2
Fore
SplineSet
486 69 m 1,0,-1
 566 69 l 1,1,-1
 566 -147 l 1,2,-1
 496 -147 l 1,3,-1
 482 0 l 1,4,-1
 402 0 l 1,5,-1
 402 234 l 1,6,-1
 170 234 l 1,7,-1
 170 0 l 1,8,-1
 86 0 l 1,9,-1
 86 527 l 1,10,-1
 170 527 l 1,11,-1
 170 303 l 1,12,-1
 402 303 l 1,13,-1
 402 527 l 1,14,-1
 486 527 l 1,15,-1
 486 69 l 1,0,-1
EndSplineSet
EndChar

StartChar: uni04A5
Encoding: 1189 1189 494
Width: 600
Flags: W
LayerCount: 2
Fore
SplineSet
602 527 m 1,0,-1
 594 458 l 1,1,-1
 458 458 l 1,2,-1
 458 0 l 1,3,-1
 374 0 l 1,4,-1
 374 234 l 1,5,-1
 173 234 l 1,6,-1
 173 0 l 1,7,-1
 89 0 l 1,8,-1
 89 527 l 1,9,-1
 173 527 l 1,10,-1
 173 303 l 1,11,-1
 374 303 l 1,12,-1
 374 527 l 1,13,-1
 602 527 l 1,0,-1
EndSplineSet
EndChar

StartChar: uni0525
Encoding: 1317 1317 495
Width: 600
GlyphClass: 2
Flags: W
AnchorPoint: "Anchor-3" 293 527 basechar 0
AnchorPoint: "Anchor-2" 293 0 basechar 0
LayerCount: 2
Fore
SplineSet
493 69 m 1,0,-1
 574 69 l 1,1,-1
 574 -147 l 1,2,-1
 504 -147 l 1,3,-1
 490 0 l 1,4,-1
 409 0 l 1,5,-1
 409 458 l 1,6,-1
 177 458 l 1,7,-1
 177 0 l 1,8,-1
 93 0 l 1,9,-1
 93 527 l 1,10,-1
 493 527 l 1,11,-1
 493 69 l 1,0,-1
EndSplineSet
EndChar

StartChar: uni04A7
Encoding: 1191 1191 496
Width: 600
GlyphClass: 2
Flags: W
AnchorPoint: "Anchor-3" 300 527 basechar 0
AnchorPoint: "Anchor-2" 300 -200 basechar 0
LayerCount: 2
Fore
SplineSet
559.5 311 m 128,-1,1
 596 273 596 273 596 211 c 2,2,-1
 596 -60 l 2,3,4
 596 -133 596 -133 556 -172 c 128,-1,5
 516 -211 516 -211 448 -211 c 0,6,7
 384 -211 384 -211 335 -174 c 1,8,-1
 369 -119 l 1,9,10
 389 -130 389 -130 405 -135.5 c 128,-1,11
 421 -141 421 -141 444 -141 c 0,12,13
 511 -141 511 -141 511 -66 c 2,14,-1
 511 205 l 2,15,16
 511 242 511 242 494.5 262 c 128,-1,17
 478 282 478 282 446 282 c 0,18,19
 419 282 419 282 398 272.5 c 128,-1,20
 377 263 377 263 356 243 c 1,21,-1
 356 0 l 1,22,-1
 270 0 l 1,23,-1
 270 457 l 1,24,-1
 115 457 l 1,25,-1
 115 0 l 1,26,-1
 28 0 l 1,27,-1
 28 527 l 1,28,-1
 356 527 l 1,29,-1
 356 307 l 1,30,31
 400 349 400 349 466 349 c 0,32,0
 523 349 523 349 559.5 311 c 128,-1,1
EndSplineSet
EndChar

StartChar: uni04A9
Encoding: 1193 1193 497
Width: 600
GlyphClass: 2
Flags: W
AnchorPoint: "Anchor-3" 300 527 basechar 0
AnchorPoint: "Anchor-2" 300 -200 basechar 0
LayerCount: 2
Fore
SplineSet
519 107.5 m 128,-1,1
 488 55 488 55 433 24 c 1,2,3
 441 13 441 13 498 -55 c 2,4,-1
 516 -76 l 1,5,-1
 459 -119 l 1,6,7
 396 -45 396 -45 362 -3 c 1,8,9
 327 -11 327 -11 291 -11 c 0,10,11
 182 -11 182 -11 119.5 60.5 c 128,-1,12
 57 132 57 132 57 259 c 0,13,14
 57 343 57 343 84 406 c 128,-1,15
 111 469 111 469 162 503.5 c 128,-1,16
 213 538 213 538 282 538 c 256,17,18
 351 538 351 538 404 508 c 1,19,-1
 370 447 l 1,20,21
 332 467 332 467 286 467 c 0,22,23
 221 467 221 467 185 415 c 128,-1,24
 149 363 149 363 149 261 c 0,25,26
 149 58 149 58 294 58 c 0,27,28
 309 58 309 58 316 59 c 1,29,30
 259 144 259 144 259 215 c 0,31,32
 259 278 259 278 298.5 321.5 c 128,-1,33
 338 365 338 365 406 365 c 0,34,35
 472 365 472 365 511 325 c 128,-1,36
 550 285 550 285 550 219 c 0,37,0
 550 160 550 160 519 107.5 c 128,-1,1
354.5 147.5 m 128,-1,39
 367 115 367 115 392 79 c 1,40,41
 430 99 430 99 449 135.5 c 128,-1,42
 468 172 468 172 468 219 c 0,43,44
 468 256 468 256 452 277.5 c 128,-1,45
 436 299 436 299 407 299 c 0,46,47
 375 299 375 299 358.5 276 c 128,-1,48
 342 253 342 253 342 214 c 0,49,38
 342 180 342 180 354.5 147.5 c 128,-1,39
EndSplineSet
EndChar

StartChar: uni04AB
Encoding: 1195 1195 498
Width: 600
GlyphClass: 2
Flags: W
AnchorPoint: "Anchor-3" 344 518 basechar 0
AnchorPoint: "Anchor-2" 339 0 basechar 0
LayerCount: 2
Fore
SplineSet
436.5 -61.5 m 128,-1,1
 457 -92 457 -92 457 -128 c 0,2,3
 457 -178 457 -178 423.5 -208.5 c 128,-1,4
 390 -239 390 -239 332 -239 c 0,5,6
 275 -239 275 -239 235 -214 c 1,7,-1
 257 -163 l 1,8,9
 276 -172 276 -172 290.5 -176.5 c 128,-1,10
 305 -181 305 -181 327 -181 c 0,11,12
 355 -181 355 -181 369.5 -166 c 128,-1,13
 384 -151 384 -151 384 -125 c 0,14,15
 384 -93 384 -93 365 -63 c 128,-1,16
 346 -33 346 -33 309 -10 c 1,17,18
 206 0 206 0 148.5 72 c 128,-1,19
 91 144 91 144 91 261 c 0,20,21
 91 340 91 340 120.5 403 c 128,-1,22
 150 466 150 466 206 502 c 128,-1,23
 262 538 262 538 339 538 c 0,24,25
 441 538 441 538 515 476 c 1,26,-1
 474 421 l 1,27,28
 405 467 405 467 338 467 c 0,29,30
 267 467 267 467 224.5 414.5 c 128,-1,31
 182 362 182 362 182 261 c 256,32,33
 182 160 182 160 224.5 110.5 c 128,-1,34
 267 61 267 61 339 61 c 0,35,36
 408 61 408 61 476 107 c 1,37,-1
 516 52 l 1,38,39
 491 29 491 29 454.5 13.5 c 128,-1,40
 418 -2 418 -2 380 -8 c 1,41,0
 416 -31 416 -31 436.5 -61.5 c 128,-1,1
EndSplineSet
EndChar

StartChar: uni04AD
Encoding: 1197 1197 499
Width: 600
GlyphClass: 2
Flags: W
AnchorPoint: "Anchor-3" 300 527 basechar 0
AnchorPoint: "Anchor-2" 300 0 basechar 0
LayerCount: 2
Fore
SplineSet
530 457 m 1,0,-1
 342 457 l 1,1,-1
 342 69 l 1,2,-1
 423 69 l 1,3,-1
 423 -147 l 1,4,-1
 353 -147 l 1,5,-1
 339 0 l 1,6,-1
 258 0 l 1,7,-1
 258 457 l 1,8,-1
 65 457 l 1,9,-1
 65 527 l 1,10,-1
 541 527 l 1,11,-1
 530 457 l 1,0,-1
EndSplineSet
EndChar

StartChar: uni04AF
Encoding: 1199 1199 500
Width: 600
GlyphClass: 2
Flags: W
AnchorPoint: "Anchor-3" 300 527 basechar 0
AnchorPoint: "Anchor-2" 300 -200 basechar 0
LayerCount: 2
Fore
SplineSet
259 -212 m 1,0,-1
 259 16 l 1,1,-1
 58 527 l 1,2,-1
 147 527 l 1,3,-1
 302 97 l 1,4,-1
 455 527 l 1,5,-1
 542 527 l 1,6,-1
 341 16 l 1,7,-1
 341 -202 l 1,8,-1
 259 -212 l 1,0,-1
EndSplineSet
EndChar

